<?xml version="1.0" encoding="UTF-8"?>
<!DOCTYPE svg PUBLIC "-//W3C//DTD SVG 1.1//EN" "http://www.w3.org/Graphics/SVG/1.1/DTD/svg11.dtd">
<!-- Creator: CorelDRAW -->
<svg xmlns="http://www.w3.org/2000/svg" xml:space="preserve" width="10.2mm" height="7.3002mm" version="1.1" style="shape-rendering:geometricPrecision; text-rendering:geometricPrecision; image-rendering:optimizeQuality; fill-rule:evenodd; clip-rule:evenodd"
viewBox="0 0 1.86 1.33"
 xmlns:xlink="http://www.w3.org/1999/xlink"
 xmlns:xodm="http://www.corel.com/coreldraw/odm/2003">
 <defs>
  <style type="text/css">
   <![CDATA[
    .str0 {stroke:#373435;stroke-width:0.04;stroke-miterlimit:22.9256}
    .fil0 {fill:#FEFEFE}
    .fil1 {fill:#201E1E;fill-rule:nonzero}
   ]]>
  </style>
 </defs>
 <g id="Camada_x0020_1">
  <metadata id="CorelCorpID_0Corel-Layer"/>
  <g id="_2713881935104">
   <path class="fil0 str0" d="M1.53 0.38c-0.03,-0.01 -0.06,-0.01 -0.09,-0 -0.03,0 -0.07,0.01 -0.1,0.03l-0.01 -0.02c-0,-0 -0,-0 -0,-0 -0.01,-0.01 -0.01,-0.01 -0.02,-0.02l-0.03 -0.05c0,-0.01 0,-0.03 0,-0.04 -0,-0.01 -0,-0.02 -0.01,-0.03l0.05 -0 0 -0c0.01,-0 0.02,-0.01 0.03,-0.01 0.02,-0 0.03,-0.02 0.03,-0.04 -0,-0.01 -0,-0.02 -0.01,-0.03 -0.01,-0.01 -0.02,-0.01 -0.03,-0.01 -0.01,-0.01 -0.02,-0.01 -0.03,-0.01l-0.02 0c0.01,-0.01 0.01,-0.03 0.01,-0.04l-0 -0.01c-0,-0.02 -0.02,-0.04 -0.03,-0.04l-0.06 -0.02c-0.01,-0 -0.02,-0 -0.03,-0 -0.03,0 -0.05,0.03 -0.05,0.06l0 0.04c0,0.01 0,0.02 0.01,0.03l-0.03 -0c-0.01,-0.01 -0.01,-0.01 -0.02,-0.02l-0.02 -0.02c-0,-0 -0,-0 -0,-0 -0.01,-0.02 -0.03,-0.02 -0.05,-0.02 -0.02,0 -0.03,0.01 -0.05,0.02 -0.01,-0.01 -0.03,-0.01 -0.04,-0.01 -0.02,0 -0.04,0.01 -0.05,0.02 -0.01,0.01 -0.02,0.02 -0.03,0.04l-0.02 0c-0.01,-0.01 -0.02,-0.02 -0.02,-0.02 -0,-0.01 -0.01,-0.02 -0.02,-0.02l-0.01 -0.01c-0,-0 -0,-0 -0,-0l-0 -0.03c-0,-0.04 -0.04,-0.06 -0.07,-0.06 -0.01,0 -0.01,0 -0.02,0l-0.09 0.04c-0.02,0.01 -0.04,0.03 -0.03,0.06l0 0.02c0,0.02 0.01,0.04 0.03,0.04l-0.03 0 -0 0c-0.03,0 -0.05,0.04 -0.05,0.07 0,0.03 0.03,0.06 0.06,0.06l0.11 -0.01c0.01,0.01 0.03,0.02 0.04,0.02 0,0 0,0 0.01,-0l0.05 -0.01c0.01,-0 0.02,-0.01 0.03,-0.01 0.01,-0 0.02,0 0.03,0 -0.06,0.03 -0.11,0.06 -0.16,0.11 -0.03,0.03 -0.06,0.07 -0.08,0.11 -0,0 -0,0 -0,0.01 -0.01,-0 -0.03,-0.01 -0.04,-0.01 -0.04,-0.02 -0.07,-0.03 -0.11,-0.02 -0,0 -0,0 -0.01,0 -0.02,0 -0.05,0.01 -0.07,0.01 -0.02,0 -0.05,0.01 -0.07,0.01 -0.04,0.01 -0.06,0.04 -0.07,0.07 -0.06,0.03 -0.1,0.09 -0.12,0.15l-0 0c-0,0.01 -0,0.02 0.01,0.03l0 0c0.01,0.01 0.02,0.01 0.04,0.02 -0.02,0.05 -0.03,0.1 -0.03,0.15 -0.02,0 -0.04,0 -0.06,0 -0.01,0 -0.01,0 -0.02,0 -0.04,0 -0.06,0.04 -0.05,0.08 0,0.04 0.03,0.07 0.07,0.06l0.09 -0c0.02,0.05 0.06,0.1 0.1,0.13 0.05,0.04 0.1,0.05 0.16,0.05 0.07,-0.01 0.13,-0.05 0.17,-0.11l0.05 -0c0,0 0,-0 0.01,-0 0.01,-0 0.03,-0.01 0.04,-0.02l0.26 -0.01c0.01,-0 0.03,-0.01 0.04,-0.01l0.07 -0.01c0,-0 0,-0 0,-0 0.03,-0 0.06,-0.03 0.06,-0.06l0.01 -0.05c0,-0.01 0.01,-0.01 0.01,-0.02 0.02,0.1 0.06,0.19 0.13,0.27 0.07,0.07 0.16,0.12 0.26,0.1 0.1,-0.01 0.18,-0.08 0.22,-0.16 0.06,-0.1 0.07,-0.21 0.06,-0.32 -0.01,-0.11 -0.06,-0.22 -0.13,-0.3 -0.03,-0.03 -0.07,-0.06 -0.11,-0.08l-0 -0c-0.01,-0.02 -0.03,-0.05 -0.06,-0.05z"/>
   <path class="fil1" d="M1.16 0.86l-0 0c-0,-0 -0,-0.01 -0,-0.01l-0 -0 0 -0.01 0 0c0,0.01 0,0.01 0,0.02zm0.2 -0.66c0,-0 0.01,0 0.01,0.01 0,0 -0,0.01 -0.01,0.01 -0,0 -0.01,-0 -0.01,-0.01 -0,-0 0,-0.01 0.01,-0.01zm-0.62 -0.01c0,-0 0.01,-0 0.01,-0 -0,0 -0,0 -0,0 0,-0 0,-0 0,-0 0.01,-0 0.02,0 0.02,0.01 0,0.01 0.01,0.01 0.01,0.02 0,-0 0,-0 0.01,-0 0,-0 0.01,-0 0.01,0 0,0 0.01,0 0.01,0.01 0,0 0,0.01 -0,0.01 -0,0 -0.01,0 -0.01,0 -0.01,0 -0.02,0 -0.03,0 -0.01,-0 -0.02,-0 -0.04,-0 -0.01,0 -0.03,0 -0.04,0 -0,0 -0.01,0 -0.01,0 -0,0 -0.01,0 -0.01,0 -0,0 -0,0 -0,0 0,-0 0,-0 0,-0.01 -0,-0 -0,-0 -0,-0.01 0,-0 0,-0 0,-0 0.01,-0 0.01,-0 0.02,-0 0.01,-0 0.02,-0 0.03,-0 0.01,-0 0.02,-0 0.04,-0 0.01,-0 0.01,-0 0.02,-0.01 0,-0 0.01,-0 0.01,-0 -0,-0.01 -0.02,-0.02 -0.03,-0.02 0,0 0,0 0,0l-0.03 0c0.01,-0 0.02,-0 0.02,-0.01zm1.07 0.72c0,-0.04 -0,-0.07 -0.01,-0.11 -0,-0.03 -0.01,-0.06 -0.02,-0.08 -0.01,-0.02 -0.01,-0.04 -0.02,-0.06 -0.01,-0.02 -0.02,-0.04 -0.03,-0.05 -0,-0.01 -0.01,-0.02 -0.02,-0.02 -0.01,-0.01 -0.01,-0.02 -0.02,-0.02 -0.01,-0.01 -0.02,-0.03 -0.04,-0.04 -0,-0 -0,-0 -0.01,-0.01 0.01,0 0.01,0.01 0.02,0.02 0.01,0.01 0.01,0.01 0.02,0.02 0.01,0.01 0.03,0.03 0.04,0.05 0.01,0.02 0.02,0.03 0.03,0.05 0.01,0.02 0.02,0.04 0.02,0.05 0.01,0.03 0.02,0.06 0.02,0.08 0.01,0.04 0.01,0.07 0.01,0.11 -0,0.04 -0,0.07 -0.01,0.11 -0,0 -0,0.01 -0,0.01 0.01,-0.03 0.01,-0.07 0.01,-0.1zm-0.02 -0c-0,-0.04 -0.01,-0.08 -0.01,-0.12 -0,-0.02 -0.01,-0.04 -0.02,-0.06 -0.01,-0.02 -0.01,-0.04 -0.02,-0.06 -0.01,-0.02 -0.02,-0.04 -0.03,-0.06 -0.01,-0.02 -0.02,-0.03 -0.04,-0.05 -0.01,-0.01 -0.02,-0.03 -0.04,-0.04 -0,-0 -0,-0 -0.01,-0.01 0.01,0 0.01,0.01 0.02,0.02 0.01,0.01 0.01,0.01 0.02,0.02 0.01,0.01 0.03,0.03 0.04,0.05 0.01,0.02 0.02,0.03 0.03,0.05 0.01,0.02 0.02,0.04 0.02,0.06 0.01,0.02 0.01,0.04 0.02,0.06 0,0.01 0,0.02 0.01,0.03 0,0.01 0,0.02 0,0.03 0,0.02 0,0.04 0,0.06 0,0.04 -0,0.08 -0.01,0.11 -0,0 -0,0.01 -0,0.01 0.01,-0.04 0.01,-0.07 0.01,-0.11zm-0.59 -0.22l0 0.01c-0.01,0.05 -0.02,0.11 -0.02,0.17l0 0c0,-0 0,-0 0,-0 0.01,-0 0,-0.01 0,-0.02 -0,-0.01 -0,-0.01 -0,-0.02 0,-0.05 0.01,-0.08 0.02,-0.11l0 0c-0.01,0.03 -0.01,0.07 -0.01,0.1 0,-0.03 0.01,-0.06 0.01,-0.09l0 0.01c-0.01,0.03 -0.01,0.07 -0.01,0.11 0,0.02 -0.02,0.03 -0.03,0.04 -0,-0.06 0,-0.12 0.02,-0.18zm-0.49 0.39c-0,0 -0,0 -0,0l0 0c-0,0 -0.01,-0.01 -0.01,-0.02 -0,-0 -0,-0 -0,-0 -0,-0 -0,-0 -0,-0 -0,-0 -0,-0 -0,-0 -0,-0 -0,-0 -0,-0 0,-0 0,-0 0,-0 0,-0 0,-0 0,-0 0,-0 0,-0 0,-0 0,-0 0,-0 0,-0 0,-0 0,-0 0,-0 0,-0 0,-0 0,-0 0,-0 0,-0 0,-0 0,-0 0,-0 0,-0 0,-0 0,-0 0,-0 0,-0 0,-0 0,-0 0,-0 0,-0 0,-0 0,-0 0,-0 0,-0 0,-0 0,-0 0,-0 0,-0 0,-0 0,-0 0,-0 0,-0 0,-0 0,-0 0,-0 0,-0 0,-0 0,-0 0,-0 0,-0 0,-0 0,-0 0,-0 0,-0 0,-0 0,-0 0,-0 0,-0 0,-0 0,-0 0,-0 0,-0 0,-0 0,-0 0,-0 0,-0 0,-0 0,-0 0,-0 0,-0 0,-0 0,-0 0,-0 0,-0 0,-0 0,-0 0,-0 0,-0 0,-0 0,-0 0,-0 0,-0l0.26 -0.01c0.02,-0 0.03,-0.01 0.03,-0.03l0.01 -0.05c0,-0.01 0,-0.03 -0.01,-0.04l-0.04 -0.07c-0.01,-0.02 -0.01,-0.04 0.02,-0.05 0,-0 0.02,-0.01 0.03,-0.02l-0.03 0.02c-0.02,0.01 -0.02,0.03 -0.02,0.05l0.04 0.07c0.01,0.01 0.01,0.03 0.01,0.04l-0.01 0.05c-0,0.01 -0.01,0.01 -0.01,0.02 -0,0 -0,0 -0,0 -0,0 -0,0 -0,0 -0,0 -0,0 -0,0 -0,0 -0,0 -0,0 -0,0 -0,0 -0,0 -0,0 -0,0 -0,0 -0,0 -0,0 -0,0 -0,0 -0,0 -0,0 -0,0 -0,0 -0,0 -0,0 -0,0 -0,0l0 0c-0,0 -0.01,0 -0.01,0l-0.02 0c-0,0 -0,0 -0,0.01l0.02 -0c0.01,-0 0.02,-0 0.02,-0 0,-0 0.01,0 0.01,0.01 -0,-0.01 -0.01,-0.01 -0,-0.02 0,-0 0,-0 0,-0 0,-0 0.01,-0 0.01,-0.01 0,-0 0,-0 0,-0 0.01,-0.01 0.01,-0.01 0.01,-0.02l0.01 -0.05c0,-0.01 0,-0.03 -0.01,-0.04l-0.04 -0.07c-0,-0 -0,-0 -0,-0.01 -0,-0.01 0.01,-0 0.01,-0 -0,-0 -0.01,-0 -0.01,-0 -0,-0 -0.01,-0 -0.01,-0 0,-0 0,-0 0,-0 0,-0 0.01,0 0.01,0 -0,-0 -0.01,-0 -0.01,-0 -0,-0 -0,-0 -0,-0 -0,-0 -0,-0 -0,-0 0,-0.01 0.01,-0.01 0.02,-0.02 0,-0 0,-0 0,-0 0.01,0.01 0.01,0.02 0.01,0.02 -0,0.01 -0.01,0.01 -0,0.02l0.04 0.08c0.01,0.01 0.01,0.02 0.01,0.03l-0.02 0.09c-0,0.02 -0.02,0.04 -0.05,0.04 -0,0 -0,0 -0,0l-0.28 0.01zm-0.38 -0.13c-0.01,0.01 -0.02,0.03 -0.02,0.04 0,0.02 0.01,0.03 0.02,0.04l-0.23 0.01c-0.02,0 -0.03,-0.01 -0.03,-0.04 -0,-0.02 0.01,-0.04 0.02,-0.04 0,-0 0.18,-0.01 0.24,-0.01zm-0.04 -0.35l0 0 0 -0c0.01,-0 0.02,-0.01 0.04,-0.01 0,-0 0,-0 0,-0 0.02,-0 0.03,-0 0.05,0 0.01,0 0.01,0 0.02,0 -0.02,-0 -0.04,-0.01 -0.07,-0 -0.05,0.01 -0.1,0.04 -0.13,0.09 0.03,-0.05 0.08,-0.07 0.12,-0.08 0.04,-0 0.09,0.01 0.12,0.04 -0.04,-0.02 -0.08,-0.03 -0.12,-0.03 -0.06,0.01 -0.1,0.05 -0.14,0.11 -0,0 -0,0.01 -0,0.01 0.01,0 0.01,0 0.02,0l0 0c0,-0 0,-0 0.01,-0 0.01,-0 0.01,-0.01 0.02,-0.02 0.02,-0.02 0.05,-0.04 0.07,-0.04 0.04,-0 0.08,0.01 0.11,0.05 0.01,0.01 0.03,0.02 0.04,0.03 0,0 0.01,0 0.01,0 0,0 0,0 0,0 -0,0 -0.01,0 -0.01,0 -0,-0 -0,-0 -0.01,-0 -0.01,-0 -0.03,-0.01 -0.04,-0.03 -0.03,-0.03 -0.07,-0.05 -0.11,-0.05 -0.03,0 -0.05,0.02 -0.07,0.04 -0.01,0.01 -0.02,0.02 -0.03,0.02 -0,0 -0,0 -0.01,0 0,0 0,0 0,0 -0.01,0 -0.02,-0 -0.04,-0.01 0.03,-0.06 0.07,-0.11 0.12,-0.13zm0.66 -0.3c0,0 0,0 0,0 0,0 0,0 0,0l0.02 0.03c0,0 0,0 0,0 0,0 0,0 0,0l0 0c0,0 0,0 0,0 0.01,0.01 0.02,0.01 0.03,0.01l0.02 0.03c0.01,0.03 0.02,0.07 -0.03,0.15 0.05,-0.1 -0.02,-0.22 -0.15,-0.15 -0.05,0.02 -0.09,0.07 -0.12,0.11 0.01,-0.01 0.02,-0.02 0.03,-0.03 0.02,-0.02 0.04,-0.03 0.06,-0.05 0.02,-0.01 0.04,-0.02 0.06,-0.03 0.01,-0 0.03,-0.01 0.04,-0 0.01,0 0.02,0 0.03,0.01 -0.01,-0.01 -0.02,-0.01 -0.03,-0.01 -0.01,-0 -0.02,-0 -0.03,0 -0.02,0.01 -0.04,0.02 -0.06,0.03 -0.02,0.01 -0.04,0.03 -0.06,0.05 -0.02,0.02 -0.03,0.03 -0.05,0.05 -0.01,0.01 -0.02,0.03 -0.03,0.05 -0,0.01 -0,0.01 -0,0.02 -0,0 -0,0.01 0,0.02 0,0 0.01,0.01 0.01,0.01 -0,-0 -0,-0 -0,-0 -0.01,-0 -0.02,-0.01 -0.02,-0.01 -0,-0.01 -0.01,-0.02 -0.01,-0.02 0,-0.01 0.01,-0.02 0.01,-0.03 0,-0 0.01,-0.02 0.02,-0.04 0.06,-0.1 0.15,-0.15 0.17,-0.16 0.02,-0.01 0.03,-0.02 0.04,-0.02 -0.01,0 -0.01,0 -0.02,0.01 -0.13,0.05 -0.2,0.16 -0.23,0.21 0,0 -0.02,0.03 -0.01,0.05 0,0.01 0.02,0.02 0.03,0.02 0.01,0 0.03,0 0.05,-0 0.01,-0 0.02,-0 0.03,-0 0.01,-0 0.03,-0 0.04,-0.01 0.01,-0 0.02,-0 0.02,-0 0.02,-0 0.04,-0 0.06,-0 0.03,-0 0.06,-0 0.09,-0.01 0.02,-0 0.04,-0.01 0.06,-0.01l-0 0.01c-0.02,0 -0.04,0.01 -0.06,0.01 -0.03,0 -0.06,0 -0.09,0.01 -0.02,0 -0.04,0 -0.06,0 -0.01,0 -0.02,0 -0.02,0 -0.01,0 -0.03,0 -0.04,0.01 -0.01,0 -0.02,0 -0.03,0 -0.02,0 -0.04,0 -0.05,0 -0.02,-0 -0.03,-0.01 -0.04,-0.02 -0.01,-0.02 0.01,-0.06 0.01,-0.06 0.01,-0.02 0.08,-0.15 0.23,-0.21 0.02,-0.01 0.04,-0.01 0.05,-0.02zm-0.3 -0.05c-0.01,0 -0.01,-0 -0.01,-0.01 -0,-0.01 0,-0.01 0.01,-0.01 0.01,-0 0.01,0 0.01,0.01 0,0.01 -0,0.01 -0.01,0.01zm-0.07 -0.04c0,-0 0.01,-0.01 0.01,-0.01 0.01,0 0.01,0 0.02,0.01 0.01,0.01 0.01,0.02 0.01,0.04 -0,0.01 -0.01,0.01 -0.01,0.01 0.01,-0.01 0.01,-0.03 0.01,-0.04 -0,-0.01 -0.01,-0.01 -0.01,-0.02 -0.01,-0 -0.01,-0 -0.02,0zm0.22 -0.01c0,-0 0.01,-0 0.01,-0 0,-0 0,-0 0,-0 0,-0 0,-0 0,-0 0,-0 0,-0 0,-0 0,-0 0,-0 0,-0 0,-0 0.01,-0 0.01,-0 0,-0 0.01,0 0.01,0 -0,-0 -0,-0 -0,-0l0.14 -0.01c0.01,-0 0.02,0.01 0.02,0.02 0,0.01 -0,0.02 -0.01,0.02l-0.14 0.01c0,-0 0,-0 0,-0l0 -0c0,-0 0,-0 0.01,-0l0.13 -0.01c0,-0 0.01,-0.01 0.01,-0.02 -0,0 -0,0 -0.01,0.01l-0.13 0.01c0,-0 0,-0 -0,-0l-0 -0c0,0 0,0 0,0 0.01,-0 0.02,-0 0.03,-0 0.01,-0 0.02,-0 0.03,-0 0.01,-0 0.02,-0 0.03,-0 0.01,-0 0.02,-0 0.02,-0 0.01,-0 0.01,-0 0.01,-0 0,0 -0,0 -0.01,0 -0.01,0 -0.01,0 -0.02,0 -0.01,0 -0.02,0 -0.03,0 -0.01,0 -0.02,0 -0.03,0 -0.01,0 -0.02,0 -0.03,0 -0,0 -0,0 -0,0l-0 -0c-0,-0 -0,-0.01 -0.01,-0.01 -0,-0 -0.01,-0 -0.01,-0 -0,0 -0,0 -0.01,0 -0,0 -0.01,0 -0.01,0 -0,0 -0,0 -0,0 -0,0 -0,0 -0,0 -0,0 -0,0 -0,0 -0,0 -0,0 -0,0 -0,0 -0.01,0 -0.01,0 -0,0 -0.01,-0 -0.01,-0 0,0 0,-0 0.01,-0zm-0.05 -0.03l0.04 -0c0,-0 0.01,0 0.01,0 0.01,0 0.01,0.01 0.01,0.01 -0.01,-0.01 -0.02,-0.01 -0.02,-0.01 0.01,0 0.01,0.01 0.02,0.01 -0.01,-0.01 -0.02,-0.01 -0.03,-0.01 0.01,0 0.01,0.01 0.02,0.01 -0.01,-0.01 -0.02,-0.01 -0.03,-0.01 0.01,0 0.01,0.01 0.02,0.02 -0.01,-0.01 -0.02,-0.01 -0.03,-0.01 0.01,0 0.01,0.01 0.02,0.02 -0.01,-0.01 -0.02,-0.01 -0.03,-0.01l-0 -0zm0.04 -0.01c-0,-0 -0,-0.01 -0.01,-0.01l-0.06 -0.05c-0,-0 -0,-0.01 -0,-0.01 0,0 0,0 0,0l0.06 0.05c0.01,0 0.01,0.01 0.01,0.02 -0,-0 -0,-0 -0.01,0zm0.2 -0l-0 0 -0.01 -0.01c-0,-0 -0,-0 -0,-0 -0,-0 -0.01,-0.01 -0.02,-0.01 0,0 0.01,0 0.01,0.01 0,0 0,0 0,0l0.01 0.02 -0 0c-0,-0 -0,0 -0,0 -0.01,0 -0.02,0.01 -0.02,0.02 -0,0 -0,0 -0,0 -0,0 -0,0 -0,0l-0 0 -0.02 -0.03c-0,0 -0,0 -0.01,0.01l0.02 0.02 -0.01 0 -0.01 -0.01 -0 -0c-0,-0 -0,-0 -0,-0.01 -0.01,0.01 -0.01,0.02 -0.01,0.02l-0 0c0,-0 0,-0 0,-0 0,-0.01 0.01,-0.03 0.02,-0.04 0.01,-0.01 0.02,-0.01 0.03,-0.02 0.01,-0 0.02,0 0.03,0.01 0,0 0,0 0,0l0.01 0.02zm0.09 -0.01l-0.01 -0.02c-0,-0 -0,-0 -0,-0 -0,-0 -0.01,-0.01 -0.02,-0.01 0,0 0.01,0 0.01,0.01 0,0 0,0 0,0l0.02 0.02c-0,0 -0,0 -0,0 -0,0 -0.01,0 -0.01,0l-0.02 0 -0.02 -0.02c-0,0 -0,0 -0.01,0l0.01 0.02 -0.01 0 -0.01 -0.01 -0 -0c-0,-0 -0,-0 -0,-0.01 -0.01,0 -0.01,0.01 -0.01,0.01l-0 -0c0,-0.01 0.01,-0.01 0.01,-0.02 0.01,-0.01 0.02,-0.01 0.03,-0.02 0.01,-0 0.02,0 0.03,0.01 0,0 0,0 0,0l0.02 0.02c-0,-0 -0,-0 -0.01,-0zm0.04 0.05c0,0 0,0 0,0l-0.01 -0 0 0 0.01 -0c0,0.01 -0,0.01 -0,0.02l-0.11 0.01c0.01,-0.01 0.01,-0.02 0.01,-0.04 -0,-0.02 -0.01,-0.03 -0.02,-0.04l0.09 -0 0 -0c0.02,-0 0.03,0.01 0.04,0.04zm0.13 -0.06l0 -0 0.01 -0c0.01,-0 0.01,-0.01 0.02,-0.01 -0,0 -0,0 -0.01,0l-0 0 0 -0c0,-0 0,-0.01 0,-0.02 -0,-0 -0.01,-0 -0.01,-0 -0,0 -0,0 -0.01,0l-0.01 0.01c-0,-0 0,-0.01 0,-0.01 -0,0 -0.01,0.01 -0.01,0.01 -0,0 0,0 0,0l-0.01 0.01 -0.01 0c-0.01,0 -0.02,-0.01 -0.02,-0.02l-0 -0.04c-0,-0 -0,-0 0,-0.01 -0.01,0 -0.01,0.01 -0.01,0.02l0 0.04c0,0.01 0.01,0.02 0.02,0.02l0.01 -0 -0 0 -0 0c-0.01,0 -0.02,-0.01 -0.03,-0.02l-0 -0.04c-0,-0.01 0.01,-0.02 0.02,-0.03 0,-0 0.01,0 0.01,0l0.06 0.02c0.01,0 0.01,0.01 0.01,0.02l0 0.01c0,0.01 -0.01,0.02 -0.02,0.03l-0.01 0zm-0.01 0.04c-0,-0 -0.01,-0.01 -0.01,-0.01 0,0 0,0 0.01,0.01 -0,-0 -0.01,-0.01 -0.01,-0.01 -0,0 -0,0 -0,0 0,0 0,0 0.01,0.01 -0,-0 -0.01,-0.01 -0.01,-0.01 -0,-0 -0.01,-0 -0.01,-0 0,0 0.02,0 0.02,0 0,0 0.01,0.01 0.01,0.01zm-0.12 0.61c-0,0 -0,0 -0,0 -0.02,-0 -0.04,-0.02 -0.04,-0.05 0,-0.02 0.02,-0.04 0.04,-0.05 0,-0 0,-0 0,-0 0.02,0 0.04,0.02 0.04,0.05 -0,0.02 -0.02,0.04 -0.04,0.05zm-0.7 0.31c-0.02,0 -0.03,-0.01 -0.03,-0.04 -0,-0.02 0.01,-0.04 0.02,-0.04 0,-0 0.18,-0.01 0.24,-0.01 -0.01,0.01 -0.02,0.03 -0.02,0.04 0,0.02 0.01,0.03 0.02,0.04l-0.23 0.01zm-0.1 -0.4c0.03,-0 0.06,0.01 0.08,0.03 0.01,0.01 0.03,0.02 0.04,0.04 -0,0 -0,0 -0,0 -0,0 0,0 0,0l-0 0c-0.01,-0.02 -0.03,-0.03 -0.04,-0.04 -0.03,-0.02 -0.05,-0.03 -0.08,-0.02 -0.04,0 -0.07,0.03 -0.1,0.08 -0.02,0.04 -0.03,0.1 -0.02,0.16 -0,0 -0,0 -0.01,0 -0,-0.06 0,-0.11 0.02,-0.16 0.02,-0.05 0.06,-0.08 0.1,-0.09zm0.59 -0.46l0 0c0,0 0,0 0,0l0 0c0,0 0.01,0 0.01,0.01l0 0 -0 0c-0,0 -0,0 -0,0l-0 0 -0 -0c-0.01,-0.01 -0.02,-0.01 -0.04,-0.01l-0.01 -0 0.04 -0zm0.05 -0.06c0,0 -0,0 -0,0l-0.02 0c0,-0.01 0.01,-0.02 0.02,-0.02 0,-0 0,-0 0,-0 0,0 0,0 0,0 0,0 0,0 0,0 0,0 0,0 0,0 0,0 0,0 0,0 0,0 0,0 0,0 0,0 0,0 0,0 0,0 0,0 0,0 0,0 0,0 0,0 0,0 0,0 0,0 0,0 0,0 0,0 0,0 0,0 0,0 0,0 0,0 0,0 0,0 0,0 0,0 0,0 0,0 0,0 0,0 0,0 0,0 0,0 0,0 0,0 0,0 0,0 0,0 0,0 0,0 0,0 0,0 0,0 0,0 0,0 0,0 0,0 0,0 0,0 0,0 0,0 0,0 0,0 0,0 0,0 0,0 0,0 0,0 0,0 0,0 0,0 0,0 0,0 0,0 0,0 0,0 0,0 0,0 0,0 0,0 0,0 0,0.01 -0,0.03 -0.01,0.04l-0.01 0 -0 -0.01c0,-0.01 0,-0.01 0,-0.02 -0,-0.02 -0.01,-0.03 -0.02,-0.03zm0.24 0.01l0 0c0,-0 0,0 0.01,0 0,0 0,0.01 0,0.01 0,0 0,0 -0,0 -0,-0 -0,-0 -0,-0 0,-0 0,-0 -0,-0 -0,-0 -0,-0 -0,-0 -0,0 -0,0 -0,0 -0.01,-0.01 -0.02,-0.01 -0.03,-0.01 -0,0 -0,0 -0,0 -0,0 -0,0 -0,0 -0,0 -0.01,0 -0.02,0l-0.04 -0c-0,-0 -0,-0 -0,-0 -0,-0 -0,-0.01 -0,-0.01l0.09 0zm0.05 -0.08c0,-0 0,-0 0,-0 0,-0 0,0 0,0 0,0 0,0 0,0 0,0 -0,0 -0,0.01l-0.05 0.05c-0,0 -0,0 -0,0l-0 -0c-0,-0 -0,-0 -0,-0l-0 -0c-0,-0 -0,-0 -0,-0 -0,-0 -0,0 -0,0 -0,0 -0,0 -0,0 0,-0 0,-0.01 0.01,-0.01l0.05 -0.05zm-0.06 0.27c-0.04,0 -0.07,-0.03 -0.08,-0.08 -0.01,-0.05 0.02,-0.09 0.06,-0.1 0.04,-0 0.07,0.03 0.08,0.08 0.01,0.05 -0.02,0.09 -0.06,0.1zm0.09 0.01l-0.03 -0.05c0,-0 0,-0 0,-0.01l0.04 0.06c-0,-0 -0,-0 -0,0zm-0.31 -0.06c-0.01,-0.01 -0,-0.03 0.01,-0.03 0,-0 0.01,-0 0.01,-0 0.01,-0 0.02,0.01 0.03,0.01l0.07 0.11 -0 0 -0.07 -0.11c-0,-0.01 -0.01,-0.01 -0.02,-0.01 0,0 0.01,0.01 0.01,0.01l0.07 0.11 -0.01 0c-0,0 -0.01,0 -0.01,0 -0,-0 -0.01,-0.01 -0.01,-0.01 -0.01,-0.01 -0.02,-0.02 -0.02,-0.04 -0,-0.01 -0.01,-0.01 -0.01,-0.02 -0,-0.01 -0.01,-0.01 -0.01,-0.01 -0,-0 -0.01,-0.01 -0.01,-0.01 -0,-0 -0,-0.01 -0.01,-0.01 -0,-0.01 -0.01,-0.01 -0.01,-0.01 0,0 0,0 0,0.01 0,0 0,0.01 0.01,0.01 0,0 0,0.01 0.01,0.01 0,0 0.01,0.01 0.01,0.02 0,0.01 0.01,0.01 0.01,0.02 0.01,0.01 0.02,0.02 0.02,0.04 0,0 0.01,0.01 0.01,0.01 -0,0 -0,0 -0,0l-0.07 -0.11c-0,-0 -0,-0.01 -0,-0.01 -0,0 -0,0 -0,0 -0.01,0 -0.01,0.01 -0.01,0.02l0.07 0.11c-0,0 -0,0 -0,0l-0.07 -0.11zm0.15 -0.11c-0,0 -0,0 -0.01,0l-0.01 0c0,-0 0,-0 0,-0l0.01 -0zm0.01 -0.01l-0.02 0c0,-0 0,-0 0,-0l0.03 -0c-0,0 -0.01,0 -0.01,0zm0.09 0.16c0.01,-0.01 0.01,-0.01 0.01,-0.02l0.03 0.05 -0.03 0 -0.02 -0.03zm-0.01 0.01c0,-0 0,-0 0,-0l0.01 0.02 -0 0 -0.01 -0.02zm-0.03 0.01c0,-0 0,-0 0,-0 0,-0 0,-0 0,-0l-0 0.01 -0 0 0 -0.01zm-0.01 0c0,0 0,-0 0.01,-0l-0 0.01 -0.01 0 0 -0.01zm-0.01 -0c0,0 0,0 0,0l-0 0.01 -0 0 0 -0.01zm-0.08 -0.04c0,0.01 0.01,0.01 0.01,0.02 0,0.01 0,0.02 0.01,0.03 0,0 0,0 0,0.01 -0,-0 -0,-0.01 -0.01,-0.01 -0,-0 -0,-0.01 -0.01,-0.01 -0,-0 -0,-0.01 -0.01,-0.01l0 -0.01zm-0.01 -0.01l0 -0 -0.01 0.05 -0 -0 0.01 -0.05zm-0.01 0l0.01 -0 -0 0 -0.01 0.04 -0.01 -0.01 0 -0.03zm-0.01 0l0 -0 -0 0.02 -0 -0 0 -0.02zm0.1 0.05l-0 0.01 -0.03 0 -0 -0c-0,-0.01 -0,-0.01 -0,-0.01 -0,-0 -0,-0 -0,-0.01l-0 -0 0 0c0.01,0.01 0.02,0.01 0.03,0.01l0 0zm0.04 0l0.01 -0c0,-0 0,-0 0,-0l0 -0 0 0 -0.01 0 0 -0zm-0.07 -0.18c-0,0 -0.01,0.01 -0.01,0.01 -0,0 -0,0 -0,0 -0,0 -0,0 -0,0 -0,0 -0.01,0.01 -0.01,0.01 -0,0 -0,0 -0.01,0.01 -0,0 -0,0 -0,0 -0,0 -0,0 -0,0 -0,0 -0,0 -0,0 -0,0 -0,0 -0,0 -0,0 -0,0 -0,0 0,0 0,-0 0,-0 0,-0 0,-0 0,-0 0,-0 0,-0 0,-0 0,-0 0,-0 0,-0 0,-0 0,-0 0,-0 0,-0 0,-0 0.01,-0.01 0,-0 0.01,-0.01 0.01,-0.01 -0.01,0.02 -0.01,0.04 -0.01,0.06 0,0 0,0.01 0,0.01 -0.01,-0 -0.02,-0 -0.02,-0.02 0,0 0,0 0,0.01 0,0.03 0.03,0.05 0.05,0.07 0,0 0.01,0.01 0.01,0.01 -0.03,-0.01 -0.06,-0.04 -0.07,-0.07 -0,-0.03 0.02,-0.07 0.05,-0.09zm-0.02 0.19c-0,-0.01 -0,-0.01 -0,-0.02 -0,-0.02 -0.01,-0.03 -0.02,-0.05l0 -0c0,0.01 0.01,0.01 0.02,0.02 0.01,0.01 0.01,0.02 0.01,0.03 0,0.01 0,0.01 0,0.02l-0.01 0zm0.11 -0.22c0,-0 0.01,-0 0.01,-0 0,-0 0.01,-0 0.01,-0 0,0 0,0 0,0 0,0 -0,0 -0,0 -0,0 -0.01,0 -0.01,0 -0,0 -0.01,0 -0.01,0 -0,-0 -0,-0 -0,-0 0,0 0,-0 0,-0zm0.39 0.51c-0.01,0.01 -0.01,0.01 -0.02,0.02 -0.01,0.01 -0.02,0.02 -0.02,0.03 -0.01,0.01 -0.02,0.02 -0.02,0.03 -0.01,0.01 -0.01,0.02 -0.02,0.02 -0,0 -0,0.01 -0.01,0.01l-0 0c0,-0 0,-0.01 0.01,-0.01 0.01,-0.01 0.01,-0.01 0.02,-0.02 0.01,-0.01 0.02,-0.02 0.02,-0.03 0.01,-0.01 0.02,-0.02 0.02,-0.03 0.01,-0.01 0.01,-0.02 0.02,-0.02 0,-0 0.01,-0.01 0.01,-0.01 0,0 0,0 0,0 -0,0 -0.01,0.01 -0.01,0.01zm0.01 0.03l-0 -0c-0,-0 -0,-0 -0,-0 -0,-0 -0,-0.01 -0.01,-0.01l-0 -0 0.02 -0.02c0,0.01 0.01,0.01 0.01,0.02l-0.01 0.01zm-0.03 -0.03l-0 -0c-0.01,-0.01 -0.02,-0.01 -0.03,-0.01l-0 -0 0.02 -0.06c0.01,0.01 0.02,0.03 0.03,0.04l-0.02 0.03zm-0.02 0c-0,-0 -0,-0 -0.01,-0 -0.01,-0 -0.01,-0.01 -0.02,-0.01l0 -0c0.01,0 0.03,0.01 0.04,0.02l-0 0c-0,-0 -0.01,-0.01 -0.01,-0.01zm-0.05 0.05l0 -0c0.01,-0 0.02,0 0.03,0.01l-0 0c-0.01,-0 -0.02,-0.01 -0.03,-0zm0.02 0.06c-0.01,0 -0.01,0 -0.02,0.01 -0,0 -0.01,0 -0.01,0 0,0 0,-0 0.01,-0 0,-0 0.01,-0 0.02,-0.01 0,-0 0.01,-0 0.01,-0l-0 0c-0,0 -0.01,0 -0.01,0zm-0.03 0c-0,0 -0,0 -0,0l-0.02 0 0 -0 0.02 -0 -0 0zm-0.03 0.03l0 -0.01 0.03 -0 -0.01 0.01 -0.03 0zm0.05 -0.02c-0,-0 -0.01,-0 -0.01,-0 0,0 0,0 0.01,0l-0 0zm0.03 -0.04l-0 -0c-0,-0 -0.01,-0 -0.01,-0.01l-0 -0 0.01 -0.01 0 0c0,0 0.01,0 0.01,0.01l0 0 -0.01 0.01zm0.02 -0.01l-0 0c-0.01,-0.01 -0.01,-0.01 -0.02,-0.02l0 -0c0.01,0 0.01,0.01 0.02,0.02zm0.03 -0.04c-0,-0 -0,-0 -0,-0.01 -0,-0 -0,-0 -0,-0 -0,-0 -0,-0 -0,-0l0 -0c0,0 0.01,0.01 0.01,0.01 0,0 0.01,0.01 0.01,0.01l-0 0c-0,-0 -0,-0 -0.01,-0.01zm-0.02 -0c0,0 0,0.01 0,0.01 -0,0 -0,0.01 -0.01,0 -0,-0 -0,-0 -0,-0l0.01 -0.01zm-0.04 0.05c0.01,0 0.01,0.01 0.02,0.01l-0 0c-0.01,-0.01 -0.01,-0.01 -0.02,-0.01l0 -0zm-0.01 0c-0,-0 -0.01,-0 -0.01,0 -0,0 -0.01,0 -0.01,0l0.01 -0.02c0,0.01 0.01,0.01 0.01,0.02 0,0 0,0 0,0l-0 0zm-0.2 -0.01l-0.02 -0.03c0,-0 0,-0 0,-0l0.05 0.04 -0 0c-0,0 -0,0 -0,0l-0 0 -0.03 -0.02zm-0.02 -0.04c0,-0 0,-0 0,-0l0 0c-0,0 -0,0.01 -0,0.01 -0,0 -0,0 -0,0l-0 -0c0,-0 0,-0.01 0,-0.01zm-0.02 -0.02c0,-0 0.01,-0.01 0.01,-0 -0,0 -0.01,0 -0.01,0 -0,0 -0,0 -0,0l-0 -0c0,-0 0,-0 0,-0zm0.28 -0.09l-0.02 0.05 -0 -0 0.01 -0.06 0 0c0,0 0,0 0.01,0 0,0 0,0 0,0zm-0.04 0.07l0 -0c0,0 0.01,0 0.01,0l-0 0c-0,-0 -0.01,-0 -0.01,-0zm-0.01 0.06c0,-0 0,-0 0,-0l-0 0 0 -0zm-0.01 0.03c0,-0.01 0,-0.01 0.01,-0.02 0,-0.01 0.01,-0.03 0.01,-0.04 0,-0.01 0.01,-0.03 0.01,-0.04 0,-0.01 0.01,-0.03 0.01,-0.04 0,-0.01 0.01,-0.02 0.01,-0.03 0,-0.01 0,-0.01 0,-0.01 0,0 -0,0 -0,0.01 -0,0.01 -0,0.01 -0.01,0.03 -0,0.01 -0.01,0.02 -0.01,0.04 -0,0.01 -0.01,0.03 -0.01,0.04 -0,0.01 -0.01,0.03 -0.01,0.04 -0,0 -0,0.01 -0,0.01l-0 0.01zm-0.02 -0.03c0,0 0,0.01 0,0.01 -0,0.02 -0,0.03 -0,0.04 -0,0 -0,0 -0,0l-0 0c-0,-0 -0,-0 -0,-0 -0,-0.01 -0,-0.03 -0,-0.04 0,-0 -0,-0 -0,-0l0 -0.01zm0 0.06l-0 -0.01c0,-0.01 0.01,-0.01 0.01,-0.01l-0 0.01c-0,0 -0.01,0.01 -0.01,0.02zm0.01 -0.03l-0 0 -0.01 -0.02c-0,0 -0,0 -0,0l-0 -0.01c0.01,-0.01 0.01,-0.01 0.02,-0.01l-0 0.02 -0.01 -0.01c-0,0 -0,0 -0.01,0 0,0 0.01,0.01 0.01,0.01zm0.01 -0.05c-0,-0 -0,-0 -0,-0.01 -0,-0 0,-0.01 0,-0.01 0,-0 0,0 0,0l-0 0.01zm-0 -0.04c0,-0 0.01,-0 0.01,-0l-0 0c-0,0 -0.01,0 -0.01,0 -0.01,0 -0.01,0 -0.02,0l0 -0c0.01,-0 0.01,-0 0.02,-0zm-0.05 0.11l-0 -0.01c0,-0 0,-0.01 0.01,-0.01l-0 0.01c-0,0 -0,0 -0,0.01zm-0.01 -0.04c-0,-0 -0,-0.01 -0,-0.01 0,-0 0.01,-0 0.01,0 0,0 0,0.01 0,0.01 -0,0 -0.01,0 -0.01,-0zm-0.02 -0.17c0,-0 0,-0 0,-0 0,-0 0,-0 0,-0 0,-0 0,-0 0.01,-0 0,-0 0,-0 0.01,-0 0,-0 0,-0 0,-0 0.01,-0 0.01,-0 0.01,-0 0,0 -0,0 -0.01,0 -0,0 -0,0 -0,0 -0,0 -0,0 -0.01,0 -0,0 -0,0 -0.01,0 -0,0 -0,0 -0,0 -0,0 -0,0 -0,0 -0,0 -0.01,0 -0.01,0l-0 -0c0,-0 0.01,-0 0.01,-0zm-0.03 0.02c0,-0 0.01,-0 0.01,-0.01l0 0.03 -0.02 -0.02zm0 0.03l-0.01 -0.02c0.01,0.01 0.01,0.02 0.02,0.03l0 0.01 -0.01 -0.02zm0.02 0.08c-0,-0.01 -0.01,-0.03 -0.01,-0.04 -0.01,-0.02 -0.01,-0.03 -0.01,-0.04 -0,-0.01 -0.01,-0.02 -0.01,-0.03 -0,-0.01 -0,-0.01 -0,-0.01 0,0 0,0 0,0.01 0,0.01 0.01,0.02 0.01,0.03 0,0.01 0.01,0.03 0.01,0.04 0,0.01 0.01,0.02 0.01,0.03l0 0.01zm-0.01 0.03l-0 0c-0,0 -0,0 -0,0l-0 0 -0.01 -0.02 0 -0 0.01 0.01zm-0.1 -0.02c0.01,-0.01 0.01,-0.03 0.02,-0.04l0 -0 0.06 0.09 -0 0c-0.01,0 -0.01,0 -0.02,0l-0 0 -0.06 -0.05 0 -0zm-0.01 -0.01c0,-0.01 0.01,-0.02 0.01,-0.03 0,-0.01 0.01,-0.02 0.01,-0.02l0 0c-0,0.01 -0.01,0.01 -0.01,0.02 -0,0.01 -0.01,0.02 -0.01,0.03 -0,0 -0,0 -0,0.01l-0 -0c0,-0 0,-0 0,-0.01zm0.21 -0.12c0.01,0 0.01,0 0.02,0.01l0 0 -0.02 0.08 -0 0c-0.01,0 -0.01,0 -0.02,0l-0 0 0.02 -0.09 0 0zm-0.04 -0.02c-0,0 -0,0 -0,0 -0,0 -0,0 -0,0 0,0 0,0 0,0 0,0 0,0 -0,0 -0,0 0,-0 0,-0 0,-0 0,-0 0,-0 0,-0 0.01,-0 0.01,-0 0,0 0,0 0.01,0 0,0 0,0 0,0 0,0 0,0 0,0 -0,-0 -0.01,-0 -0.01,-0 -0,-0 -0,-0 -0.01,0zm-0.1 0.05c0,-0 0.01,-0.01 0.01,-0.01 0,-0 0,-0 0,-0l0 0c-0.01,0.01 -0.02,0.01 -0.03,0.02l-0 -0c0,-0.01 0.01,-0.01 0.01,-0.01zm-0.03 0.01c-0,-0 -0,-0.01 0,-0.01 0,-0 0.01,-0 0.01,0 -0,-0 -0.01,-0 -0.01,0 -0,0 -0.01,0.01 -0,0.01zm-0.02 0.01c-0,0 -0,0.01 -0,0.01 -0,-0 -0,-0.01 -0,-0.01 0,-0 0.01,-0.01 0.01,-0 -0,0 -0.01,0 -0.01,0zm0.05 -0.04c-0,0 -0,-0 -0,-0 0,-0 0,-0 0,-0 0,-0 0,-0 0.01,-0.01 0,-0 0,-0 0.01,0 0,0 0,0 0,0 0,0 0,0 0,0 -0.01,-0 -0.02,-0 -0.02,0.01zm0.06 0l0 -0c0,-0 0,-0 0,-0l0 -0c0,-0 0.01,-0 0.01,-0l0 -0c0,-0 0,-0 0,-0l0 -0c0,-0 0,-0 0.01,-0l0 -0 0 0.06 -0.04 -0.06zm0.08 -0.02c0,0 0,0 0,0 0,0 0,0 0,0 -0,-0 -0.01,-0 -0.01,-0 -0,-0 -0,-0 -0.01,-0 -0,0 -0,0 -0,0 0,0 0,0 0,0 0,0 0,0 -0,0 -0,0 0,-0 0,-0 0,-0 0,-0 0,-0 0,-0 0,-0 0.01,-0 0,0 0,0 0.01,0zm-0.16 0.07c-0,0 -0,0 -0,0.01 -0,0 -0,0.01 -0.01,0.01l-0 -0c0,-0 0,-0.01 0.01,-0.01 0,-0 0,-0 0,-0.01 0,-0 0,-0 0,-0l0 0c-0,0 -0,0 -0,0zm0.01 0.03l-0.01 -0.01 0 -0c0,-0 0,-0 0,-0l0 -0 0.01 0.01 -0 0zm0.05 -0.08c-0.01,0 -0.01,0.01 -0.02,0.01 0,0 -0,0 -0,0l-0 -0c0.01,-0 0.01,-0.01 0.02,-0.01l0 0zm0.01 -0.02c-0,-0 -0.01,-0 -0.01,-0 -0,0 -0,0 -0.01,0 -0,0 -0,0 -0,0 -0,0 -0,0 -0,0 -0,0 0,-0 0,-0 0,-0 0,-0 0,-0 0,-0 0,-0 0.01,-0 0,-0 0.01,0 0.01,0 0,0 0,0 0,0 0,0 0,0 0,0zm0.06 0.01l0 0c0,0 0,0 0,0l0 0 -0.01 0.03 -0 -0 -0 -0.03zm-0.08 0.17c-0.01,-0.01 -0.02,-0.03 -0.03,-0.04 -0.01,-0.01 -0.02,-0.03 -0.02,-0.04 -0.01,-0.01 -0.01,-0.02 -0.02,-0.03 -0,-0.01 -0.01,-0.01 -0.01,-0.01 0,0 0,0 0.01,0.01 0,0.01 0.01,0.02 0.02,0.03 0.01,0.01 0.02,0.02 0.02,0.04 0.01,0.01 0.01,0.02 0.02,0.03l0 0.01zm0.01 0.01l-0 -0.01c0,-0.01 0.01,-0.01 0.01,-0.02 0,-0 0,-0.01 0.01,-0.01l0 0.01c-0.01,0.01 -0.01,0.02 -0.01,0.03zm0.01 -0.1l-0 -0.01c0.01,0.01 0.02,0.03 0.03,0.04 0,-0 0,-0 0.01,-0l-0.03 -0.06 -0.01 -0.05c0.02,0.03 0.04,0.06 0.05,0.09l0 0.01c-0,0 -0.01,0 -0.01,0.01l0 0c-0,0 -0,0 -0.01,0l0 0c-0,0 -0,0 -0,0l0 0c-0.01,0.01 -0.01,0.01 -0.02,0.02l-0 -0 -0 -0c0,-0.01 0.01,-0.01 0.01,-0.02l-0.02 -0.04zm0.03 0.13c-0,-0.01 -0.01,-0.02 -0.01,-0.03 -0,-0.01 -0,-0.01 -0.01,-0.02l-0 -0.01c0,0.01 0.01,0.02 0.01,0.03 0,0.01 0.01,0.02 0.01,0.03l-0 0zm0.02 -0.09c-0,-0 -0,-0 -0,-0 -0,-0.02 -0,-0.03 -0,-0.05 0,-0.02 0,-0.03 0,-0.04 0,-0.01 0,-0.02 0,-0.03 0,-0.01 0,-0.01 0,-0.01 0,0 0,0 0,0.01 0,0.01 0,0.02 0,0.03 0,0.01 0,0.03 0,0.04 0,0.01 0,0.03 0,0.04l-0 0.01zm0 0.1l-0.02 0 0 -0 0.02 -0 -0 0zm-0.09 0.3l0 -0c0.01,0.01 0.01,0.01 0.02,0.01 0,0 0,0 0,0l-0 0c-0,-0 -0,-0 -0.01,-0 -0,-0 -0.01,-0.01 -0.01,-0.01 0,-0 0,-0 0,-0zm0 -0.02c0,0 0.01,0.01 0.01,0.01 0,0 0,0 0.01,0 0,0 0,0 0.01,0 0,0 0,0 0,0l-0 0c-0,-0 -0,-0 -0,-0 -0,-0 -0,-0 -0.01,-0 -0,-0 -0,-0 -0.01,-0 -0,-0 -0.01,-0.01 -0.01,-0.01 -0,-0 -0,-0 -0,-0l0 -0c0,0 0,0 0,0zm0.02 -0.09l0.02 0.07 -0.01 0.02 -0 -0c-0.01,-0.01 -0.01,-0.01 -0.02,-0.02l-0 -0 0 -0.07 0.01 -0.01zm0.02 0.09c-0.01,0.01 -0.01,0.02 -0.01,0.03 -0,0.01 -0.01,0.01 -0.01,0.01 0,0 0,-0 0.01,-0.01 0,-0.01 0.01,-0.02 0.01,-0.03 0,-0 0,-0 0,-0.01l0 0c-0,0 -0,0 -0,0zm0.01 0.04c-0,-0 -0.01,-0 -0.01,-0 -0,-0 -0.01,-0 -0.01,-0.01l0 -0c0,0 0,0 0,0 0,0 0,0 0.01,0 0,0 0,0 0.01,0 0,0 0.01,0 0.01,0l0 0zm0.01 0c0.01,0 0.02,0 0.02,0.01l-0 0c-0.01,-0 -0.01,-0 -0.02,-0.01 -0,-0 -0,-0 -0,-0l-0 -0c0,0 0,0 0,0zm0.01 -0.1l0.02 0.03 -0.01 0.06 -0 -0c-0.01,-0 -0.01,-0 -0.02,-0.01l-0 -0 -0.01 -0.04 0.02 -0.04zm0.02 0.07c-0,0.01 -0.01,0.02 -0.01,0.03 -0,0.01 -0,0.01 -0,0.01 0,0 0,-0 0,-0.01 0,-0.01 0,-0.02 0.01,-0.03 0,-0.01 0,-0.02 0.01,-0.03l0 0c-0,0.01 -0.01,0.02 -0.01,0.03zm0.06 0.03c0,-0 0,0 0,0 -0,0 -0,0 -0,0 -0,0 -0,0 -0,0 -0,0 -0,0 -0.01,0 -0,-0 -0.01,-0 -0.01,-0 0,0 0.01,-0 0.01,-0 0,-0 0.01,-0 0.01,-0.01zm0.01 -0.05c0,0.01 0,0.02 0,0.03 0,0.01 0,0.01 0,0.01 0,0 -0,-0 -0,-0.01 -0,-0.01 -0,-0.02 -0,-0.03 -0,-0.01 -0,-0.01 -0,-0.02l0 0c0,0.01 0,0.01 0,0.02zm-0 -0.06l-0 -0c0.01,-0 0.02,-0.01 0.03,-0.02l0 0c-0.01,0.01 -0.02,0.01 -0.03,0.02zm0.05 0.07l-0 0 -0.04 -0.04 -0 -0.03 0 -0c0.01,-0 0.01,-0.01 0.02,-0.01l0 -0 0.02 0.07c0,0 0,0 0,0l0 0c-0,0 -0,0 -0,0 -0,0 -0,0 -0.01,0.01zm-0.12 0.05c0,0 0,0 0,0 0,0 0,0 0,0 0,0 0,0 0.01,0 0,-0 0,-0 0.01,-0 0,0 0,0 0,-0 0.01,-0 0.01,-0 0.01,-0 0,0 -0,0 -0.01,0 -0,0 -0,0 -0,0 -0,0 -0,0 -0.01,0 -0,0 -0,-0 -0.01,-0 -0,-0 -0,-0 -0,-0 -0,-0 -0,-0 -0,-0 -0,-0 -0,-0 -0.01,-0l0 -0c0,0 0,0 0.01,0zm0.03 -0.01c-0,0 -0,0 -0,0l-0 0c-0,0 -0,0 -0,0 -0,0 -0,0 -0,0l-0 0c-0,0 -0,0 -0,0l-0 0c-0,-0 -0.01,-0 -0.01,-0l-0 -0 0.01 -0.04 0.02 0.04 -0 0zm-0.04 0.02c0,0 0,0 0.01,-0 0,-0 0,-0 0,-0 0,-0 0,-0 0,-0 -0,0 -0,0 -0,-0 0,0 0,0 0,0 0,-0 -0,0 -0,0 -0,0 -0,0 -0,0 -0,0 -0.01,0 -0.01,0 -0,-0 -0,-0 -0.01,-0 -0,-0 -0,-0 -0,-0 -0,-0 -0,-0 -0,-0 0,0 0.01,0 0.01,0zm0.1 -0.07l0.02 0.02 -0 0c-0,0 -0.01,0.01 -0.01,0.01l-0 0 -0 -0.03zm-0.02 0.04c-0,0 -0,0 -0,0 -0,0 -0,0 -0,0l-0 0c-0,0 -0,0 -0,0l-0 0 -0.04 -0.06 0.01 -0.03 0 0 0.04 0.03 0.01 0.06 -0 0zm-0.12 0.02c0,0.01 0.01,0.01 0.02,0.01 0,0 -0,0 -0,0 -0,0 -0,0 -0,0 -0,0 -0,0 -0.01,-0 -0,-0 -0,-0 -0.01,-0 -0,-0 -0,-0 -0,-0 -0,-0 -0,-0 -0,-0zm0.16 -0.14c0.01,0.01 0.01,0.03 0.01,0.04 0,0.01 0.01,0.02 0.01,0.03 0,0 0,0 0,0 -0,0 -0,0 -0,0 -0,-0 -0,-0 -0,-0 -0,-0.01 -0.01,-0.02 -0.01,-0.03 -0,-0.01 -0.01,-0.02 -0.01,-0.04 -0,-0 -0,-0.01 -0,-0.01l0 0c0,0 0,0.01 0,0.01zm0 0l-0 -0c0,-0 0,-0 0,-0l0 0c-0,0 -0,0 -0,0zm0.01 0l0.04 0.01c-0,0.01 -0.01,0.03 -0.02,0.04l-0.02 -0.06zm-0.05 0.04c-0,-0.02 -0,-0.03 -0.01,-0.05 -0,-0.01 -0,-0.01 -0,-0.02l0 0c0,0.01 0,0.01 0,0.02 0,0.02 0,0.03 0,0.05 0,0 0,0.01 0,0.01l-0 -0c-0,-0 -0,-0.01 -0,-0.01zm-0.03 -0.02c0,0 0,0 0.01,-0 0,-0 0,-0 0.01,-0 0,-0 0.01,-0 0.01,-0l0 0c-0,0 -0.01,0 -0.01,0 -0,0 -0.01,0 -0.01,0l-0 -0c0,0 0,0 0,0zm-0 -0.05c-0,-0 -0,-0 -0.01,-0l0 -0c0,0 0,0 0,0l0.01 0c-0,0 -0.01,0 -0.01,0zm0.02 0.03c0,0 -0,0.01 -0,0.01 -0,0 -0.01,-0 -0.01,-0.01 -0,-0 0,-0.01 0,-0.01 0,-0 0.01,0 0.01,0.01zm-0.04 -0.03c-0,-0 -0.01,-0 -0.01,-0 -0,-0 -0,-0 -0,-0l0 -0c0,0 0.01,0 0.01,0.01l-0 0c-0,-0 -0,-0 -0.01,-0zm-0.02 0c0,-0 0,-0.01 0.01,-0.01l0 0c-0,0 -0,0.01 -0.01,0.01 -0,0.01 -0.01,0.01 -0.01,0.02l-0 -0c0,-0.01 0.01,-0.01 0.01,-0.02zm-0.01 0.01c0,0 0,0 0,0l-0 0 -0.01 -0.01c0,-0 0,-0 0.01,-0zm0.01 -0.02c0,0 0,0 0.01,0l-0 0c-0,-0 -0,-0 -0.01,-0.01 -0,-0 -0,-0 -0,-0 -0,-0 -0,-0 -0,-0l0.01 0zm-0.03 -0c0,-0 0,-0 0.01,-0.01l0 0c-0,0 -0,0 -0.01,0.01 -0,0 -0.01,0 -0.01,0.01l-0 -0c0,-0 0.01,-0 0.01,-0.01zm0.05 0.06c0,-0.02 0.01,-0.03 0.01,-0.04l0 0c-0,0.01 -0.01,0.03 -0.01,0.05l-0 -0zm0.01 0.02c-0,-0 -0.01,-0 -0.01,-0l0 -0c0,0 0,0 0,0l0.01 0.01zm-0.02 0.03c0,-0.01 0.01,-0.03 0.01,-0.05l0 0c-0,0.02 -0.01,0.03 -0.01,0.04 -0,0 -0,0 -0,0l-0 -0zm-0 -0.03l-0 0.02 -0.02 -0.03 0.01 0c0,0 0.01,0 0.01,0.01l0 0zm-0.02 -0.02l0 -0c0.01,0.01 0.02,0.01 0.03,0.01l-0 0c-0.01,-0 -0.02,-0.01 -0.03,-0.01zm-0.01 -0c0,-0.01 0.01,-0.01 0.01,-0.02l0 0c-0,0.01 -0.01,0.01 -0.01,0.02 -0,0 -0,0 -0,0l-0 -0c0,-0 0,-0 0,-0zm-0.03 -0.04l-0 -0c0,-0 0.01,-0 0.01,-0.01l0 0c-0,0 -0.01,0 -0.01,0.01zm0.04 0.02c-0,-0 -0,-0 -0,-0l0 0c-0,-0 -0,-0 -0,-0zm-0.03 -0.01c0,0 0,0 0.01,0.01 0,0 0,0 0,0 0,0 0,0 0,0 0,0 0,0 0.01,0 0,0 0,0 0.01,0l-0 0c-0,-0 -0.01,-0.01 -0.01,-0.01l-0.01 -0.02zm0 0.07c0.01,-0.01 0.01,-0.02 0.02,-0.03l0 0c-0.01,0.01 -0.01,0.02 -0.02,0.03 -0,0.01 -0.01,0.02 -0.01,0.02l-0 -0c0,-0.01 0.01,-0.01 0.01,-0.02zm-0.02 -0.08c0,-0 0,-0 0.01,-0l0 0c-0,0 -0,0 -0.01,0 -0,0 -0.01,0.01 -0.01,0.01l-0 -0c0,-0 0.01,-0.01 0.01,-0.01zm0.01 0.01l0.02 0.04 -0.02 0.04 -0.02 -0.06 0.01 -0.01zm-0.04 0.02c0.01,-0 0.01,-0.01 0.02,-0.01l0 0c-0.01,0 -0.01,0.01 -0.02,0.01 -0,0 -0,0 -0.01,0l0 -0c0,-0 0,-0 0,-0zm0 -0.01l0 -0.02 0 0c0,0 0,0 0,0l0 0 0 0.01 -0.01 0.01zm-0.07 0.01c0,0 0,0.01 0,0.01 0,0 0,0.01 0,0.01 0,0 0,0 0,0.01 0,0 0,0 0,0.01 0,0 0,0 0,0l-0 0c-0,-0 -0,-0 -0,-0 -0,-0 -0,-0 -0,-0.01 -0,-0 -0,-0 -0,-0.01 -0,-0 -0,-0.01 -0,-0.01 -0,-0 -0,-0 -0,-0.01l0 -0c0,0 0,0 0,0zm0.05 0l-0.03 0.02 -0 -0c-0.01,-0.01 -0.01,-0.02 -0.02,-0.03l-0 -0 0.01 -0.03 0.02 -0.01 0 0c0,0 0,0 0.01,0l0 0 -0 0.04zm-0.01 0.02c-0.01,0.01 -0.02,0.01 -0.02,0.02 -0.01,0 -0.01,0.01 -0.01,0.01 0,0 0,-0 0.01,-0.01 0.01,-0 0.01,-0.01 0.02,-0.02 0.01,-0 0.01,-0.01 0.02,-0.01l0 0c-0.01,0 -0.01,0.01 -0.02,0.01zm-0.01 0.02c0.01,0.01 0.01,0.02 0.02,0.03 0,0 0.01,0.01 0.01,0.01l-0 0c-0,-0 -0.01,-0.01 -0.01,-0.01 -0.01,-0.01 -0.01,-0.02 -0.02,-0.03 -0,-0 -0,-0 -0,-0l0 -0c0,0 0,0 0,0zm0.03 0.01l-0 -0c-0,-0 -0.01,-0.01 -0.01,-0.01l-0 -0 0.02 -0.01 -0 0.03zm-0.08 -0.15c-0.01,0 -0.01,0.01 -0.01,0.01 -0,0 -0.01,0 -0.01,0 0,0 0,-0 0.01,-0 0,-0 0.01,-0.01 0.01,-0.01 0,-0 0.01,-0.01 0.01,-0.01 0,0 0,0 0,0 -0,0 -0.01,0.01 -0.01,0.01zm0.02 0.04l-0 -0c-0,-0.01 -0.01,-0.02 -0.01,-0.03l-0 -0 0.01 -0.01 0 0c0.01,0.01 0.02,0.01 0.03,0.01l0 0 -0.01 0.02 -0.02 0.01zm-0.01 0c-0,-0.01 -0.01,-0.02 -0.01,-0.03l0 -0c0,0.01 0.01,0.02 0.01,0.03 0,0 0,0 0,0.01l-0 0c-0,-0 -0,-0 -0,-0.01zm0.02 0c-0.01,0 -0.02,0.01 -0.02,0.01 -0.01,0 -0.01,0 -0.01,0 0,0 0,-0 0.01,-0 0.01,-0 0.01,-0 0.02,-0.01 0,-0 0.01,-0 0.01,-0l-0 0c-0,0 -0.01,0 -0.01,0zm-0.01 0.04c-0,-0 -0,-0 -0,-0l-0 -0 -0 -0c-0,-0 -0,-0.01 -0,-0.01 -0,-0 -0,-0.01 -0,-0.01l-0 -0 0 -0 0 0c0,0 0,0.01 0,0.01 0,0 0,0.01 0,0.01l0 0 0 0 -0 0zm0.06 -0.06c0.01,0.01 0.03,0.02 0.04,0.02 0.01,-0 0.02,-0.01 0.03,-0.03 0.01,-0.01 0.01,-0.03 0.01,-0.04 -0,0 -0.01,0.01 -0.02,0.01 -0.01,0 -0.01,0 -0.02,-0 -0,0.01 -0.01,0.02 -0.02,0.02 -0,-0 -0,-0 -0.01,-0l0.01 -0c0.01,-0 0.02,-0.02 0.02,-0.03 -0,-0.01 -0,-0.02 -0.01,-0.02 -0,-0 -0.01,-0.01 -0.01,-0.01 -0.01,-0 -0.01,-0.01 -0.02,-0.02 -0.01,-0.01 -0.01,-0.01 -0,-0.02 0,-0 0,-0 0.01,-0 0,-0 0,-0 0.01,-0l0 -0 0 -0c0,-0 0,-0 0,-0l0 0c0,0 0,0 0,0 0,0 0,0 0,0 0,0 0,0 0,0 0,0 0,0 0,0 0,0 0,0 0,0 0,0 0,0 0,0 0,0 0,0 0.01,0 0,0 0,0 0,0 0,0 0,0 0,0 0,0 0,0 0,0 0,0 0,0 0,0 0,0 -0,-0 -0,-0 -0,-0 -0,-0 -0,-0 -0,-0 -0,-0 -0,-0 -0,-0 -0,-0 -0,-0 -0,-0 -0,-0 -0.01,-0 -0,-0 -0,-0 -0,-0 -0,-0 -0,-0 -0,-0 -0,-0 -0,-0 -0,-0 -0,-0 -0,-0 -0,-0 -0,-0 -0,-0 -0,-0 -0,-0 -0,-0 -0,-0 -0,-0 -0,-0 -0,-0 -0,-0 -0,-0 -0,-0l-0 0 -0 0c-0,0 -0.01,0 -0.01,0 -0,0 -0,0 -0.01,0 -0,0 -0,0 -0,0 -0,0 -0,0 -0,0 -0,0 -0,0 -0,0 -0,0 -0,0 -0,0 -0,-0 -0,-0 -0,-0 0.01,-0.01 0.02,-0.02 0.03,-0.02 0.03,-0 0.06,0.03 0.07,0.08 0.01,0.05 -0.01,0.09 -0.05,0.1 -0.02,0 -0.04,-0.01 -0.05,-0.04 0,-0 0,-0 0,-0 0,0.01 0.01,0.01 0.01,0.02zm0.03 -0.04c0,-0.01 0.01,-0.02 0,-0.02 -0,-0 -0,-0 -0,-0l-0.03 0c-0,-0.01 -0,-0.01 -0.01,-0.02l0.03 -0c-0,-0 -0,-0 -0,-0l-0.03 0c-0,-0 -0,-0 -0,-0l0.03 -0c0.01,-0 0.01,0.01 0.02,0.02 0,0.02 -0,0.03 -0.01,0.03l-0.02 0c0,-0 0,-0 0,-0l0.02 -0zm-0.11 -0.02c0,0 0,0.01 0,0.01 0,0.01 0,0.02 0,0.03l-0 0c-0,-0.01 -0,-0.02 -0,-0.03 -0,-0.01 -0,-0.01 -0,-0.02l0 0.01zm-0.02 -0.03c-0,-0 -0,-0 -0,-0 0,0 0,0 0,0l0 0zm-0.03 -0.05c-0,0.02 -0,0.04 0,0.06 0,0.02 0,0.04 0.01,0.07 -0,-0.01 -0,-0.02 -0,-0.03 -0,-0.03 -0,-0.05 0,-0.08l0 0c-0,0.03 0,0.06 0.01,0.09 -0,-0.01 -0,-0.02 -0,-0.03 -0,-0.02 -0,-0.03 0,-0.05l0 0c0,0.03 0,0.05 0.01,0.08 -0,-0.01 -0,-0.02 -0,-0.03 -0,-0.01 -0,-0.03 -0,-0.04l0 0c0,0 0,0 0,0.01 -0,0 -0,0 0,0 0,0 0,0 0,0 0,0.02 0,0.04 0.01,0.06 -0,-0.01 -0,-0.02 -0,-0.03 -0,-0.01 -0,-0.02 -0,-0.03l0 0 0 0 0 0 0 0 0 0 0 0.01c0,0.01 0,0.01 0,0.02l0 0.01c0,0 0,0.01 0,0.01l0 0.01 0 0 0 0 0 0 -0.01 0c-0,0 -0,0 -0,0.01 0,0 0,0 0,0 0,-0 0,-0 0,-0l0 -0c0,0 0,0 0,0.01 0,0 0,0.01 0,0.01l0 0.01c0,0 0,0.01 0,0.01l-0 0c-0,0 -0,0 -0,0 0,0 0,0 0,0 0,-0 0,-0 0,-0l0 -0c0,0.01 0.01,0.03 0.02,0.04l-0 0.01c-0,0 0,0 0,0.01 0,0 0,0 0,0 0,-0 0,-0 0,-0l0 -0c0,0.01 0.01,0.02 0.02,0.03l-0 0c-0,0 -0,0 -0,0.01 0,0 0,0 0,0 0,-0 0,-0 0,-0l0 -0c0.01,0.01 0.01,0.02 0.02,0.02 0,0 0,0 0.01,0.01l0 0 0 0c0,0 0,0 0.01,0.01l0.01 0.01c0,0 0,0 0,0l0 0c-0.02,-0.01 -0.03,-0.03 -0.04,-0.04 0,0.01 0.01,0.01 0.01,0.02 0.01,0.01 0.01,0.02 0.02,0.03 0,-0 0,-0 0,-0 -0,0 0,0 0,0 0,0 0.01,0.01 0.01,0.01 0,0 0,0 0.01,-0 -0,0 -0,0 -0,0 0,0 0.01,0.01 0.01,0.01 -0,-0 0,-0 0,-0.01 0,0 0,0.01 0.01,0.01 0,0 0.01,0 0.01,-0 -0,0.01 -0.01,0.01 -0.01,0 -0,-0 -0,-0 -0.01,-0.01 -0,-0 -0,-0 -0.01,-0 -0,-0 -0.01,-0 -0.01,-0.01 -0,0 -0.01,-0 -0.01,-0 -0,-0 -0,-0 -0,-0.01 -0.01,-0.01 -0.02,-0.02 -0.03,-0.03 0,0 0.01,0.01 0.01,0.01 0.01,0.01 0.02,0.03 0.04,0.04 -0.02,-0.01 -0.04,-0.03 -0.06,-0.05 0,0 0.01,0.01 0.01,0.01 0.01,0.01 0.02,0.03 0.03,0.04 -0,-0 -0,-0 -0.01,-0.01 -0.02,-0.02 -0.04,-0.04 -0.06,-0.06 0,0.01 0.01,0.01 0.01,0.02 0.01,0.01 0.02,0.03 0.03,0.04 0,0.01 0.01,0.01 0.02,0.02 -0.01,-0.01 -0.02,-0.02 -0.03,-0.03 -0.02,-0.02 -0.04,-0.05 -0.05,-0.08 -0.01,-0.03 -0.02,-0.06 -0.03,-0.09 -0.01,-0.02 -0.01,-0.05 -0.01,-0.07 -0,-0.03 -0,-0.05 0,-0.08l0 0zm0.3 0.38c-0,0 -0,0 -0,0 -0,0 -0,0 -0,0 -0,0 -0,0 -0,0 -0,0 -0,0 -0,0 -0,0 -0,0 -0,0 -0,0 -0,0 -0,0 -0,0 -0,0 -0,0 -0,0 -0,0 -0,0 -0,0 -0,0 -0,0 -0,0 -0,0 -0,0 -0,0 -0,0 -0,0 -0,0 -0,0 -0,0 -0,0 -0,0 -0,0 -0,0 -0,0 -0,0 -0,0 -0,0 -0,0 -0,0 -0,0 -0,0 -0,0 -0,0 -0,0 -0,0 -0,0 -0,0 -0,0 -0,0 -0,0 -0,0 -0,0 -0,0 -0,0 -0,0 -0,0 -0,0 -0,0 -0,0 -0,0 -0,0 -0,0 -0,0 -0,0 -0,0 -0,0 -0,0 -0,0 -0,0 -0,0 -0,0 -0,0 -0,0 -0,0 -0,0 -0,0 -0,0 -0.12,0.01 -0.24,-0.12 -0.26,-0.3 -0.01,-0.05 -0,-0.09 0,-0.13l0.01 0.01c-0,0 -0,0.01 -0,0.01 -0,0.02 -0,0.04 -0,0.06 -0,0.02 0,0.04 0,0.05 0,0.02 0.01,0.05 0.01,0.07 0.01,0.02 0.02,0.05 0.03,0.07 0.02,0.03 0.04,0.06 0.06,0.09 0.02,0.02 0.03,0.03 0.05,0.04 0,0 0,0 0,0 0,0 0,0 0,0 0.03,0.02 0.07,0.03 0.11,0.02 0.02,-0 0.04,-0.01 0.06,-0.02 -0,0 -0,0 -0,0 -0,0 -0,0 -0,0zm0.11 -0.24l0.01 0c-0,0 -0,0.01 -0,0.01l-0.01 -0.01zm-0 -0.01l0 0c-0,0 -0,0.01 -0,0.01l-0 -0c0,-0 0,-0 0,-0.01zm0.01 0.02c-0.01,-0.01 -0.01,-0.01 -0.02,-0.02 -0,-0 -0,-0 -0,-0l0 0c0,0 0,0 0,0 0.01,0.01 0.02,0.02 0.02,0.02 0,0 0,0 0.01,0.01 -0,0 -0,0 -0,0 -0,-0 -0,-0 -0.01,-0.01zm-0.03 0.04l0 -0c0,-0.01 0.01,-0.01 0.01,-0.02 0,-0 0,-0.01 0.01,-0.01l0 -0 0.01 0.01c-0,0.01 -0,0.02 -0.01,0.03l-0.03 -0.01zm0.02 -0.05l0 0c-0,0.01 -0.01,0.02 -0.01,0.02 -0,0.01 -0.01,0.02 -0.02,0.02l-0 -0c0.01,-0.01 0.02,-0.03 0.03,-0.05zm-0.05 0l-0 -0c0,-0 0.01,-0.01 0.01,-0.02l0 0c-0,0.01 -0.01,0.01 -0.01,0.02zm0.02 0.03c-0,0 -0.01,0 -0.01,-0 -0,-0 -0,-0.01 -0,-0.01 0,-0 0.01,-0 0.01,0 0,0 0,0.01 0,0.01zm-0.02 -0.01c-0,-0.01 -0.01,-0.02 -0.01,-0.03l0 0c0,0.01 0.01,0.02 0.01,0.03 0,0.01 0.01,0.02 0.01,0.03l-0 -0c-0,-0.01 -0.01,-0.02 -0.01,-0.02zm-0.02 -0.02l0 -0c0,-0 0,-0 0,-0l0 -0 0 0.01 -0 0c-0,0 -0,0 -0,0l-0 0 -0 -0.01zm0.01 0.01l0 0c-0.01,0.01 -0.01,0.01 -0.02,0.01l-0 -0c0.01,-0 0.01,-0.01 0.02,-0.01zm-0.01 -0.02l0 0c-0,0 -0.01,0.01 -0.01,0.01l-0 -0c0,-0 0,-0 0.01,-0.01 0,-0 0,-0 0,-0l0 0zm-0.02 0.02c-0,-0.01 -0,-0.02 -0,-0.02l0 0c0,0.01 0,0.01 0,0.02 0,0.01 0,0.01 0,0.02l-0 -0c-0,-0.01 -0,-0.01 -0,-0.02zm-0 0.02l0 0 -0 -0c0,-0 0,-0 0,-0zm-0.01 -0.01l-0.01 -0 0 -0.01 0 -0c0,-0 0,-0 0,-0l0 -0 0 0.01zm-0.01 -0.01c-0,0 -0,0 -0.01,0l0 -0c0,0 0,-0 0,-0 0,-0 0.01,-0 0.01,-0l0 0c-0,0 -0.01,0 -0.01,0zm-0.01 -0.02l0 0c-0,0.01 -0,0.02 -0.01,0.03l-0 -0c0,-0.01 0.01,-0.02 0.01,-0.03zm-0.01 0.01c0,0 0,0 0.01,0l-0 0c-0,-0 -0.01,-0 -0.01,-0l0 -0c0,0 0,0 0,0zm-0 -0.01c0,-0 0,-0.01 0,-0.01l0 0c-0,0 -0,0.01 -0,0.01 -0,0.01 -0.01,0.01 -0.01,0.02l-0 -0c0,-0.01 0.01,-0.01 0.01,-0.02zm-0.02 -0l0 -0c0,0 0.01,0 0.01,0.01l-0 0c-0,-0 -0.01,-0 -0.01,-0.01zm-0 -0c0,-0 0,-0 0,-0l0 0c-0,0 -0,0 -0,0 -0.01,0 -0.01,0.01 -0.02,0.01l-0 -0c0.01,-0 0.01,-0.01 0.02,-0.01zm-0 -0c-0,-0 -0,-0 -0,-0l0 0 -0 0c-0,-0 -0,-0 -0,-0zm0.12 -0.08l-0 -0c-0,-0 -0,-0.01 -0,-0.01l0 -0c0,0 0,0.01 0,0.01zm0.04 -0c0,0.01 0,0.01 0,0.02l-0 -0c-0,-0.01 -0,-0.01 -0,-0.02 -0,-0.01 -0,-0.02 -0,-0.03l0 -0c0,0.01 0,0.02 0,0.03zm0.01 0.03c-0.01,-0 -0.02,-0.01 -0.03,-0.01 -0.01,-0 -0.02,-0.01 -0.03,-0.01 -0,-0 -0.01,-0 -0.01,-0l0 -0c0,0 0.01,0 0.01,0 0.01,0 0.02,0.01 0.03,0.01 0.01,0 0.02,0.01 0.03,0.01 0,0 0,0 0,0 0,0 0,0 0,0 -0,-0 -0,-0 -0,-0zm-0 0.05l0 -0c0,-0.01 0,-0.02 0,-0.03l0 -0 0 0c0,0.01 0,0.02 0,0.04l-0.01 -0zm-0 -0.04l0 0c-0,0.02 -0,0.03 -0.01,0.05l-0 -0c0,-0.02 0.01,-0.03 0.01,-0.05zm-0.07 -0.02c0,0.01 0,0.02 0,0.03l-0 -0c0,-0.01 0,-0.01 -0,-0.02 -0,-0 -0,-0 -0,-0l0 -0c0,0 0,0 0,0zm0.01 0.02l0 -0c0,-0.01 0,-0.01 -0,-0.02l-0 -0 0.01 0 0 0c0,0.01 0,0.01 -0,0.02l-0 0 -0.01 -0.01zm0.02 0.02l-0 -0c0,-0.01 0,-0.03 0,-0.04l0 0c0,0.02 0,0.03 -0,0.04zm0.03 -0.01c-0,0 -0,0.01 -0.01,0.01 -0,-0 -0.01,-0.01 -0,-0.01 0,-0 0,-0.01 0.01,-0.01 0,0 0.01,0.01 0,0.01zm-0.03 0.01c-0.01,-0.01 -0.02,-0.02 -0.03,-0.03 -0.01,-0.01 -0.01,-0.01 -0.02,-0.02l0 -0c0.01,0.01 0.01,0.01 0.02,0.02 0.01,0.01 0.02,0.02 0.03,0.03 0.01,0.01 0.01,0.01 0.02,0.02l-0 -0c-0.01,-0.01 -0.01,-0.01 -0.02,-0.02zm-0 0l0 0c-0,0 -0,0.01 -0,0.01l-0 -0c0,-0 0,-0.01 0.01,-0.01zm-0.01 0l-0 0c-0,0 -0,0 -0,0.01l-0 0 -0.01 -0 0 -0c0,-0 0,-0.01 0,-0.01l0 -0 0.01 0.01zm-0.03 0.01c-0,-0 -0,-0 -0,-0 -0.01,-0.01 -0.01,-0.03 -0.01,-0.04 -0,-0 -0,-0.01 -0,-0.01l0 -0c0,0 0,0.01 0,0.01 0,0.01 0.01,0.02 0.01,0.04 0,0 0,0 0,0l-0 -0zm-0.02 -0.01c-0,-0.01 -0,-0.02 -0,-0.03 -0,-0 -0,-0.01 -0,-0.01l0 -0c0,0 0,0.01 0,0.01 0,0.01 0,0.02 0,0.03 0,0 0,0.01 0,0.01l-0 -0c-0,-0 -0,-0.01 -0,-0.01zm-0.02 0c0,-0.01 0.01,-0.01 0.01,-0.01 0,0 -0,0 -0.01,0.01 -0,0 -0,0.01 -0.01,0.01l-0 -0c0,-0 0,-0.01 0.01,-0.01zm0.01 -0.03l-0 0 -0.04 0 0.01 -0.01 0.03 -0zm0 -0.01c-0,0 -0,0 -0,0l-0 0 -0.02 0 0.02 -0.01 0 0zm-0.02 0.04c0.01,-0 0.01,-0.01 0.01,-0.01 0,0 -0,0 -0.01,0.01 -0,0 -0.01,0 -0.01,0.01l-0 -0c0,-0 0.01,-0.01 0.01,-0.01zm0.01 0.01c0.01,-0.03 0.01,-0.04 0.01,-0.04 0,0 -0,0.02 -0.01,0.04l-0 -0zm0.04 0l-0 -0c0,-0.01 0.01,-0.02 0.01,-0.03l0 0c-0,0.01 -0,0.02 -0.01,0.03 -0,0 -0,0 -0,0l-0 -0zm0.09 -0.08c0,0.01 0,0.01 0,0.02l-0 -0 -0 -0c-0,-0.01 -0,-0.01 -0,-0.02 -0,-0.01 -0,-0.01 -0,-0.02l-0 -0 0 -0c0,0.01 0,0.02 0,0.02zm-0.05 -0.1c-0.01,0.01 -0.02,0.02 -0.03,0.03 -0.01,0.01 -0.02,0.02 -0.04,0.03 -0.01,0.01 -0.02,0.02 -0.04,0.03 -0.01,0.01 -0.02,0.02 -0.03,0.03 -0,0 -0.01,0.01 -0.01,0.01 0,0 0,0 0,0l0.04 -0.04 0.02 -0c0,0 0,0 0,0l0.01 0.02 -0.04 0.02 -0.03 0c0,0 -0,0 -0,0.01l0.01 -0 -0.01 0.01 -0 0c-0,0 -0,0 -0,0 0,-0 0,-0 0,-0 0.01,-0.01 0.02,-0.01 0.04,-0.02 0.01,-0.01 0.03,-0.01 0.04,-0.02 0.01,-0.01 0.03,-0.01 0.04,-0.02 0.01,-0.01 0.03,-0.01 0.04,-0.02 0.01,-0 0.01,-0.01 0.02,-0.01 0,0 0,0 0,0 -0,0 -0.01,0 -0.02,0.01 -0.01,0.01 -0.02,0.01 -0.04,0.02 -0.01,0.01 -0.03,0.01 -0.04,0.02 -0.01,0.01 -0.03,0.01 -0.04,0.02 -0.01,0.01 -0.03,0.01 -0.04,0.02 -0,0 -0,0 -0.01,0 -0,0.01 -0,0.01 -0,0.02l0.05 -0.01 -0.01 0 -0.02 0 -0.02 -0c-0,0 -0,0 -0,0 0,0 0,0 0,0 0.01,0 0.03,0 0.04,0 0.01,0 0.03,0 0.05,0 0.02,0 0.03,0 0.05,0 0.01,0 0.03,0 0.04,0 0.01,0 0.01,0 0.02,0 -0,0 -0,0 -0,0 -0.01,-0 -0.01,-0 -0.02,-0 -0.01,-0 -0.03,-0 -0.04,-0 -0.01,-0 -0.03,-0 -0.05,-0 -0.02,-0 -0.03,-0 -0.05,-0 -0.01,-0 -0.03,-0 -0.04,-0 -0,-0 -0,-0 -0,-0 -0,0 -0,0 -0,0.01l0 -0c0,0 0.01,0.01 0.01,0.01l-0 0 -0.01 -0c-0,-0 -0,-0 -0,-0 -0,-0 -0,-0.01 -0.01,-0.01 -0,0 -0,0.01 -0,0.01 0.01,0 0.02,0.01 0.03,0.01 0.01,0.01 0.03,0.01 0.05,0.02 0.02,0.01 0.03,0.01 0.05,0.02 0.01,0.01 0.03,0.01 0.04,0.02 0.01,0 0.02,0.01 0.03,0.01 -0,0 -0,0 -0,0 -0.01,-0 -0.02,-0.01 -0.03,-0.01 -0.01,-0 -0.03,-0.01 -0.04,-0.02 -0.01,-0.01 -0.03,-0.01 -0.05,-0.02 -0.02,-0.01 -0.03,-0.01 -0.05,-0.02 -0.01,-0 -0.02,-0.01 -0.03,-0.01 -0,0.01 -0.01,0.01 -0.01,0.02 0.01,0.01 0.01,0.01 0.02,0.02 0.01,0.01 0.02,0.02 0.04,0.04 0.01,0.01 0.02,0.02 0.04,0.04 0.01,0.01 0.02,0.02 0.03,0.03 0.01,0.01 0.02,0.02 0.02,0.02 0.01,0.01 0.01,0.01 0.01,0.01 0,0 -0,-0 -0.01,-0.01 -0.01,-0.01 -0.01,-0.01 -0.02,-0.02 -0.01,-0.01 -0.02,-0.02 -0.03,-0.03 -0.01,-0.01 -0.02,-0.02 -0.04,-0.04 -0.01,-0.01 -0.02,-0.02 -0.04,-0.04 -0.01,-0.01 -0.01,-0.01 -0.02,-0.02 -0,0 -0.01,0.01 -0.01,0.01 0,0 0,0.01 0.01,0.01 0.01,0.01 0.02,0.03 0.03,0.05 0.01,0.02 0.02,0.03 0.03,0.05 0.01,0.01 0.02,0.03 0.02,0.04 0.01,0.02 0.02,0.04 0.02,0.04 0,0 -0.01,-0.02 -0.02,-0.04 -0.01,-0.01 -0.02,-0.03 -0.02,-0.04 -0.01,-0.01 -0.02,-0.03 -0.03,-0.05 -0.01,-0.02 -0.02,-0.03 -0.03,-0.05 -0,-0 -0,-0.01 -0.01,-0.01 -0.01,0 -0.01,0 -0.02,0.01 -0,0 -0,0 -0.01,0 0,0.01 0.01,0.03 0.01,0.04 0,0.02 0.01,0.03 0.01,0.05 0,0.02 0.01,0.03 0.01,0.04 0,0.01 0.01,0.02 0.01,0.03 0,0.01 0,0.01 0,0.01 0,0 -0,-0 -0,-0.01 -0,-0.01 -0,-0.02 -0.01,-0.03 -0,-0.01 -0.01,-0.03 -0.01,-0.04 -0,-0.02 -0.01,-0.03 -0.01,-0.05 -0,-0.02 -0.01,-0.03 -0.01,-0.04 -0.01,-0 -0.01,-0 -0.02,-0.01 0,0.01 -0,0.01 -0,0.02 -0,0.02 -0,0.03 -0,0.05 -0,0.01 -0,0.03 -0,0.04 -0,0.01 -0,0.02 -0,0.03 -0,0.01 -0,0.01 -0,0.01 0,0 -0,-0 -0,-0.01 -0,-0.01 -0,-0.02 -0,-0.03 -0,-0.01 -0,-0.03 -0,-0.04 0,-0.01 0,-0.03 0,-0.05 0,-0.01 0,-0.01 0,-0.02 -0.01,-0 -0.01,-0.01 -0.02,-0.01 -0,0 -0.01,0 -0.01,0 -0,0 -0.01,0 -0.01,0l0 -0c0,-0 0.01,-0 0.01,-0 0,-0 0,-0 0.01,-0 -0,-0 -0,-0 -0,-0 -0,-0 -0.01,-0.01 -0.01,-0.02 -0,0 -0,0 -0,0.01 -0,0.01 -0.01,0.02 -0.01,0.03 -0,0.01 -0.01,0.02 -0.01,0.03 -0,0.01 -0.01,0.01 -0.01,0.02 -0,0 -0,0.01 -0,0.01 0,0 0,-0 0,-0.01 0,-0 0,-0.01 0.01,-0.02 0,-0.01 0.01,-0.02 0.01,-0.03 0,-0.01 0.01,-0.02 0.01,-0.03 0,-0 0,-0 0,-0.01 -0,-0 -0,-0 -0,-0 0,-0 0,-0 0,-0 0.01,0.03 0.04,0.05 0.06,0.04 0.03,-0 0.06,-0.05 0.05,-0.1 -0.01,-0.05 -0.04,-0.09 -0.07,-0.09 -0.02,0 -0.03,0.02 -0.04,0.04l-0 -0c0,-0 0,-0 0,-0 0,-0 0,-0.01 0.01,-0.01 -0,-0 -0.01,-0 -0.01,-0.01 -0.01,-0 -0.01,-0.01 -0.02,-0.01l-0 -0c0.01,0 0.01,0.01 0.02,0.01 0,0 0.01,0 0.01,0.01 0.01,-0.01 0.01,-0.01 0.02,-0.02 -0,-0 -0.01,-0.01 -0.01,-0.01 -0.01,-0.01 -0.02,-0.01 -0.02,-0.02 -0.01,-0.01 -0.02,-0.01 -0.02,-0.02 -0.01,-0.01 -0.01,-0.01 -0.01,-0.01 -0,-0 -0.01,-0 -0.01,-0 0,0 0,0 0.01,0 0,0 0.01,0.01 0.02,0.01 0.01,0.01 0.01,0.01 0.02,0.02 0.01,0.01 0.02,0.01 0.02,0.02 0.01,0 0.01,0.01 0.01,0.01 0.01,-0 0.01,-0.01 0.02,-0.01 0.01,-0 0.01,-0 0.02,0 -0,-0 -0,-0.01 -0.01,-0.01 -0,-0.01 -0.01,-0.03 -0.02,-0.04 -0.01,-0.01 -0.01,-0.03 -0.02,-0.04 -0,-0.01 -0.01,-0.02 -0.01,-0.03 -0,-0.01 -0.01,-0.02 -0.01,-0.02 -0,-0.01 -0,-0.01 -0,-0.01 0,0 0,0 0,0.01 0,0.01 0.01,0.01 0.01,0.02 0,0.01 0.01,0.02 0.01,0.03 0,0.01 0.01,0.03 0.02,0.04 0.01,0.01 0.01,0.03 0.02,0.04 0,0 0,0.01 0.01,0.01 0.01,0 0.02,0.01 0.03,0.02 -0,-0.01 -0,-0.02 -0,-0.03 -0,-0.02 -0,-0.03 -0.01,-0.05 -0,-0.02 -0,-0.03 -0.01,-0.05 -0,-0.02 -0,-0.03 -0.01,-0.04 -0,-0.01 -0,-0.02 -0,-0.03 -0,-0.01 -0,-0.01 -0,-0.01 0,0 0,0 0,0.01 0,0.01 0,0.02 0,0.03 0,0.01 0,0.03 0.01,0.04 0,0.02 0,0.03 0.01,0.05 0,0.02 0,0.03 0.01,0.05 0,0.01 0,0.02 0,0.03 0,0 0,0 0,0 0,0 0,0.01 0.01,0.01 0,-0 0,-0.01 0,-0.01l0 0.01c-0,0 -0,0 -0,0l-0 0c0,0 0,0 0,0.01l0 -0 -0 0 -0 0c0,0 0,0 0,0.01 0,-0 0,-0 0,-0.01 0,-0.01 0.01,-0.03 0.01,-0.04 0,-0.02 0.01,-0.03 0.01,-0.05 0,-0.02 0.01,-0.03 0.01,-0.05 0,-0.02 0.01,-0.03 0.01,-0.04 0,-0.01 0,-0.02 0.01,-0.03 0,-0.01 0,-0.01 0,-0.01 0,0 -0,0 -0,0.01 -0,0.01 -0,0.02 -0.01,0.03 -0,0.01 -0.01,0.03 -0.01,0.04 -0,0.02 -0.01,0.03 -0.01,0.05 -0,0.02 -0.01,0.03 -0.01,0.05 -0,0.02 -0.01,0.03 -0.01,0.04 -0,0 -0,0.01 -0,0.01 0,0 0,0 0,0.01l0.01 -0 -0 0.01 -0 0c0,0 0,0.01 0,0.01 0,-0 0,-0.01 0,-0.01 0.01,-0.01 0.01,-0.03 0.02,-0.04 0.01,-0.02 0.01,-0.03 0.02,-0.05 0.01,-0.02 0.01,-0.03 0.02,-0.05 0.01,-0.02 0.01,-0.03 0.02,-0.04 0.01,-0.02 0.01,-0.03 0.02,-0.04 0,0 0,0 0,0 -0,0.01 -0.01,0.02 -0.02,0.04 -0.01,0.01 -0.01,0.03 -0.02,0.04 -0.01,0.02 -0.01,0.03 -0.02,0.05 -0.01,0.02 -0.01,0.03 -0.02,0.05 -0.01,0.02 -0.01,0.03 -0.02,0.04 -0,0 -0,0.01 -0,0.01 0,0 0,0 0,0.01l0.01 -0.01 0.02 -0 -0.03 0.03c0,0 0,0 0,0 0,-0 0.01,-0.01 0.01,-0.01 0.01,-0.01 0.02,-0.02 0.03,-0.03 0.01,-0.01 0.02,-0.02 0.04,-0.03 0.01,-0.01 0.02,-0.02 0.04,-0.03 0.01,-0.01 0.02,-0.02 0.03,-0.03 0.01,-0.01 0.01,-0.01 0.02,-0.02 0,0 0,0 0,0 -0,0 -0.01,0.01 -0.02,0.02zm0.02 0.02l-0 -0c-0,-0 -0,-0.01 -0.01,-0.01l-0 -0 0.01 -0.01c0,0.01 0.01,0.01 0.01,0.02l-0.01 0zm-0.05 0.02l-0 0c-0,-0 -0,-0 -0,-0l0 -0c0,0 0,0 0,0zm0.04 -0.02c-0,-0.01 -0.01,-0.01 -0.01,-0.02l0 -0c0,0.01 0.01,0.01 0.01,0.02l-0 0zm0.01 -0c-0.01,0 -0.02,0.01 -0.02,0.01 -0.01,0 -0.02,0.01 -0.03,0.01 -0.01,0 -0.02,0.01 -0.03,0.01l0 -0c0.01,-0 0.01,-0.01 0.02,-0.01 0.01,-0 0.02,-0.01 0.03,-0.01 0.01,-0 0.02,-0.01 0.02,-0.01 0,-0 0,-0 0,-0 0,0 0,0 0,0 -0,0 -0,0 -0,0zm0.01 0.04l-0 -0c-0,-0.01 -0.01,-0.02 -0.01,-0.02l-0 -0 0.01 -0c0,0.01 0,0.02 0.01,0.03l-0 0zm-0.02 -0.03c-0,-0 -0,-0 -0,-0l0 -0c0.01,0.01 0.01,0.02 0.01,0.04l-0 0c-0,-0.01 -0.01,-0.02 -0.01,-0.03zm-0.01 0.03c-0,0 -0.01,-0 -0.01,-0 -0,-0 -0,-0.01 0,-0.01 0,-0 0.01,0 0.01,0 0,0 0,0.01 -0,0.01zm-0.04 -0.02l0 -0c0,0 0,0.01 0,0.01 0,0 0,0 0,0 0,0 0,0.01 0,0.01 0,0 0,0.01 0,0.01 0,0 0,0.01 0,0.01l-0 0c-0,-0.02 -0.01,-0.03 -0.02,-0.04zm-0 0.05l-0 -0c-0,-0.01 -0.01,-0.02 -0.02,-0.03 -0,-0 -0,-0 -0,-0l0 -0c0.01,0.01 0.01,0.02 0.02,0.04zm0 -0.04c0.01,0.01 0.01,0.02 0.01,0.03l0 0 -0.01 0 -0 -0c-0,-0.01 -0.01,-0.02 -0.01,-0.03l-0 -0 0.01 -0 0 0zm-0.01 0.04c-0.01,-0 -0.02,-0.01 -0.03,-0.01 -0,-0 -0.01,-0 -0.01,-0l0 -0c0,0 0.01,0 0.01,0 0.01,0 0.02,0.01 0.03,0.01 0,0 0.01,0 0.01,0l-0 0c-0,-0 -0.01,-0 -0.01,-0zm-0.04 -0.01l0 0c-0,0 -0,0 -0,0 -0,0 -0,0 -0,0.01l-0.01 0 0.01 -0.01zm0.01 0l-0 -0 0 0c0,0 0,0 0,0zm0 0.02c-0,-0.01 -0,-0.01 -0,-0.01 0,0 0,0 0,0.01 0,0 0,0 0,0.01l-0 0c-0,-0 -0,-0.01 -0,-0.01zm0.01 0c-0.01,-0.01 -0.01,-0.01 -0.02,-0.02 -0,-0 -0.01,-0.01 -0.01,-0.01 0,0 0,0 0.01,0.01 0,0 0.01,0.01 0.02,0.02l-0 0zm-0.16 -0.31c0,-0 0,-0 0,-0 0,-0 0,-0 0,-0 0,-0 0,-0 0,-0 0,-0 0,-0 0,-0 0,-0 0,-0 0,-0 0,-0 0,-0 0,-0 0,-0 0,-0 0,-0 0,0 0,0 0,0 0,0 0,0 0,0 0,0 0,0 0,0 0,0 0,0 0,0 0,0 0,0 0,0 0,0 0,0 0,0 0,0 0,0 0,0 0,0 0,0 0,0 0,0 0,0 0,0 0,0 0,0 0,0 0,0 0,0 0,0 0,0 0,0 0,0 0,0 0,0 0,0 0,0 0,0 0,0 0,0 0,0 0,0 0,0 0,0 0,0 0,0 0,0 0,0 0,0 0,0 0,0 0,0 0,0 0,0 0,0 0,0 0,0 0,0 0,0 0,0 0,0 0,0 0,0 0,0 0,0 0,0 -0.02,-0.01 -0.04,-0.01 -0.06,-0.01 -0.04,0 -0.07,0.02 -0.1,0.06 -0,0 -0,0 -0,0 -0,0 -0,0 -0,0 -0.02,0.02 -0.03,0.04 -0.04,0.06l-0 -0.01c0.03,-0.07 0.08,-0.11 0.15,-0.12zm-0.26 0.08c-0,-0 -0,-0.01 0,-0.02 0,-0.01 0.01,-0.01 0.02,-0.02 0.01,-0 0.01,-0.01 0.02,-0.01 0.01,-0 0.02,0 0.02,0.01l0.16 0.26 0 0c0.01,0.02 0.02,0.04 0.01,0.05 -0,0.01 -0.01,0.01 -0.01,0.02 -0,0 -0,0 -0.01,0 0,-0 0,-0 0,-0 0,-0 0,-0 0,-0 0,-0 0,-0 0,-0 0,-0 0,-0 0,-0l0 -0 0 -0c0,-0 0,-0 0,-0 0,-0 0,-0 0,-0 -0,-0 -0,-0 -0,-0 -0,-0 -0,-0 -0,-0 -0,-0 -0,-0 -0,-0 -0,-0 -0,-0 -0,-0.01 -0,-0 -0,-0 -0,-0 -0,-0 -0,-0 -0,-0 -0,-0 -0,-0 -0,-0 0,0 0,0 0,0 0,0 0,0 0,0 0,0 0,0 0,0 0,0 0,0 0,0.01 0,0 0,0 0,0 -0,0 0,0 -0,0 -0,0 -0,0 -0,0 -0,0 -0,0 -0,0 -0,0 -0,0 -0,0l-0 0 -0 0c-0,0 -0,0 -0,0 -0,0 -0,0 -0,0 -0,0 -0,0 -0,0 -0,0 -0,0 -0,0 -0,0 -0,0 -0.01,0 -0,0 -0,0 -0,0 -0,0 -0,0 -0,0 -0,0 -0,0 -0,0 -0.01,0 -0.01,-0 -0.02,-0 -0.01,-0.01 -0.01,-0.01 -0.02,-0.03l-0.16 -0.26zm-0 0.09c-0,-0 -0,-0 -0,-0l0.01 -0.07 0 0 -0.01 0.07c-0,0 -0,0 -0,0zm-0.9 0.36c0.01,0.02 0.02,0.03 0.04,0.05 0.01,0.01 0.03,0.02 0.05,0.03 0.01,0 0.02,0 0.02,0 0,-0 0.01,-0 0.01,-0 0,-0 0.01,-0 0.01,-0 0.01,-0 0.02,-0.01 0.03,-0.01 0.01,-0 0.01,-0.01 0.02,-0.01 -0,0 -0,0 -0,0 -0,0 -0,0 -0,0 -0,0 -0,0 -0,0 -0,0 -0,0 -0,0 -0,0 -0,0 -0,0 -0,0 -0,0 -0,0 -0,0 -0,0 -0,0 -0,0 -0,0 -0,0 -0,0 -0,0 -0.01,0 0,0 0,0 0,0 -0,0 -0,0 -0,0 -0,0 -0,0 -0,0 -0,0 -0,0 -0,0 -0,0 -0,0 -0,0 -0,0 -0,0 -0,0 -0,0 -0,0 -0,0 -0,0 -0,0 -0,0 -0,0 -0,0 -0,0 -0,0 -0,0 -0,0 -0,0 -0,0 -0,0 -0,0 -0,0 -0,0 -0,0 -0,0 -0,0 -0,0 -0,0 -0,0 -0,0 -0,0 -0,0 -0,0 -0,0 -0,0 -0,0 -0,0 -0,0 -0,0 -0,0 -0,0 -0,0 -0,0 -0,0 -0.06,0.01 -0.12,-0.05 -0.15,-0.12l0 -0c0.01,0.02 0.01,0.03 0.02,0.04zm0.02 -0.04c0,0 0,0.01 0,0.01 0.01,0.02 0.01,0.04 0.02,0.05 -0,-0 -0,-0 -0,-0.01 -0.01,-0.02 -0.03,-0.04 -0.04,-0.06 0,0.01 0,0.01 0.01,0.02 0.01,0.02 0.01,0.04 0.02,0.05 -0,-0 -0,-0 -0,-0.01 -0.01,-0.02 -0.03,-0.04 -0.04,-0.06 0,0.01 0,0.01 0.01,0.02 0.01,0.02 0.02,0.04 0.03,0.05 -0,-0 -0,-0 -0,-0.01 -0.01,-0.01 -0.01,-0.02 -0.02,-0.02 -0.01,-0.01 -0.01,-0.02 -0.01,-0.03 -0,-0 -0,-0.01 -0.01,-0.01l0.03 -0c0,0 0,0 0,0zm-0.06 -0.15c0,-0.01 0,-0.01 0,-0.02 0,-0.01 0,-0.01 0,-0.02 0,-0.01 0,-0.02 0.01,-0.03 0,-0 0,-0 0,-0 -0,0 -0,0 -0,0 -0,0.02 -0.01,0.05 -0.01,0.07 0,-0.01 0,-0.01 0,-0.02 0,-0.02 0.01,-0.04 0.02,-0.06 -0,0 -0,0 -0,0 -0,0.02 -0.01,0.05 -0.01,0.07 0,-0.01 0,-0.01 0,-0.02 0,-0.02 0.01,-0.04 0.02,-0.06 -0,0 -0,0 -0,0 -0,0.02 -0,0.04 -0,0.06 -0,0.01 -0,0.01 -0,0.02 -0.01,0.01 -0.01,0.02 -0.01,0.04 -0.01,0 -0.01,0 -0.02,0 -0,-0.02 -0,-0.04 -0,-0.05zm0.1 -0.17c0,-0 0,-0 0,-0 0,-0 0,-0 0,-0 0,-0 0,-0 0,-0 0,-0 0,0 0,0 0,0 0,0 0,0 0,0 0,0 0,0 0,0 0,0 0,0 0,0 0,0 0,0 0,0 0,0 0,0 0,0 0,0 0,0 0,0 0,0 0,0 0,0 0,0 0,0 0,0 0,0 0,0 0,0 0,0 0,0 0,0 0,0 0,0 0,0 0,0 0,0 0,0 0,0 0,0 0,0 0,0 0,0 0,0 0,0 0,0 0,0 0,0 0.01,0 0,0 0,0 0,0 0,0 0,0 0,0 0,0 0,0 0,0 0,0 0,0 0,0 0,0 0,0 0,0 0,0 0,0 0,0 0,0 0,0 0,0 0,0 0,0 0,0 0,0 0,0 0,0 -0,-0 -0.01,-0.01 -0.02,-0.01 -0,-0 -0,-0 -0,-0 -0,-0 -0,0 -0,0 -0.01,-0 -0.02,-0.01 -0.03,-0.01 -0.01,0 -0.01,0 -0.02,0 -0.01,0 -0.02,0 -0.02,0.01 -0.01,0.01 -0.03,0.02 -0.04,0.04 -0.01,0.02 -0.02,0.03 -0.03,0.05 -0.01,0.04 -0.02,0.08 -0.01,0.12 -0,0 -0,0 -0,0 -0.01,-0.12 0.04,-0.22 0.11,-0.22zm0.74 -0.18c0,-0 0,0 0,0l0.01 -0.05 0 0c0,0 0,0 0,0 0,0 0,0 0,0l0 0c0,0 0,0 0,0 0,0 0,0 0,0l-0.03 0.22c-0,0 -0,0 -0,0l0.02 -0.15c-0,-0 -0,-0 -0,-0l-0.02 0.15c-0,-0 -0,-0 -0.01,-0l0.03 -0.23 0.01 0.01 -0.01 0.05c0,-0 0,-0 0,-0zm0.1 0.1l0.01 0.01 -0.01 0.07c-0,-0 -0,-0.01 -0.01,-0.01l0.01 -0.07zm0.06 -0.06l-0 -0c-0,-0 -0,-0 -0,-0l-0 -0 -0.02 -0.03 0.01 -0.05 0.07 -0.01 -0 0c-0.01,0.02 -0.03,0.03 -0.04,0.05 -0,0.01 -0.01,0.02 -0.01,0.03l-0 0zm-0.1 0.07c0,-0 0,-0 0,-0 0,-0 0,-0 0,-0 0,-0 0,-0 0,-0 0,-0 0,-0 0,-0 0,-0 -0,-0 -0,-0 0,-0 0,-0 0,-0 0,-0 0,-0 0,-0 0,-0 0,-0 0.01,-0 -0,0.01 -0,0.01 -0,0.02 -0,0 -0,0 -0,0 -0,0 -0,0 -0,0 -0,-0 -0,0 -0.01,0 -0,0 -0,0 -0.01,0 -0,0 -0.01,0 -0.01,0 -0,-0 -0,-0 0,-0zm-0.06 -0c0,-0 0.01,-0 0.01,0 -0,0 -0,0 -0,0.01 0,0 0,0 0,0 0,0 0.01,0 0.01,0 0,0 0,0 0,0 -0,0 -0,0 -0,0 -0,0 -0,0 -0,0 -0.01,0 -0.01,0 -0.02,0 -0,-0 -0,-0.01 0,-0.02zm0.04 -0.12l0 0.01c-0.01,0.01 -0.02,0.02 -0.04,0.02l0 -0.01c0.01,-0.01 0.02,-0.01 0.03,-0.02zm-0.03 0.04l0 -0c0.01,-0.01 0.02,-0.01 0.03,-0.02l0 -0 0.02 0.02c0,0 0,0 0,0l0 0 0.02 0.03 -0.01 -0c-0.02,-0.01 -0.04,-0.02 -0.05,-0.02l-0.01 -0 0 -0zm0.02 0.02c0.01,0 0.01,0.01 0.02,0.01 0,0 0,0 0,0 0,0 0,0 0,0 -0,0 -0,0 -0,0 -0.01,0 -0.02,0 -0.03,0.01 -0,0 -0,0 -0,-0 -0,-0 -0,-0 0,-0 0,-0 0.01,-0 0.01,-0 0,-0 0,-0 0,-0 0.01,-0 0.01,-0.01 0,-0.01 -0,-0 -0.01,-0 -0.01,-0.01 -0,-0 -0,-0 -0,-0 0,0 0.01,0 0.01,0zm-0.02 0.03c0,0 -0,0 -0,0 -0,0 -0,-0 -0,-0 -0,-0 0,-0 0,-0 0,-0 0,0 0,0zm0.04 0.03c-0,-0 -0.01,-0.01 -0.01,-0.01 -0,0 -0.01,0 -0.01,0.01 -0,-0.01 0,-0.01 0.01,-0.01 0.01,-0 0.01,0 0.01,0.01zm-0.04 -0.01c-0,0 -0.01,0 -0.01,0 0.01,-0 0.02,-0.01 0.03,-0.01 0.01,-0 0.03,-0.01 0.04,-0.01 0,-0 0.01,-0 0.01,-0 -0.01,0 -0.02,0.01 -0.03,0.01 -0.01,0 -0.03,0.01 -0.04,0.01zm0.09 -0.12l-0 -0 0 -0.01 0 -0 -0 0.01zm0.02 -0.02l0 -0 -0.01 0.04 -0 -0 0.01 -0.04zm-0.01 0.03l-0.01 -0.01 0 -0.02 0.01 -0 -0 0.03zm-0.06 -0.07c-0,-0 -0.01,-0 -0.01,-0 -0,0 -0,0 -0,0 0,-0 0.01,0 0.01,0l0.07 0.12c-0.01,0 -0.01,0 -0.02,0.01 -0.01,-0.01 -0.02,-0.03 -0.03,-0.04 -0,-0.01 -0.01,-0.01 -0.01,-0.02 -0,-0.01 -0.01,-0.01 -0.01,-0.02 -0,-0.01 -0.01,-0.01 -0.01,-0.02 -0,-0 -0.01,-0.01 -0.01,-0.01 -0,-0.01 -0.01,-0.01 -0.01,-0.01 0,0 0,0 0.01,0.01 0,0 0,0.01 0.01,0.01 0,0 0.01,0.01 0.01,0.02 0,0.01 0.01,0.01 0.01,0.02 0,0.01 0.01,0.01 0.01,0.02 0.01,0.01 0.02,0.03 0.03,0.04 -0,0 -0,0 -0,0l-0.08 -0.12c-0,-0 -0,-0 -0,-0 -0.01,0.01 -0.01,0.01 -0.01,0.02l0.07 0.12c-0,0 -0,0 -0,0l-0.07 -0.12c-0,-0.01 0,-0.02 0.01,-0.03 0,-0 0.01,-0 0.01,-0.01 0.01,-0 0.01,0 0.02,0.01l0.07 0.12c-0,0 -0,0 -0,0 -0,0 -0,0 -0,0l-0.07 -0.12zm-0.17 0.29c-0,-0 -0,-0 -0,-0 -0,-0 0,-0 0,-0 0.01,0 0.01,0 0.02,0.01 -0,0 -0,0 -0,0 -0.01,-0 -0.01,-0 -0.02,-0zm-0 0.01c-0,-0 -0,-0 -0,-0 -0,-0 0,-0 0,-0 0,0 0.01,0 0.01,0 -0,0 -0,0 -0,0 -0,-0 -0.01,-0 -0.01,-0zm-0.01 0.01c-0,-0 -0,-0 -0,-0 -0,-0 0,-0 0,-0 0,0 0.01,0 0.01,0 -0,0 -0,0 -0,0 -0,-0 -0.01,-0 -0.01,-0zm-0 0.01c-0,-0 -0,-0 -0,-0 -0,-0 -0,-0 0,-0 0,0 0.01,0 0.01,0 0,0 0,0 0,0 -0,0 -0,0 -0,0 -0,-0 -0.01,-0 -0.01,-0zm-0.01 0.01c-0,-0 -0,-0 -0,-0 -0,-0 0,-0 0,-0 0,0 0.01,0 0.01,0 -0,0 -0,0 -0,0 -0,0 -0,0 -0,0 -0,-0 -0.01,-0 -0.01,-0zm0.01 0.01c-0,-0 -0.01,-0 -0.01,-0 -0,-0 -0,-0 0,-0 0,0 0.01,0 0.01,0.01 -0,0 -0,0 -0,0 -0,-0 -0,-0 -0,-0zm0 0.01c-0,-0 -0,-0 -0,-0 0,0 0,0 0,0 0,0 0,0 0,0zm0.05 0.16l-0 0 -0.03 0c0,-0 0,-0 0,-0l0.03 -0 -0 -0.03c-0,0 -0,0.01 -0.01,0.01 0,0 0,0 0,0 0,0 -0,0.01 -0.01,0.01 -0,0 -0.01,-0 -0.01,-0 -0,0 -0,0 -0,0 -0,-0.01 -0,-0.01 -0,-0.02 -0,-0.01 -0,-0.02 -0.01,-0.02l0.01 0.01 -0.01 -0.01c-0,-0 -0,-0.01 -0,-0.01l0.03 0.03 0.01 0.04zm-0.06 0.02c0.01,-0.02 0.01,-0.03 0.01,-0.05 -0,0 -0,0 -0,0 -0,0 -0,-0 -0.01,-0 -0,-0 -0,-0 -0,-0 0,0.02 -0,0.05 -0.01,0.06l-0 0c0.01,-0.02 0.02,-0.04 0.02,-0.06 -0.01,-0.05 -0.05,-0.08 -0.09,-0.08 -0.04,0 -0.07,0.04 -0.07,0.09 0,0.02 0.01,0.04 0.03,0.06l-0 0c-0.01,-0.01 -0.02,-0.03 -0.03,-0.06 -0,0 -0,0 -0,0 -0,0 -0,0 -0,0 -0,0 -0,-0 -0,-0 0,0.02 0.01,0.04 0.02,0.06l-0 0c-0.01,-0.02 -0.02,-0.04 -0.02,-0.06 -0.01,-0.06 0.03,-0.1 0.08,-0.11 0,-0 0,-0 0,-0 0.05,-0 0.1,0.04 0.11,0.1 0,0.02 -0,0.04 -0.01,0.06l-0 0c0,-0 0,-0.01 0,-0.01zm-0.02 -0.05c-0,-0.01 -0.01,-0.03 -0.02,-0.04 0,0 0,0 0,0 0,0 0,0 0,0 0,0 0.01,0.01 0.01,0.01 0,0 0,0.01 0,0.01 0,0 0,0 0,0 0,0 0,0 0,0 0,0 0,0 0,0 0,0 0,0 0,0 0,0 0,0 0,0 0,0 -0,-0 -0,-0 -0,-0 -0,-0 -0,-0 -0,-0 -0,-0 -0,-0 -0,-0 -0,-0 -0,-0 -0,-0 -0,-0 -0,-0 -0,-0 -0,-0 -0,-0 -0,-0 -0,-0 -0,-0 -0,-0 -0,-0 -0,-0 -0,-0 -0,-0 -0,-0 -0,-0 -0,-0 -0,-0 -0,-0 -0,-0.01 -0.01,-0.01 -0,-0 -0.01,-0.01 -0.01,-0.01 0.01,0.01 0.02,0.03 0.02,0.05 0,0.02 -0,0.05 -0.02,0.06l-0.01 0c0.02,-0.02 0.02,-0.04 0.02,-0.06zm-0.08 0.07c-0.02,-0 -0.03,-0.02 -0.03,-0.02 0,-0 0.01,0.01 0.03,0.01 0.02,0 0.03,-0 0.03,-0 0,0 -0,0 -0.01,0.01l-0.02 0c-0,-0 -0,-0 -0,-0zm-0.06 -0.06c-0,-0.04 0.02,-0.07 0.06,-0.07 0.04,-0 0.07,0.03 0.08,0.07 0,0.03 -0.01,0.05 -0.02,0.06l-0.01 0c0.01,-0.01 0.02,-0.02 0.03,-0.04l-0.03 -0.01c-0,0.02 -0.02,0.03 -0.03,0.03 -0.02,0 -0.03,-0.01 -0.04,-0.03l-0.02 0.01c0.01,0.02 0.02,0.03 0.03,0.04l-0.01 0c-0.02,-0.01 -0.03,-0.03 -0.04,-0.06zm0.02 0.06c-0.02,-0.01 -0.03,-0.03 -0.03,-0.06 -0,-0.02 0,-0.04 0.01,-0.05 -0,0 -0,0.01 -0,0.01 -0,0.01 -0,0.01 -0,0.02 -0,0 -0,0 -0,0 -0,0 -0,0 -0,0 0,0 0,0 0,0 0,0 0,0 0,0 0,0 0,0 0,0 0,0 0,0 0,0 0,0 0,0 0,0 0,0 0,0 0,0 0,0 0,0 0,0 0,0 0,0 0,0 0,0 0,-0 0,-0 0,-0 -0,-0 0,-0 0,-0 0,-0 0,-0 0,-0 0,-0 0,-0 0,-0 0,-0 0,-0 0,-0 0,-0 0,-0 0,-0 0,-0 0,-0 0,-0 0,-0 0,-0 0,-0 0,-0 0,-0 0,-0 0,-0 0,-0 0,-0 0,-0.01 0,-0.01 0,-0 0,-0 0,-0 -0.01,0.01 -0.01,0.03 -0.01,0.04 0,0.02 0.02,0.05 0.03,0.06l-0.01 0zm-0.1 -0.03c0.01,-0 0.01,0 0.02,0.01 0,0.01 -0,0.01 -0.01,0.02 -0.01,0 -0.01,-0 -0.02,-0.01 -0,-0.01 0,-0.01 0.01,-0.02zm-0.19 0.03l0.01 -0c-0,0 -0,0.01 -0,0.01 -0,0 -0,0 -0.01,0 0,-0 0,-0.01 0,-0.01zm-0.06 0c-0,-0 -0,-0 -0,-0l0.01 -0c0.01,0 0.02,0 0.02,0.01 -0,0 -0,0 -0.01,0 -0.01,-0 -0.01,-0 -0.02,-0.01zm-0.02 -0l0 -0c-0,0 -0,0.01 -0,0.01 -0,0 -0,0 -0,0 0,-0 0,-0.01 0,-0.01zm-0.15 -0.12c0.01,-0 0.03,0.02 0.04,0.04 -0,0 -0.01,0 -0.01,0 -0,-0.02 -0.01,-0.03 -0.02,-0.02 -0.01,0 -0.01,0.01 -0.01,0.03 -0,0 -0.01,0 -0.01,0 0,-0.02 0.01,-0.04 0.02,-0.04zm-0 -0.06c-0,0.01 -0,0.01 -0,0.02 -0,0.01 -0.01,0.01 -0.01,0.02 0,-0.01 0.01,-0.03 0.01,-0.04 -0,0 -0,0 -0,0zm0.18 -0.05c0,0 0,0 0,0 -0,0 -0.01,0.01 -0.02,0.02 -0.01,0.01 -0.01,0.01 -0.02,0.02 -0.01,0.01 -0.02,0.01 -0.02,0.02 -0.01,0.01 -0.02,0.01 -0.02,0.02 -0.01,0.01 -0.02,0.01 -0.02,0.02 -0,0 -0.01,0.01 -0.01,0.01 -0,0 -0,0 -0.01,0.01 -0,0 -0.01,0.01 -0.01,0.01 0,0 0,-0 0.01,-0 0,-0 0,-0 0.01,-0.01 0,-0 0.01,-0 0.01,-0.01 0.01,-0.01 0.01,-0.01 0.02,-0.02 0.01,-0.01 0.02,-0.01 0.03,-0.02 0.01,-0.01 0.02,-0.01 0.02,-0.02 0.01,-0.01 0.02,-0.01 0.02,-0.02 0.01,-0.01 0.02,-0.01 0.02,-0.02 0,0 0,0 0,0 0,0 0,0.01 0.01,0.01l-0.13 0.11c-0,0 -0,0 -0,0 0,0 0,0 0,0 0,0 0.01,0 0.01,0l0 0c0,-0 0,-0 0.01,-0l0.13 -0.11c0,0 0,0 0,0l-0.13 0.11c-0,0 -0.01,0 -0.01,0l-0 0c-0.01,0 -0.01,-0 -0.01,-0 -0,-0 -0.01,-0.01 -0.01,-0.01 0,-0.01 0.01,-0.01 0.01,-0.01l0.13 -0.11zm0.03 0.23l0 -0c0,0 0,0.01 0,0.01 -0,0 -0,0 -0,0 -0,-0 -0,-0.01 -0,-0.01zm0.16 -0.01l-0 -0 -0 -0 0 0 0 0zm-0.36 -0.18c0,-0 0.01,-0 0.01,-0 -0.01,0 -0.01,0.01 -0.01,0.01 -0,-0 -0,-0.01 -0,-0.01zm0.09 -0.09c-0,0 -0,-0 -0,-0 0,-0 0,-0 0,-0 0,0 0,0 0,0 -0,0 -0,0 -0,0zm0.05 0.03c-0,0.01 -0,0.02 -0.01,0.03 -0,0.01 -0,0.01 -0,0.02l-0 0 -0 0c0,-0.01 0,-0.02 0,-0.02 0,-0.01 0,-0.02 0.01,-0.03 0,-0 0,-0 0,-0 0,0 0,0 0,0 -0,0 -0,0 -0,0zm0 0.04c-0,0 -0,0.01 -0,0.01l-0 0c0,-0 0,-0.01 0.01,-0.01 0,-0.01 0.01,-0.02 0.01,-0.03 0,0 0,0 0,0 -0,0.01 -0.01,0.02 -0.01,0.03zm-0.09 0.07c0,0 0,0 0,0 -0,0 -0,0 -0,0l-0 0c0,-0 0,-0.01 0,-0.01zm-0.01 0c0,-0 0,-0 0.01,-0 0,-0 0,-0 0,-0 0,0 0,0.01 0,0.01l-0 0 -0.01 -0.01zm0 0.01c-0,-0 -0,-0.01 -0.01,-0.01 0,-0 0,-0 0,-0 0,0 0,0.01 0.01,0.01l-0 0zm-0.01 -0c0,-0 0,-0 0,-0 0,0 0,0 0,0 -0,0 -0,0 -0,0 -0,-0 -0,-0 -0,-0zm0.01 -0l0 0c-0,-0 -0,-0 -0,-0 0,-0 0,-0 0,-0zm-0 0l-0.01 -0c0,-0 0,-0 0,-0l0 0c0,0 0,0 0,0zm-0.03 -0.05l0 0c-0,0 -0,0 -0,0 0,-0 0,-0 0,-0zm0.02 -0.05c-0,-0 -0,-0.01 -0,-0.01 0,-0 0.01,-0 0.01,-0 -0.01,0 -0.01,0.01 -0.01,0.01zm0.02 -0.02c-0,-0 -0,-0.01 0,-0.01 0,-0 0.01,-0 0.01,0 -0.01,-0 -0.01,0 -0.01,0.01zm0.04 0.02l0 0.01c-0,0.01 -0.01,0.01 -0.01,0.02 -0,-0 -0,-0 -0.01,-0 0,-0.01 0.01,-0.02 0.01,-0.03zm0 -0.04c-0,-0 -0.01,-0 -0.01,-0 -0,0 -0,0 -0,0 -0,0 -0,0 -0,0 -0,0 -0,-0 -0,-0 -0,-0 0,-0 0,-0 0,-0 0,-0 0,-0 0,-0 0,-0 0.01,0 0,0 0,0 0,0zm0.01 0.04c-0,0 -0,0 -0,0l-0 -0.01c0,-0 0,-0 0,-0.01l-0 0.01zm0.01 -0.03c-0,0.01 -0,0.01 -0,0.02 -0,0.01 -0,0.02 -0,0.03 -0,0.01 -0,0.02 -0,0.03 -0,-0 -0,-0 -0,-0 0,-0.01 0,-0.02 0,-0.03 0,-0.01 0,-0.02 0,-0.03 0,-0.01 0,-0.02 0,-0.02 0,-0.01 0,-0.01 0,-0.01 0,0 -0,0 -0,0.01zm0.02 0.07l-0.01 0.01 -0 -0c-0,-0 -0,-0 -0,-0l-0 -0 0 -0.05 0 -0c0.01,-0.01 0.01,-0.02 0.02,-0.02l0 -0 0 0c0,0 0,0 0,0l0 0 -0.01 0.06zm-0.04 -0.04c-0,-0.01 -0,-0.02 -0,-0.02 -0,-0.01 -0,-0.01 -0,-0.01 0,0 0,0 0,0.01 0,0.01 0,0.01 0,0.02 0,0.01 0,0.02 0.01,0.03 0,0 0,0 0,0l-0 0.01c-0,-0 -0,-0.01 -0,-0.01 -0,-0.01 -0,-0.02 -0,-0.03zm-0.03 0.04c-0,0 -0,0 -0,0 -0,-0 -0,-0 -0,-0 -0,-0.01 -0.01,-0.01 -0.01,-0.02 -0,-0 -0,-0.01 -0,-0.01 0,0 0,0 0,0.01 0,0 0.01,0.01 0.01,0.02 0,0 0,0 0,0zm0.01 0c0,0 0,0 0,0 -0,-0 -0,-0 -0,-0 -0,-0.01 -0,-0.02 -0,-0.02 -0,-0.01 -0,-0.01 -0,-0.02 -0,-0 -0,-0.01 -0,-0.01 0,0 0,0 0,0.01 0,0 0,0.01 0,0.02 0,0.01 0,0.02 0,0.02zm-0.05 0.02c-0,-0 -0,-0 -0,-0 0,0 0,0 0,0 -0,0 -0,0 -0,0zm0.11 -0.09c-0.01,0.01 -0.01,0.01 -0.02,0.02l0 -0.01c0.01,-0.01 0.01,-0.01 0.02,-0.01zm-0.13 0.15c0.01,-0.04 0.03,-0.08 0.06,-0.08 0.02,-0 0.04,0.01 0.05,0.02l-0.01 0.01c-0,-0 -0,-0 -0,-0 -0,0 -0,0 -0.01,0 -0,0 -0,0 -0,0l-0.02 0.01c-0.01,-0 -0.01,-0 -0.02,-0 -0.01,0 -0.02,0.01 -0.02,0.02l-0.03 0c-0.01,0 -0.01,0 -0.01,0.01zm0.47 -0.27l0 0 -0.01 0.01c-0,-0 -0,-0 -0,-0 -0,-0 -0.01,-0 -0.01,0 -0,0 -0,0 -0,0.01l-0.02 0.02c-0,-0 -0,-0 -0,-0.01 -0,-0 0,-0.01 0,-0.01l-0.02 0.01c0.01,-0 0.01,0 0.01,0.01l-0 0c-0,-0 -0,-0 -0,-0 -0,-0 -0.01,-0 -0.01,0 -0,0 -0,0 -0,0.01l-0.02 0.01 -0 -0c-0,-0 0,-0.01 0,-0.01l-0.01 0 -0 -0 -0.01 0c0,0 0,0 0,0 0,0 0,0 0,0.01l-0 0c-0,-0 -0,-0 -0,-0 -0,-0 -0,-0 -0,-0l-0.02 0.02 0 0.01 -0 0 -0 -0.01 -0 0c-0,0 -0,0 -0,0l0 0.01 -0 0 -0 -0.01c-0,-0 -0,-0.01 0,-0.01l0.1 -0.07c0.01,-0 0.02,-0 0.02,-0zm0.29 0c-0,-0 -0,-0 -0.01,-0 -0,0 -0.01,0 -0.01,0l-0.03 -0.01c0,-0 0,-0 0,-0.01 0,-0 0.01,-0 0.01,-0l-0.01 -0c0,-0 0,-0 0.01,-0l0.04 0.01 -0 0.01zm-0.14 0.01c-0,-0 -0,-0 -0,-0l0.03 0.01c0,-0 0,-0 0,-0 0,-0 0,-0 0,-0.01 0,-0 0,-0.01 0,-0.01 0,-0 0,-0 0,-0l-0 -0c0,-0 0.01,-0 0.01,-0l0.11 0.03 -0 0.03 -0.14 -0.03zm0.12 0.04c-0.01,-0 -0.02,-0.01 -0.04,-0.01 -0.01,-0 -0.02,-0.01 -0.04,-0.01 -0.01,-0 -0.02,-0.01 -0.03,-0.01 -0,-0 -0,-0 -0,-0 0.01,0 0.02,0 0.03,0.01 0.01,0 0.02,0.01 0.04,0.01 0.01,0 0.02,0.01 0.04,0.01 0.01,0 0.01,0 0.02,0.01l-0 0c-0.01,-0 -0.01,-0 -0.02,-0zm-0 0.01c-0.01,-0 -0.02,-0.01 -0.04,-0.01 -0.01,-0 -0.02,-0.01 -0.04,-0.01 -0.01,-0 -0.01,-0 -0.02,-0.01 -0,-0 -0,-0 -0,-0 0.01,0 0.01,0 0.02,0 0.01,0 0.02,0.01 0.04,0.01 0.01,0 0.02,0.01 0.04,0.01 0.01,0 0.02,0 0.02,0.01l-0 0c-0.01,-0 -0.01,-0 -0.02,-0zm0.01 0.01c-0.01,-0 -0.02,-0 -0.02,-0.01 -0,-0 -0,-0 -0,-0 -0,-0 -0,-0 0,-0 0.01,0 0.02,0.01 0.04,0.01l-0 0c-0,-0 -0.01,-0 -0.01,-0zm0.01 0.01c0,0 0,0 0,0l-0 0c-0,-0 -0,-0 -0,-0zm-0.04 -0c-0,-0 -0,-0 -0,-0 -0,-0 -0,-0 -0,-0 -0,-0 -0,-0 0,-0 0.01,0 0.02,0.01 0.04,0.01 0,0 0,0 0,0l-0 0c-0.01,-0 -0.02,-0.01 -0.04,-0.01zm0.03 0.01c-0,-0 -0,-0 -0,-0 -0,-0 -0,-0 -0,-0 -0,-0 -0,-0 -0,-0 0,0 0,0 0,0l-0 0zm-0.01 0.01c-0,-0 -0,-0 -0,-0 0,0 0.01,0 0.01,0l-0 0c-0,-0 -0,-0 -0,-0zm-0 0.01c0,0 0,0 0,0 0,0 -0,0 -0,0 -0,-0 -0,-0 -0,-0 -0,-0 -0,-0 -0,-0 0,0 0.01,0 0.01,0zm-0 -0c0,0 0,0 0.01,0 -0.01,-0 -0.03,-0.01 -0.04,-0.01 -0,-0 -0,-0 -0,-0 -0,-0 -0,-0 -0,-0 -0,-0 0,-0 0,-0 0.01,0 0.02,0.01 0.03,0.01zm0.01 -0.01c0,0 0,0 0,0l-0 0c-0,-0 -0,-0 -0,-0zm0 0.01l-0 0c-0,-0 -0.01,-0 -0.01,-0 -0,-0 -0.01,-0 -0.01,-0 -0,-0 -0.01,-0 -0.01,-0 -0,-0 -0,-0 -0,-0 -0,-0 -0,-0 -0,-0 -0,-0 -0,-0 0,-0 0.01,0 0.01,0 0.02,0.01 0,0 0.01,0 0.01,0 0,0 0.01,0 0.01,0 0,0 0,0 0,0zm-0.05 -0.04c-0,-0 -0.01,-0 -0.01,-0 0,0 0.01,0 0.01,0 0,0 0.01,0 0.01,0 -0,-0 -0.01,-0 -0.01,-0zm-0.25 0.3l0.02 -0 0 0 -0.02 0 -0 -0zm0.02 -0.01l0 0 -0.02 0 -0 -0 0.02 -0zm-0.07 -0.11l-0 -0.01c0.01,-0.01 0.01,-0.02 0.02,-0.03 -0,0.01 -0.01,0.01 -0.01,0.01 -0,0 -0,0 -0,0 -0,0.01 -0.01,0.01 -0.01,0.02zm-0.3 0.09l-0 0c-0,0 -0,0 -0,0 -0,-0 -0,-0 -0,-0 0,0 0,0 0,0zm-0.01 -0.03c0,0 0,0 0,0l-0 0c-0,-0 -0,-0 -0,-0 -0,-0 -0,-0 -0,-0l0 -0zm0.01 -0c-0,0.01 -0,0.01 -0,0.01 0,0 0,-0 0,-0.01 0,-0 0,-0 0,-0.01l0 -0c-0,0 -0,0.01 -0,0.01zm0.05 -0.05c-0,0 -0,0.01 -0,0.01 -0,-0 -0,-0 -0,-0 0,-0 0,-0 0,-0.01l0 -0zm0.01 -0.01c-0.01,0.01 -0.01,0.02 -0.02,0.03 -0,-0 -0,-0 -0,-0 0,-0.01 0.01,-0.02 0.02,-0.02l0.01 -0c-0,0 -0,0 -0,0zm0.04 0.09c-0,-0 -0.01,-0.01 -0.01,-0.01l0 -0c0,0 0.01,0.01 0.01,0.01 0,0 0.01,0 0.01,0.01l-0 0c-0,-0 -0.01,-0 -0.01,-0.01zm-0.03 0c-0,-0 -0,-0 -0,-0l0 -0c0,0 0,0 0,0 0,0 0,0 0,0.01l-0 0c-0,-0 -0,-0.01 -0,-0.01zm-0.06 0.01c-0,-0.01 -0,-0.01 -0,-0.02 -0,-0.01 -0,-0.02 -0.01,-0.03l0.03 -0.03c0.01,0.02 0.01,0.03 0.01,0.05 0,0.01 0,0.01 0,0.02l-0.04 0zm-0.01 -0c0,-0 0,-0 0,-0 0,0 0,0 0,0 -0,0 -0,0 -0,0 -0,0 -0,0 -0,0l-0 0c0,-0 0,-0 0,-0zm0 -0.02l-0 0c-0,-0 -0,-0 -0,-0l0 -0c0,0 0,0 0,0zm-0 -0.01c-0,0 -0,0 -0,0.01 -0,0.01 -0,0.01 -0,0.01 0,0 0,-0 0,-0.01 0,-0 0,-0 0,-0.01 0,0 0,0 0,0zm0 0.02c0,-0 0,-0 0,-0 0,0 0,0 0,0 -0,0 -0,0 -0,0 -0,0.01 -0.01,0.01 -0.01,0.01 0,0 0,-0 0.01,-0.01zm0.07 -0.09c-0,-0 -0,-0 -0,-0l0.01 -0.01 0.02 -0.02 0 0 -0.03 0.02zm0.03 -0.02c-0,0 -0.01,0 -0.01,0.01 -0.01,0.01 -0.02,0.01 -0.02,0.02 -0.01,0.01 -0.02,0.01 -0.02,0.02 -0,0 -0,0 -0,0 -0,-0 -0,-0 -0,-0 0,-0 0,-0 0,-0 0.01,-0.01 0.01,-0.01 0.02,-0.02 0.01,-0.01 0.02,-0.01 0.02,-0.02 0,-0 0.01,-0 0.01,-0.01 0,0 0,0 0,0zm-0.04 0.08c-0,-0 -0,-0.01 -0,-0.01 0,0 0,0 0,0.01 0,0 0,0 0,0.01l-0 0c-0,-0 -0,-0 -0,-0.01zm0.04 -0.03l-0 -0 0.01 -0 0 0c0,0.01 0,0.01 0,0.02l-0 0c-0,-0.01 -0,-0.01 -0.01,-0.01zm0.01 -0.02c0,0 0,0 0,0 -0,0 -0.01,0 -0.01,0l0 -0c0,-0 0.01,-0 0.01,-0zm-0.06 0.03c0,0 0,0 0,0 0,0 0,0 0,0l-0 0c-0,-0 -0,-0 -0,-0 -0,-0 -0,-0 -0,-0 -0,-0 -0,-0 -0,-0zm0.04 -0.04l0.01 -0.01 0 0c0,0 0,0 0,0.01l0 0 -0.01 0.01 -0 -0c-0,-0 -0,-0 -0,-0l-0 -0zm-0.02 0.03c-0.01,0 -0.01,0 -0.02,0 -0,-0 -0,-0 -0,-0 0,-0 0.01,-0 0.02,-0.01 0.01,-0 0.01,-0 0.02,-0.01l-0 0c-0.01,0 -0.01,0 -0.01,0zm-0.01 0.02c0.01,-0.01 0.02,-0.02 0.03,-0.02 0.01,-0.01 0.02,-0.01 0.03,-0.02 0,0 0,0 0,0 -0.01,0.01 -0.02,0.01 -0.03,0.02 -0.01,0.01 -0.02,0.02 -0.03,0.02 -0,-0 -0,-0 -0,-0zm0.03 0.02c-0,-0 -0,-0 -0,-0 -0.01,-0 -0.01,-0.01 -0.02,-0.01 -0,-0 -0,-0 -0,-0l0 -0c0,0 0,0 0,0 0,0 0.01,0.01 0.02,0.01 0,0 0,0 0,0l-0 0zm0.03 -0.01c-0,-0 -0.01,-0 -0.01,-0 -0.01,-0 -0.02,-0.01 -0.03,-0.01 -0,-0 -0,-0 -0,-0l0 -0c0,0 0,0 0,0 0.01,0 0.02,0 0.03,0.01 0,0 0.01,0 0.01,0l-0 0zm0.02 0c0,0 0,0 0,0 -0,-0 -0,-0 -0,-0l0 -0c0,0 0,0 0,0zm-0.07 0.02c-0,-0 -0,-0 -0,-0 0.01,-0 0.02,-0.01 0.03,-0.01 0.01,-0 0.02,-0.01 0.03,-0.01 0,0 0,0 0,0 -0.01,0 -0.02,0.01 -0.03,0.01 -0.01,0 -0.02,0.01 -0.03,0.01zm0.01 0.01c0,-0 0,-0.01 0,-0.01 0,0 -0,0 -0,0.01l-0 0zm0.02 -0c-0,-0 -0,-0 -0,-0.01 -0,-0 -0,-0 -0,-0.01l0 -0c0,0 0,0 0,0.01 0,0 0,0 0,0.01l-0 0zm0.04 -0.11c0,0 0,0 0,0 0,0 0,0.01 0,0.01 0,0 0,0 0,0l-0 0 0 0c0,0.02 0.01,0.05 0.02,0.07 0,0.01 0,0.02 0,0.02l-0.01 0c-0,-0.01 -0,-0.02 -0,-0.03 -0,-0.04 -0.02,-0.08 -0.03,-0.11l0 -0c0,0.01 0.01,0.02 0.01,0.03zm0.02 -0.04c0,-0.01 0.01,-0.01 0.01,-0.01 0.01,-0 0.01,-0 0.02,-0 0,-0 0,-0 0.01,-0 0.02,-0 0.06,-0 0.07,0 0.01,0 0.01,0.02 0.02,0.04 0,0.01 -0,0.01 -0.01,0.01 -0.01,0 -0.02,0.01 -0.02,0.01 0,0 0.02,-0 0.04,-0.01 0.01,-0 0.01,-0 0.02,-0 0,-0 0,-0 0,-0.01l-0 -0c-0,-0.01 -0.01,-0.03 -0.01,-0.05 0,0 0,0 0,0 0,0 0,0 0,0 0,0 0,0 0,0 0,0.01 0.01,0.03 0.01,0.04 0,0.01 -0,0.01 -0.01,0.01 -0.01,0 -0.03,0.01 -0.06,0.01 -0.03,0 -0.06,0.01 -0.09,0.01 -0,0 -0,-0 -0.01,-0 -0,-0 -0,-0 -0,-0.01 -0,-0.01 -0,-0.01 -0,-0.01 -0,-0 -0,-0.01 -0,-0.01 -0,-0.01 0,-0.01 0,-0.01 0,-0 0,-0 0,-0 0,-0 0,-0 0,-0 -0,0.01 -0,0.01 -0,0.02 0,-0.01 0,-0.01 0.01,-0.02zm0.06 -0.03c0,0 -0,0 -0.01,0 -0,0 -0.01,-0 -0.01,-0 -0,-0 0,-0 0.01,-0 0,-0 0.01,0 0.01,0zm0.07 -0.03c-0,-0 -0,-0 0,-0 0,-0 0,-0 0,-0 0,-0 0,-0 0,-0 -0,0 -0,0 -0,0 -0,0 -0,0 -0,0zm-0 -0.06c0,-0 0,-0 0,-0 0,0 0,0 0,0 -0,0 -0,0 -0,0 -0,0 -0,-0 -0,-0zm-0 0c-0,-0 -0,-0 0,-0 0,-0 0,-0 0,-0 0,-0 0,-0 0,-0 0,0 -0,0 -0,0 -0,0 -0,0 -0,0 -0,0 0,0 0,0 0,0 0,0 0,0l-0 0c-0,-0 -0,-0 -0,-0zm0.13 -0.06l-0.01 -0.01 -0.01 0.01 -0 0c0,0 0.01,-0 0.01,-0l0 0.01c-0,0 -0,0 -0,0l-0.05 0.04c-0,-0 -0,-0 -0.01,-0 -0,-0 -0,-0.01 -0,-0.01 -0,-0 0,-0 0,-0.01l-0.02 0.01c0.01,0 0.01,0.01 0.01,0.01 0,0 0,0.01 0.01,0.01 -0,0 -0,0 -0.01,0.01l-0.07 0.04c-0,0 -0,0 -0,0l0 0c-0,0 -0,-0 -0,-0l-0.01 -0.02 0.15 -0.09c0,-0 0,-0 0,-0l0.01 0.01c-0,0 -0,0 -0,0zm0.11 -0.02c0,-0 0,-0 0,-0l-0 0.01c-0,-0 -0,-0 -0,-0l0 -0.01zm0.09 -0c-0,0 -0,0 -0,0l-0.01 -0c0,-0 0.01,-0 0.01,-0zm0.01 0.01c0,-0 0,-0 0,-0 -0,-0 -0,-0 -0,-0 0,-0 0,-0 0.01,-0 0,0 0,0.01 0,0.01l-0 -0zm0.05 0.01c-0,0 -0,0 -0,0 -0,0 -0,0 -0,0 -0,0 -0,0 -0,0l-0 -0c0,-0 0,-0 0,-0 0,-0 0,-0 0,-0 0,-0 0,-0 0,-0 0,-0 0,-0 0,-0 0,0 -0,0 -0,0zm-0.06 -0.01c0,-0 0,-0 0,-0 0,0 -0,0 -0,0 -0,0 -0,0 -0,0 -0,0 -0,0 -0,0 -0,0 -0,0 -0,0l-0 -0c0,-0 0,-0 0,-0 0,-0 0,-0 0,-0 0,-0 0,-0 0,-0zm0.01 0c-0,0 -0,0 -0,-0 -0,-0 -0,-0 -0,-0 0,-0 0,-0 0,0 0,0 0,0 0,0zm-0.1 0.01l0 -0.01c0,-0 0,-0 0.01,-0l-0 0.01c-0,-0 -0,-0 -0,-0zm0.06 0.05c-0,-0 -0.01,-0 -0.01,-0 0,0 0.01,0 0.01,0 0,0 0.01,0 0.01,0 -0,-0 -0.01,-0 -0.01,-0zm0.02 0.06l0.02 -0.04 0 0 -0.02 0.04 -0 -0zm-0.04 0.09l-0 -0 0.03 -0.05 0 0 -0.03 0.05zm0.03 0.02l-0 -0 0.01 -0.02 -0.01 -0c0,0 0,0 0,0.01 -0,0 -0,0 -0,0.01 0,0 0,0 0.01,0.01 0,0 0,0 -0,0l-0 -0c0,-0 0,-0 0,-0 -0,-0 -0,-0.01 -0.01,-0.01 -0,0 -0,0 -0.01,0l-0 -0 0 -0.01c0,-0 -0,-0 -0,-0l-0 -0 0 -0.01 0.03 0.01 -0.01 0.02zm0 0.01l-0.01 0.03c-0,-0 -0,-0 -0,-0l0.01 -0.02 -0.01 -0c0,0 0,0 0,0.01 0,0 -0,0 -0,0.01 -0,0 -0,0 -0,0 -0,-0 -0,-0 -0,-0 -0,-0 -0.01,-0.01 -0.01,-0.01l0.01 -0.02 0.03 0.01c0,-0 0,-0 0,-0l0 -0 0 0 -0 0zm-0.14 -0.02l0 -0c0,-0 0,-0 0,0l0.01 0.02c-0,0 -0,0 -0,0l-0.01 -0.02zm-0.03 0.02l0 -0 0.01 0.02c-0,0 -0,0 -0,0l-0.01 -0.02zm-0.02 0.07c-0,-0 -0,-0.01 0,-0.01 0,0 0,0 0,0.01 -0,0 -0,0 -0,0.01 -0,-0 -0,-0 -0,-0zm-0.03 0.02l0.02 -0 0 0.02 -0.02 0 -0 -0.02zm-0.07 -0.18c0,-0 0,-0 0,-0 0,-0 0,-0 0,-0 -0,0 -0,0 -0.01,0.01 -0,0 -0,0 -0,0 -0,-0 -0,-0 0,-0zm0.01 -0.01c0.01,-0 0.01,-0.01 0.02,-0.01 0,-0 0,-0 0,-0 0,-0 0,0 0,0 -0.01,0.01 -0.02,0.01 -0.03,0.02 -0,0 -0,0 -0.01,0 0,-0 0.01,-0.01 0.01,-0.01zm-0.02 0.01c0,-0 0,-0 0,-0 0,-0 0,-0 0,-0 -0,0 -0,0 -0.01,0 -0,0 -0,0 -0,0 -0,-0 -0,-0 0,-0zm0.02 -0.02c0.01,-0.01 0.02,-0.01 0.03,-0.02 0,0 0,0 0,0 0,0 0,0 0,0 -0.01,0 -0.01,0.01 -0.02,0.01 -0.01,0.01 -0.02,0.01 -0.03,0.01 -0,0 -0,0 -0,0 0.01,-0.01 0.02,-0.01 0.02,-0.02zm-0.01 -0.01c0.01,-0.01 0.02,-0.01 0.03,-0.02 0,-0 0,-0 0,-0 -0,0 -0,0 -0,0 -0.01,0.01 -0.02,0.01 -0.03,0.02 -0.01,0.01 -0.02,0.01 -0.03,0.01 -0,0 -0,0 -0,0 0.01,-0.01 0.02,-0.01 0.02,-0.02zm0.3 -0.04l-0.02 0.04 -0 -0 0.02 -0.04 0 0zm-0.01 0.04c-0,-0 -0,-0 0,-0l0.02 -0.03c0,-0 0,-0 0,-0l0 0 -0.02 0.04 -0 -0zm-0.01 0.03c-0,-0 -0,-0 -0,-0.01l0.01 -0.02c0,-0 0,-0 0,-0l0 0 -0.01 0.03 -0 -0zm-0.03 0.06c-0,-0 -0,-0 -0,-0l0 0 0.02 -0.05c0,-0 0,-0 0,-0l0 0 -0.03 0.05 -0 -0zm-0.04 -0.01l0 0 -0.01 0.03c-0,-0 -0,-0 -0,-0l0.01 -0.03zm-0.19 -0.07c0,-0 0,0 0,0 -0.01,0.01 -0.02,0.01 -0.03,0.02 -0,0 -0,0 -0.01,0 0.01,-0.01 0.02,-0.01 0.03,-0.02 0,-0 0,-0 0,-0 0,-0 0,-0 0,-0zm0.01 -0.02c-0,0 -0.01,0 -0.01,0 0,-0 0,-0 0.01,-0.01 0,0 0,0 0,0zm0.24 -0.05l-0.01 0.02c-0,-0 -0,-0 -0,-0 -0,-0 -0,-0 -0,-0l0.01 -0.02 0 0zm-0 0.05l-0 -0 0.01 -0.04 0 0 -0.01 0.04zm0.02 0.01l-0.01 0.03 -0 -0 0.01 -0.03 0 0zm-0.04 0.09l0.03 -0.06 0 0 -0.03 0.06 -0 -0zm-0 -0l0 -0.01 0 0 -0 0.01 -0 -0zm0.02 0.01l0 0c0,0 0,0 0,0l-0.01 0.02c-0,-0 -0,-0 -0,-0l0.01 -0.03zm-0.07 -0.01l0 0 -0 0c-0,0 -0,0 0,0l-0 -0 -0 -0zm-0.06 0.01l0 -0 0.01 0.01 -0 0 -0.01 -0.01zm-0.04 0.02c0,-0 0,-0 0,-0 0,-0 0,-0 0,-0 -0,0 -0,0 -0.01,0.01 -0,0 -0,0 -0,0 -0,-0 -0,-0 0,-0zm0 -0.01c0,-0 0,-0 0.01,-0 0,-0 0,-0 0,-0 0,-0 0,0 0,0 -0.01,0 -0.01,0.01 -0.02,0.01 0,-0 0.01,-0 0.01,-0.01zm-0.01 0c-0,-0 -0,-0 0,-0 0,-0 0,-0 0,-0 0,-0 0,-0 0,-0 -0,0 -0,0 -0.01,0.01 -0,0 -0,0 -0,0zm-0.06 -0.07c0,-0 0,-0 0,-0 0,-0 0,-0 0,-0 -0,0 -0,0 -0.01,0.01 -0,0 -0,0 -0,0 -0,-0 -0,-0 0,-0zm0.03 -0.02c0,-0 0,-0 0,-0 0,0 0,0 0,0 -0,0 -0.01,0.01 -0.01,0.01 -0,0 -0.01,0 -0.01,0 -0,0 -0,0 -0.01,0 -0,0 -0,0 -0,0 0,-0 0.01,-0.01 0.01,-0.01 0,-0 0.01,-0 0.01,-0.01 0,-0 0.01,-0 0.01,-0.01 0,-0 0,-0 0,-0zm0.1 0.04l0 -0c0,0 0,0 0,0l-0 0zm0 0.01l0.01 -0.01c0,0 0,0 0,0l-0.02 0.01zm0.09 0.01l0.02 -0.06 0 0 -0.02 0.06 -0 -0zm-0.01 -0.03l-0.01 -0c0,-0 0,-0 0,-0l0.01 0zm0.01 0.03c-0,-0 -0,-0 -0,-0.01l0 0 0.02 -0.05c0,-0 0,-0 0,-0 0,-0 0,-0 0,-0l0 0 -0.02 0.06 -0 -0zm0.01 -0.05l-0.01 0.04 -0 -0 0.01 -0.04c0,-0 0,-0 0,-0zm-0.04 0.03l-0.01 0.02 -0 -0 0.01 -0.02 0.03 0.01 -0 0 -0.03 -0.01zm0.01 0.02c0,-0 0,-0 0,0 0,0 0,0 0,0 -0,0 -0,0 -0,-0 -0,-0 -0,-0 -0,-0zm0 0.01c0,-0 0,-0 0,-0 -0,-0 -0,-0.01 -0.01,-0.01 -0,0 -0,0 -0,0l-0 -0c0,-0 0,-0.01 0.01,-0.01 0,-0 0.01,0 0.01,0.01 0,0 0,0 -0,0l-0 -0zm-0.07 -0l0.03 -0.01 0.01 0.02 -0 0 -0.01 -0.02 -0.02 0.01 -0 -0zm0.02 0c-0,0 -0.01,0 -0.01,0.01 0,0 0,0 0,0l-0 0c-0,-0 -0,-0 -0,-0 -0,-0 0,-0.01 0.01,-0.01 0,-0 0.01,0 0.01,0l-0 0c-0,-0 -0,-0 -0.01,-0zm-0 0c0,-0 0,-0 0,-0 0,0 0,0 0,0 -0,0 -0,0 -0,0 -0,-0 -0,-0 -0,-0zm0.09 -0.07l-0 -0c-0,-0 -0,-0 -0,-0 0.01,-0.01 0.01,-0.02 0.01,-0.03 0,-0 0,-0 0,0 0,0 0,0 0,0l0 0 -0.01 0.03zm-0.11 0.07l-0.03 -0.05 0 0 0.03 0.04 -0 0zm-0.04 -0.04l0 -0 0.03 0.05 -0 0 -0.03 -0.05zm0.02 0.05l-0.03 -0.05 0 -0 0.03 0.05 -0 0zm-0.02 0.02c0,-0 0,-0 0,-0 0,0 0,0 0,0 -0,0 -0,0 -0,0 -0,-0 -0,-0 -0,-0zm-0.03 -0.03c0,-0 0.01,-0 0.01,-0.01 0,-0 0,-0 0,0 0,0 0,0 -0,0 -0.01,0 -0.01,0.01 -0.02,0.01 -0,0 -0,0 -0,0 0,-0 0.01,-0 0.01,-0.01zm-0.01 0c-0,0 -0,0 -0,0 -0,-0 -0,-0 0,-0 0,-0 0,-0 0,-0 0,-0 0,-0 0,-0 -0,0 -0,0 -0.01,0.01zm-0.01 -0.01c0,-0 0,-0 0,-0 0,-0 0,-0 0,-0 -0,0 -0,0 -0.01,0.01 -0,0 -0,0 -0,0 -0,-0 -0,-0 0,-0zm0.02 -0.02c0,-0 0,-0 0,-0 0,0 0,0 -0,0 -0.01,0 -0.01,0.01 -0.02,0.01 -0,0 -0,0 -0,0 0.01,-0.01 0.02,-0.01 0.02,-0.02zm-0.03 0.01c0,-0 0,-0 0,-0 0,-0 0,-0 0,-0 -0,0 -0,0 -0.01,0.01 -0,0 -0,0 -0,0 -0,-0 -0,-0 0,-0zm0.02 -0.02c0,-0 0,-0 0,-0 0,0 0,0 -0,0 -0.01,0 -0.01,0.01 -0.02,0.01 -0,0 -0,0 -0,0 0.01,-0 0.01,-0.01 0.02,-0.01zm-0.02 0.01c-0,0 -0,0 -0,0 -0,-0 -0,-0 0,-0 0,-0 0,-0 0,-0 0,-0 0,-0 0,-0 -0,0 -0,0 -0.01,0zm0.02 -0.02c0,-0 0,-0 0,-0 0,0 0,0 -0,0 -0.01,0 -0.01,0.01 -0.02,0.01 -0,0 -0,0 -0,0 0.01,-0 0.02,-0.01 0.02,-0.02zm-0.03 0.01c0,-0 0,-0 0,-0 0,-0 0,-0 0,-0 -0,0 -0,0 -0,0 -0,0 -0,0 -0,0 -0,-0 -0,-0 0,-0zm0.02 -0.02c0,-0 0,-0 0,-0 0,0 0,0 -0,0 -0.01,0 -0.01,0.01 -0.02,0.01 -0,0 -0,0 -0,0 0.01,-0 0.01,-0.01 0.02,-0.02zm-0.03 0.01c-0,-0 -0,-0 0,-0 0,-0 0,-0 0,-0 0,-0 0,-0 0,-0 -0,0 -0,0 -0.01,0 -0,0 -0,0 -0,0zm-0.01 -0.02c0,-0 0,-0 0,-0 0,-0 0,-0 0,-0 -0,0 -0,0 -0.01,0.01 -0,0 -0,0 -0,0 -0,-0 -0,-0 0,-0zm0.03 -0.02c0,-0 0,-0 0,-0 0,0 0,0 0,0 -0.01,0 -0.02,0.01 -0.03,0.02 -0,0 -0,0 -0,0 0.01,-0.01 0.02,-0.01 0.03,-0.02 0,-0 0,-0 0,-0zm0.01 0.01c-0,0 -0.01,0 -0.01,0.01 -0.01,0 -0.01,0.01 -0.02,0.01 -0,0 -0,0 -0,0 0,-0 0.01,-0 0.01,-0.01 0.01,-0 0.01,-0.01 0.02,-0.01 0,-0 0,-0 0,-0 0,-0 0,-0 0,-0 0,0 0,0 0,0zm-0.03 0.02c-0,0 -0,0 -0,0 -0,-0 -0,-0 0,-0 0,-0 0,-0 0,-0 0,-0 0,-0 0,-0 -0,0 -0,0 -0.01,0zm0.02 -0.01c0,-0 0,-0 0,-0 0,0 0,0 -0,0 -0.01,0 -0.01,0.01 -0.02,0.01 -0,0 -0,0 -0,0 0.01,-0.01 0.01,-0.01 0.02,-0.02zm0.02 -0.02l-0 0c-0,-0 -0,-0 -0,-0l-0.01 -0.01c0,0 0,0 0,0l0.01 0 0.01 0.01zm0 -0l-0 0 -0 -0.01 0 0 0 0zm0.05 0.08c-0,0 -0,-0 -0,-0l0 0 -0.03 -0.04 0 0c-0,-0 -0,-0 0,-0l0 -0 0.03 0.05 -0 0zm-0.04 -0.02c0,-0 0,0 0,0 -0,0 -0.01,0 -0.01,0 -0,0 -0.01,0 -0.01,0.01 -0,0 -0,0 -0,0 0,-0 0.01,-0 0.01,-0.01 0,-0 0.01,-0.01 0.01,-0.01 0,-0 0,-0 0,-0zm-0.02 -0.05l-0.03 -0.03 0 -0 0.03 0.03 -0 0zm0.03 0.02l-0.02 -0.02 0 -0 0.02 0.02 -0 0zm-0 0c-0,0 -0,0 -0,-0l-0.01 -0.02c-0,-0 0,-0 0,-0l0 -0 0.02 0.02 -0 0zm-0.03 -0.02l0 -0 0.02 0.03 -0 0 -0.02 -0.03zm0.06 0.07l-0.03 -0.05 0 -0 0.03 0.05 -0 0zm0.02 -0.01l-0 0c-0,0 -0,-0 -0,-0l0 0 -0.03 -0.04 0 0c-0,-0 -0,-0 -0,-0l0 -0 0 0 0.03 0.05zm-0.05 -0.06l0.01 0.01 -0 0 -0.01 -0.01 0 0zm0.02 0.08l0 0.01 -0 0c-0,-0 -0,-0 -0.01,-0 -0,0 -0.01,0 -0.01,0.01 0,0 0,0 0,0l-0 0c-0,-0 -0,-0 -0,-0 -0,-0 0,-0.01 0,-0.01 -0,-0 -0,-0 -0,-0 -0,-0 0,-0.01 0,-0.01l-0.01 0.01 0.01 0.02 -0 0 -0.01 -0.02 0.02 -0.01 0.01 0.01 -0 0c-0,0 -0,0 -0,0zm0.15 -0.09l-0 -0 0.01 -0.03 0 0 -0.01 0.03zm0.01 -0.08c0,-0 0,-0 0,-0l0 0 -0.01 0.04c0,-0 0,-0.01 0,-0.01l0.01 -0.02zm-0.05 0.16c-0,-0 -0,-0 -0,-0 0,-0.01 0.01,-0.02 0.01,-0.02 0,-0 0,-0 0.01,-0l0.01 0c0,0 0,0 0,0.01 -0,0 -0,0.01 -0.01,0.02 -0.01,-0 -0.01,-0 -0.02,-0.01l0 -0.02 -0.01 0.02zm-0.23 -0.07c-0,-0 -0,-0 0,-0 0,-0 0,-0 0,-0 0,-0 0,-0 0,-0 -0,0 -0,0 -0.01,0.01 -0,0 -0,0 -0,0zm-0.09 0.16c0,0 -0,0 -0.01,0 -0,0 -0.01,-0 -0.01,-0 -0,-0 0,-0 0.01,-0 0,-0 0.01,0 0.01,0zm0.09 -0.07c-0.01,0 -0.02,0 -0.03,0 -0.04,0.01 -0.08,0.01 -0.12,0.01 0.01,0 0.02,0 0.03,0 0.02,0 0.04,-0 0.06,-0 0.01,-0 0.02,-0 0.03,-0 0.01,-0 0.01,-0 0.01,0 0,0.01 0.01,0.03 0,0.04 -0.01,0.01 -0.02,0.01 -0.03,0.01 0,0 0,0 0,0 0,0 -0.01,0.01 -0.02,0.01 -0.01,0 -0.02,-0 -0.02,-0 -0,-0 0,-0 0,-0 -0,0 -0.01,0 -0.01,0l-0 0c-0.03,0 -0.04,-0 -0.05,-0.01 -0,-0 -0,-0 -0,-0 0,0.01 0,0.02 0.01,0.02 0.01,0.01 0.02,0.01 0.05,0.01l0 -0c0.01,-0 0.03,-0 0.04,-0 0,-0 0,-0 0.01,-0 0.01,-0 0.02,-0 0.03,-0.01 0,0 0,0 0,0 0,0 0,0 0,0 -0.01,0 -0.02,0 -0.03,0.01 -0,0 -0,0 -0.01,0 -0.01,0 -0.03,0 -0.04,0l-0 0c-0.03,0 -0.05,0 -0.06,-0.01 -0.01,-0.01 -0.01,-0.04 -0.01,-0.06 0.02,-0 0.06,-0 0.1,-0.01 0.03,-0 0.05,-0.01 0.06,-0.01 -0,0 -0,0 -0,0 -0,0 -0.01,0 -0.01,0zm0.08 0.07l0 0 -0.02 0 -0 -0 0.02 -0zm-0 -0.03l-0.02 0 -0 -0 0.02 -0 0 0zm-0.02 0.01l0.02 -0 0 0.01 -0.02 0 -0 -0.01zm0.13 -0.07c-0,-0 -0,-0.01 -0,-0.01 0,-0 0,-0 0,-0l-0.01 -0 -0.02 0.01 0 0.01c-0,0 -0,0 -0,0l-0.01 -0.01 -0 0 -0 -0 0.02 -0.01 0 0 -0 -0 0.03 0.01 -0 0 -0.01 -0 -0 0.02c-0,0 -0,0 -0,0 -0,-0 -0,-0 -0,-0zm0.08 -0c0,-0 0,-0 0,0 0,0 0,0 0,0 -0,0 -0,0 -0,-0 -0,-0 -0,-0 -0,-0zm-0.12 -0.21c0.05,-0.01 0.09,0.03 0.1,0.07 0.01,0.05 -0.03,0.09 -0.07,0.09 -0.02,0 -0.03,-0 -0.04,-0.01l-0 -0c-0,-0 -0.01,-0 -0.01,-0.01l-0.06 -0.03c-0.01,-0 -0.02,-0.01 -0.02,-0.02 -0,-0.01 0,-0.02 0.01,-0.03l0.05 -0.04 0 -0c0,-0 0.01,-0 0.01,-0.01 0.01,-0.01 0.03,-0.01 0.04,-0.02zm-0.17 0.17c-0,0 -0,-0 -0.01,-0.01 -0,-0.01 -0.01,-0.01 -0.02,-0.01 -0.01,-0 -0.01,-0 -0.02,-0 -0.01,0 -0.02,0 -0.02,-0 -0,-0 0,-0 0,-0 0,-0 0.02,-0 0.03,-0 0.01,0 0.02,0 0.03,0.02 0,0 0,0.01 -0,0.01zm0.1 0.16c0,0 0,0 0,0 0,0 0,0.01 -0,0.01 -0,-0.01 -0,-0.02 -0,-0.02 -0,-0.01 -0,-0.02 -0,-0.03 -0,-0 -0,-0.01 0,-0.01 0,0.01 0,0.01 0,0.02 0,0 0,0.01 0,0.01 -0,0 0,0.01 0,0.01 0,0 0,0 0,0zm0.02 -0.08c-0,-0 -0,-0 -0,-0 -0,-0.01 0,-0.01 0,-0.01l-0.01 0.01 0.01 0.02c-0,0 -0,0 -0,0l-0.01 -0.02 0.02 -0.01 0.01 0.01c-0,0 -0.01,0.01 -0.01,0.01zm0.03 -0.03c-0,0 -0,0 -0,0 -0,-0.01 -0.01,-0.01 -0.01,-0.01 -0,-0 -0,-0.01 0,-0.01l0.01 -0.01c0,-0 0,-0 0,0 0,0 0,0.01 0.01,0.01 -0.01,0 -0.01,0 -0.01,0.01l-0.01 -0.01 0.01 0.01zm0.15 -0.09l-0 -0 0.01 -0.03 0 0 -0.01 0.03zm0.08 -0.13c0,-0 0,-0 0,0 0,0 0,0 0,0 -0,0 -0,0 -0,-0 -0,-0 -0,-0 -0,-0zm-0.31 0c0,-0 0,-0 0,-0 0,-0 0,0 0,0 -0,0 -0,0 -0,0 -0,0 -0,-0 -0,-0zm-0 0c-0,-0 -0,-0 0,-0 0,-0 0,-0 0,-0 0,-0 0,-0 0,-0 0,0 -0,0 -0,0 -0,0 -0,0 -0,0 0,0 0,0 0,0 0,0 0,0 0,0 0,0 0,0 0,0l-0 0c-0,-0 -0,-0 -0,-0zm-0.04 0.02c0,-0 0,-0 0,-0 0,-0 0,0 0,0 -0,0 -0,0 -0,0 -0,0 -0,-0 -0,-0zm-0 0c-0,-0 -0,-0 0,-0 0,-0 0,-0 0,-0 0,-0 0,-0 0,-0 0,0 -0,0 -0,0 -0,0 -0,0 -0,0 0,0 0,0 0,0 0,0 0,0 0,0l-0 0c-0,-0 -0,-0 -0,-0zm-0.05 0.03c-0,-0 0,-0 0,-0.01 0,-0 0,-0 0.01,-0 0,-0 0,0 0.01,0 0,0 0,0 0,0l-0 0c-0,-0 -0,-0 -0,-0 -0,-0 -0,-0 -0,-0 -0,0 -0,0 -0,0 -0,0 -0,0 -0,0 0,0 0,0 0,0l-0 0c-0,-0 -0,-0 -0,-0zm-0.12 0.09c0.01,-0.01 0.03,-0.02 0.05,-0.02 0,-0 0,-0 0.01,-0 0.02,-0 0.05,-0 0.06,-0 0,0 0,0 0,0 0,0 0,0 0,0 0,0 0,0 0,0 -0.02,-0 -0.05,-0 -0.07,-0 -0,0 -0,0 -0.01,0 -0.01,0 -0.03,0 -0.04,0.01 -0,0 -0.01,0 -0.01,0.01 0,-0 -0,-0 -0,-0.01zm-0.16 0.17c-0,-0.01 -0,-0.01 -0,-0.02 0,-0 0,-0 0,-0 0,0.01 0,0.01 0,0.02 0,0 0,0 0,0 -0,-0 -0,-0 -0,-0zm-0.05 -0.05l0.02 -0c0,-0 0,-0 0.01,0 -0,0 -0,0 -0,0 -0,-0 -0,-0 -0,-0l-0.01 0c0,0 0.01,0.01 0.01,0.01 -0,0 -0,0 -0,0 -0,0.01 0,0.01 0.01,0.02 0,0 0,0 0,0 0,0 0.01,0.01 0.01,0.02 -0,0 -0.01,0 -0.01,0 -0,-0.02 -0.01,-0.04 -0.03,-0.05zm0.06 0.09c-0,-0 -0,-0 -0,-0 -0,-0 -0,-0 -0,-0 -0,-0 -0,-0 -0,-0 -0,-0 0,-0 0,-0 0,-0 0,-0 0,-0 0,-0 0,-0 0,-0 0,-0 0,-0 0,-0 0,-0 0,-0 0,-0 0,-0 0,-0 0,-0 0,-0 0,-0 0,-0 0,-0 0,-0 0,-0 0,-0 0,-0 0,-0 0,-0 0,-0 0,-0 0,-0 0,-0 0,-0 0,-0 0,-0 0,-0 0,-0 0,-0 0,-0 0,-0 0,-0 0,-0 0,-0 0,-0 0,-0 0,-0 0,-0 0,-0 0,-0 0,-0 0,-0 0,-0 0,-0 0,-0 0,-0 0,-0 0,-0 0,-0 0,-0 0,-0 0,-0 0,-0 0,-0 0,-0 0,-0 0,-0 0,-0 0,-0 0,-0 0,-0 0,-0 0,-0 0,-0 0,-0 0,-0 0,-0 0,-0 0,-0 0,-0 0,-0 0,-0 0,-0 0,-0 0,-0l0.27 -0.01c0.01,-0 0.03,-0.01 0.02,-0.03 -0,-0 -0,-0 -0,-0 0,-0 0,-0 0,-0 0,0 0,0 0,0.01 0,0.01 -0,0.02 -0.01,0.03 0,-0 -0,-0 0,-0 -0,0 -0,0 -0,0 -0,0 -0,0 -0,0 -0,0 -0,0 -0,0 -0,0 -0,0 -0,0 -0,0 -0,0 -0,0 -0,0 -0,0 -0,0 -0,0 -0,0 -0,0 -0,0 -0,0 -0,0 -0,0 -0,0 -0,0 -0,0 -0,0 -0,0 -0,0 -0,0 -0.01,0l-0.08 0c-0,0 -0,0 -0,0l0.08 -0c0.01,-0 0.02,-0 0.03,-0.01 0,-0 0,-0 0.01,-0 0,-0 0,0 0.01,0 0,0 0,0 0,0.01 0,-0 -0,-0.01 -0,-0.01 -0,-0.01 -0,-0.01 -0,-0.01 0,0 0,0 0,0 0,-0.01 0,-0.01 0,-0.02 -0,-0.03 0,-0.06 0.02,-0.08 0.01,0 0.02,0.01 0.02,0.02 -0.01,0.01 -0.01,0.03 -0.01,0.06 0,-0 0,-0 0,-0 -0,-0.03 0,-0.05 0.01,-0.06 0,0 0,0.01 -0,0.01 -0,0.01 -0.01,0.03 -0,0.05 0,0.02 -0,0.04 -0.01,0.05 -0.01,0.01 -0.03,0.02 -0.04,0.03l0 0 -0.27 0.01 0 -0 -0.01 0c-0.01,0 -0.01,-0.01 -0.01,-0.02zm0.63 -0.26c-0.01,-0 -0.01,-0 -0.02,-0 -0,-0 -0,-0 -0,-0 -0,-0 -0,-0 -0,-0 -0,-0 0,-0 0,-0 0,0 0.01,0 0.01,0 0.01,0 0.01,0 0.02,0.01 0,0 0,0 0,0 -0,-0 -0.01,-0 -0.01,-0zm0.01 0.01c-0.01,-0 -0.02,-0 -0.03,-0.01 -0,-0 -0,-0 -0,-0 -0,-0 0,-0 0,-0 0.01,0 0.02,0.01 0.02,0.01 0,0 0,0 0,0zm-0 -0.01c-0,-0 -0,-0 -0,-0 0,0 0.01,0 0.01,0 0,0 0,0 0,0 0,0 -0,0 -0,0 -0,-0 -0,-0 -0,-0zm0.04 -0c0,-0 0,-0.01 0,-0.01 0,0 0,0 0,0.01 0,0 0,0 -0,0.01 -0,0 -0,0 -0,0.01 -0,0 -0,0 -0,0.01 -0,0 -0,0 -0,0.01 -0,0 -0,0.01 -0,0.01 0,0 -0,-0 -0,-0.01 -0,-0 -0,-0 0,-0.01 0,-0 0,-0 0,-0.01 0,-0 0,-0 0,-0.01 0,-0 0,-0 0,-0.01zm-0.57 0.02c0,-0 0,-0 0.01,0 0,0 0,0 0,0 0,0 0.01,0 0.01,0.01 0.01,0.01 0.01,0.03 -0,0.03 -0,0 -0.01,0 -0.01,0 -0.01,0 -0.02,-0 -0.02,-0.01 -0,-0.01 -0.01,-0.01 -0.01,-0.02 0,-0.01 0,-0.01 0.01,-0.01 0,-0 0.01,-0 0.01,-0zm-0.12 0.32c-0.02,0 -0.04,-0.01 -0.06,-0.03l0.04 -0c0,0 0,0 0,-0 0,-0 0,-0 0,-0 -0,0 -0,0 -0,0.01 0,0 0,0.01 0.01,0.01 0,-0 0.01,-0 0.01,-0.01 -0,-0 -0,-0.01 -0.01,-0.01 0.01,-0.01 0.01,-0.01 0.02,-0.02l0.01 -0c-0,0 0,0 0,0.01 0,0 0,0 0.01,0 0,-0 0,-0 0,-0 0,-0 0,-0 0,-0.01l0.01 -0c-0.01,0.01 -0.02,0.02 -0.02,0.04 -0.01,0.01 -0.02,0.01 -0.03,0.01zm0.07 0.04l0 -0c-0,0.01 -0,0.02 -0,0.02 -0,0.01 -0,0.01 -0,0.01 0,0 0,-0 0,-0.01 0,-0 0,-0.01 0,-0.02 0,0 0,0 0,0zm0.03 0c-0,0 -0,0 -0,0 -0,-0 -0,-0 -0,-0l0 -0c0,0 0,0 0,0zm-0.16 -0.06c0,0 0,0 0,0 0,0 0,0 0.01,0.01 0,0 0,0 0,0 -0,0 -0,0 -0,0 -0,0 -0,0 -0,0 -0,0 -0,0 0,0 0,0 0,0 0,0l0 0 0 0 0 0 0 0c0,0 0,0 0,0 0,0 0,0 0,0 0,0.01 0.01,0.02 0.01,0.03 -0,-0 -0,-0 -0,-0.01 -0.01,-0.01 -0.02,-0.03 -0.03,-0.04 0,0 0,0 0,0zm-0.01 -0.01c0,0 0,0 0,0 -0,0 -0,0 -0,0 -0,-0 -0,-0 -0,-0.01zm0.1 0.05c0,-0 0,-0.01 0,-0.01 0,0 0,0 0,0 -0,0 -0,0.01 -0,0.01l-0 -0zm-0.04 0.01l0 0c-0,-0 -0,-0 -0,-0 -0,-0.01 -0.01,-0.01 -0.01,-0.02 0,0 0,0 0.01,0 0,0.01 0.01,0.01 0.01,0.02zm0 -0.01c0,0.01 0,0.02 0,0.02 0,0 0,0.01 0,0.01 0,0 -0,-0 -0,-0.01 -0,-0 -0,-0.01 -0,-0.02 -0,-0 -0,-0 -0,-0 0,0 0,0 0,0 0,0 0,0 0,0zm0.02 0.02c-0,-0 -0,-0 -0,-0.01 -0,-0 -0.01,-0.01 -0.01,-0.01 0,-0 0,-0 0,-0 0,0.01 0.01,0.01 0.01,0.02zm0 -0.01c-0,-0 -0,-0.01 -0.01,-0.01 0,-0 0,-0 0,-0l0 0.01zm-0.01 0.04c0,-0 0,-0 0,-0 0,0.01 0.01,0.01 0.01,0.01 -0,0 -0.01,0.01 -0.01,0 -0,-0 -0,-0 -0,-0 -0,-0 -0,-0 -0,-0zm-0.01 -0.03c-0,-0 -0,-0 -0,-0l-0 -0.01c0,0.01 0.01,0.01 0.01,0.02 -0,-0 -0,-0 -0,-0.01zm0.02 0.02c-0,0 -0,0.01 -0,0.01 0,0 0,-0 0,-0.01 0,-0 0,-0.01 0.01,-0.02l0 0c-0,0.01 -0,0.01 -0.01,0.02zm-0.03 -0.01c0,0.01 0.01,0.01 0.01,0.01 -0,0 -0.01,0 -0.01,0 -0,-0 -0,-0.01 -0,-0.01zm0.03 -0.03c0.01,0.01 0.01,0.02 0.01,0.03 0,0.01 0.01,0.02 0.01,0.02 0,0.01 0,0.01 0,0.01 0,0 -0,-0 -0,-0.01 -0,-0 -0.01,-0.01 -0.01,-0.02 -0,-0.01 -0.01,-0.02 -0.01,-0.03 -0,-0 -0,-0 -0,-0 0,-0 0,-0 0,-0 0,0 0,0 0,0zm0 -0.01c0,-0 0,-0 0,-0 0,0 0,0 0,0.01l-0 0c-0,-0 -0,-0.01 -0.01,-0.01zm-0.06 0c0,-0 0,-0 0,-0l0 -0c0,0 0,0 0,0 0,0.01 0.01,0.02 0.01,0.03 -0,-0 -0,-0 -0,-0.01 -0.01,-0.01 -0.01,-0.02 -0.02,-0.02zm-0 -0c0,0 0,0 0,0 -0,0 -0,0 -0,0 0,0 0,-0 0,-0zm0.13 0.06c-0,-0 -0.01,-0 -0.01,-0l0 -0c0,0 0.01,0 0.01,0.01zm-0.03 0.02c0,0 0,0 0,0 -0,0 -0,0 -0,0 -0,-0 -0,-0 -0,-0zm-0.01 -0c-0,0 -0,0 0,0 0,0 -0,0 -0,0 -0,0 -0,0 -0,0 -0,0 -0,0 -0.01,0 -0,-0 -0,-0 -0,-0 -0,-0 -0,-0 -0,-0 0,0 0,0 0.01,0 0,0 0,0 0,0 0,0 0,0 0,-0 -0,0 -0,-0 0,-0zm0.01 -0.03c0,0 0,0 0,0l-0 0c-0.01,-0 -0.01,-0.01 -0.02,-0.02 -0,-0 -0.01,-0.01 -0.01,-0.01 -0,-0 -0,-0 -0,-0l0 -0c0.01,0.01 0.02,0.02 0.03,0.02zm0.58 -0.36c-0.01,-0 -0.02,-0 -0.03,-0.01 -0,-0 -0,-0 -0,-0 -0,-0 0,-0 0,-0 0.01,0 0.02,0.01 0.03,0.01 0,0 0,0 0,0 -0,0 -0,0 -0,0zm0.01 -0c-0,-0 -0,-0 -0,-0 -0,-0 -0,-0 -0,-0 0,0 0.01,0 0.01,0 0,0 0,0 0,0 -0,0 -0,0 -0,0zm0.01 0.08l0 -0.02c0,0 0,-0 0,-0l0 -0.04c0,0 0,0 0,0l-0.01 0.06 -0 -0zm0.02 0.03l0.01 -0.05c-0,-0 -0,-0 -0,-0l-0.01 0.05 -0.01 -0.01 0.01 -0.07c0,0 0,0 0.01,0l-0 0c0,0 0,0 0,0l0 -0c0,-0 0,-0 0,-0l-0.01 0.09 -0 -0zm0.07 -0.15c-0.01,-0 -0.02,0 -0.02,0.01l0.01 0c-0.01,0.01 -0.01,0.02 -0.01,0.03 -0,0 0,0.01 0,0.01l-0.01 -0c0,0 0,0.01 0,0.01l0.01 0c0,0 0,0 0,0.01l-0.01 -0c0.01,0.01 0.02,0.02 0.03,0.02 0,0 0,0 0.01,0l-0.01 -0c-0.01,-0 -0.02,-0.01 -0.03,-0.01 -0.01,-0.01 -0.01,-0.02 -0.01,-0.04 0,-0.02 0.02,-0.04 0.04,-0.05 0,-0 0,-0 0,-0l0.01 0c-0,0 -0,0 -0.01,0zm0.05 -0l0.01 -0.09 0 0 -0.01 0.09c-0,-0 -0,-0 -0,-0zm0.18 -0.26c-0,-0 -0.01,-0 -0.01,-0 -0,0 -0,0 -0,0 0,-0 0.01,0 0.01,0l0.01 0.01c-0.01,0 -0.01,0.01 -0.02,0.02l-0.01 -0.02c-0,-0 -0,-0 -0,-0 -0.01,0.01 -0.01,0.01 -0.01,0.02l0.01 0.01c-0,0 -0,0 -0,0l-0.01 -0.01c-0,-0.01 0,-0.02 0.01,-0.03 0,-0 0.01,-0 0.01,-0.01 0.01,-0 0.01,0 0.02,0.01l0.01 0.01c-0,0 -0,0 -0,0l-0.01 -0.01zm-0.27 0.03l0 0 -0.03 0.24c-0,-0 -0,-0 -0,-0l0.03 -0.24zm-0.73 0.55c-0,-0 -0,-0 -0,-0 -0,-0 -0,-0 -0,-0 -0,-0 -0,-0 -0,-0 -0,-0 -0,-0 -0,-0 -0,-0 -0,-0 -0,-0 -0,-0 -0,-0 -0,-0 -0,-0 -0,-0 -0,-0 -0,-0 -0,-0 -0,-0 -0,-0 -0,-0 -0,-0 -0,-0 -0,-0 -0,-0 -0,-0 -0,-0 -0,-0 -0,-0 -0,-0 -0,-0 -0,-0 -0,-0 -0,-0 -0,-0 -0,-0 -0,-0 -0,-0 -0,-0 -0,-0 -0,-0 -0,-0 -0,-0 -0,-0.02 0.01,-0.04 0.02,-0.04 0,-0 0.02,0.01 0.02,0.01 -0.01,0 -0.01,0.02 -0.01,0.03 0,0.01 0.01,0.02 0.01,0.03 -0.01,0.01 -0.02,0.02 -0.02,0.02 -0,0 -0,0 -0,0 -0,-0 -0,-0 -0,-0 -0,-0 -0,-0 -0,-0 -0,-0 -0,-0 -0,-0 -0,-0 -0,-0 -0,-0 -0,-0 -0,-0 -0,-0 -0,-0 -0,-0 -0,-0 -0,-0 -0,-0 -0,-0 -0,-0 -0,-0 -0,-0 -0,-0 -0,-0 -0,-0 -0,-0 -0,-0 -0,-0 -0,-0 -0,-0 -0,-0 -0,-0 -0,-0 -0,-0zm0.62 -0.74c-0,-0.01 0.01,-0.03 0.03,-0.04l0.15 -0.02c-0,0 -0,0 -0,0 -0,0 -0,0 -0.01,0 -0.01,0 -0.01,0 -0.02,0 -0.01,0 -0.01,0 -0.02,0 -0.01,0 -0.01,0 -0.02,0 -0.01,0 -0.01,0 -0.02,0 -0.01,0 -0.02,0 -0.03,0 -0.01,0 -0.01,0 -0.02,0 -0,0 -0.01,0 -0.01,0 0,0 0,-0 0.01,-0 0,-0 0.01,-0 0.02,-0 0.01,-0 0.02,-0 0.03,-0 0.01,-0 0.01,-0 0.02,-0 0.01,-0 0.01,-0 0.02,-0 0.01,-0 0.01,-0 0.02,-0 0.01,-0 0.01,-0 0.02,-0 0,-0 0,-0 0,-0 -0.01,0.01 -0.01,0.02 -0.02,0.02l-0.11 0.01c-0.02,0 -0.04,0.02 -0.04,0.04l-0.01 -0.01c-0,-0 -0,-0 -0,-0 -0,-0 -0,-0.01 -0.01,-0.02zm0.02 0.15c0.01,0.02 0.01,0.03 0.01,0.05 -0,0.02 -0.01,0.03 -0.03,0.05 -0.01,0.01 -0.03,0.02 -0.05,0.03 -0.02,0.01 -0.04,0.01 -0.06,0.01 -0.02,0 -0.04,0 -0.06,0 0.04,-0.01 0.07,-0.01 0.11,-0.02 0.01,-0 0.03,-0.01 0.04,-0.02 0.02,-0.01 0.03,-0.02 0.04,-0.04 0,-0.01 0.01,-0.02 0.01,-0.03 0,-0.01 -0,-0.02 -0,-0.03zm-0.35 0.12c-0.02,0 -0.03,0.01 -0.05,0.01 -0.02,0 -0.04,0.01 -0.06,0.01 -0.01,0 -0.01,0 -0.02,0 0.02,-0 0.03,-0.01 0.05,-0.01 0.02,-0 0.04,-0.01 0.07,-0.01 0.01,-0 0.01,-0 0.02,-0zm-0.22 -0.01c-0.01,0 -0.02,0 -0.02,0 0.02,-0 0.04,-0.01 0.06,-0.01 0.02,-0 0.05,-0.01 0.07,-0.01 0.01,-0 0.02,-0 0.02,-0 -0.02,0 -0.04,0.01 -0.05,0.01 -0.02,0 -0.05,0.01 -0.07,0.01zm0.09 0c0.02,-0 0.04,-0.01 0.06,-0.01 0.01,-0 0.01,-0 0.02,-0 -0.02,0 -0.03,0.01 -0.05,0.01 -0.02,0 -0.04,0.01 -0.06,0.01 -0.01,0 -0.01,0 -0.02,0 0.02,-0 0.03,-0.01 0.05,-0.01zm-0.01 0.08c-0,-0.01 -0.01,-0.01 -0.01,-0.02 0.01,0.01 0.02,0.02 0.02,0.03 -0,-0.01 -0,-0.01 -0.01,-0.02zm0.01 0.03c0,0 0,0.01 0,0.01 -0,-0 -0,-0.01 -0,-0.01zm0.12 -0.08c-0.02,0 -0.04,0.01 -0.06,0.01 -0.01,0 -0.01,0 -0.02,0 0.02,-0 0.03,-0.01 0.05,-0.01 0.02,-0 0.04,-0.01 0.06,-0.01 0,-0 0.01,-0 0.01,-0 0,0 0,0 0,0 -0.01,0 -0.03,0.01 -0.04,0.01zm-0.2 0.07c0.02,0.01 0.04,0.03 0.05,0.05 -0.01,-0.02 -0.02,-0.03 -0.04,-0.04 -0.02,-0.01 -0.03,-0.02 -0.05,-0.02 -0.01,-0 -0.02,-0 -0.03,-0 -0.01,0 -0.02,0 -0.03,0.01 -0.02,0.01 -0.04,0.02 -0.06,0.04 -0.02,0.02 -0.03,0.03 -0.04,0.06 0.01,-0.04 0.05,-0.08 0.08,-0.09 0.02,-0.01 0.05,-0.01 0.07,-0.01 0.02,0 0.04,0.01 0.06,0.02zm0.06 0.49c-0.02,0.03 -0.05,0.04 -0.08,0.05 -0.04,0.01 -0.08,-0.02 -0.12,-0.06 -0.02,-0.02 -0.03,-0.05 -0.05,-0.08l0.01 -0c0.01,0.03 0.03,0.06 0.04,0.08 0.03,0.04 0.07,0.06 0.11,0.06 0.03,-0 0.05,-0.02 0.07,-0.04 0.01,-0.01 0.01,-0.01 0.02,-0.02l0.01 -0c-0.01,0.01 -0.01,0.02 -0.02,0.03zm0.63 -0.28c-0,-0 -0.01,-0.01 -0.01,-0.01 -0.01,0 -0.01,0 -0.01,0.01 -0,-0.01 0,-0.01 0.01,-0.01 0.01,-0 0.01,0.01 0.01,0.01zm-0 -0.02c-0.01,0 -0.03,0.01 -0.04,0.01 -0,0 -0.01,0 -0.01,0 0.01,-0 0.02,-0.01 0.03,-0.01 0.01,-0 0.03,-0.01 0.04,-0.01 0,-0 0.01,-0 0.01,-0 -0.01,0 -0.02,0.01 -0.03,0.01zm0.59 0.26c-0,0 -0,0 -0,0l-0.02 0.03c-0,0 -0,0 -0,0 -0,0 -0,0 -0,0 -0,0 -0,0 -0,0l-0 0c-0.04,0.06 -0.09,0.09 -0.15,0.1 -0.07,0.01 -0.14,-0.02 -0.19,-0.09 -0.05,-0.06 -0.09,-0.15 -0.1,-0.24 -0.01,-0.06 -0,-0.11 0.01,-0.17l0.01 0.01c-0.01,0.05 -0.01,0.1 -0.01,0.15 0.01,0.09 0.05,0.18 0.1,0.24 0.05,0.06 0.12,0.09 0.18,0.08 0.05,-0.01 0.1,-0.04 0.14,-0.09l0 -0c0,-0 0,-0 0,-0l0.02 -0.03c0.03,-0.07 0.05,-0.16 0.04,-0.25 -0.01,-0.11 -0.06,-0.2 -0.12,-0.26l-0 -0 -0 -0c-0.05,-0.04 -0.1,-0.07 -0.16,-0.06 -0.06,0.01 -0.12,0.05 -0.16,0.12 -0,0 -0,0 -0,0l-0.01 -0.01c0.04,-0.07 0.1,-0.12 0.16,-0.12 0.06,-0.01 0.12,0.01 0.17,0.06 0,0 0,0 0,0l0 0c0.07,0.06 0.11,0.16 0.12,0.27 0.01,0.09 -0,0.18 -0.04,0.25zm-0.17 -0.69c-0.02,0.01 -0.04,0.02 -0.05,0.04 -0.01,0.02 -0.02,0.03 -0.05,0.04 -0.06,0.02 -0.11,0.06 -0.15,0.12 -0,0.01 -0.01,0.01 -0.01,0.02l-0 -0c0,-0.01 0.01,-0.01 0.01,-0.01 0.04,-0.06 0.09,-0.11 0.15,-0.12 0.01,-0 0.02,-0.01 0.02,-0.01 0.02,-0.02 0.01,-0.03 -0.01,-0.02 -0,0 -0,0 -0,0 -0,0 -0.01,0 -0.01,0 -0.03,0.01 -0.05,0.02 -0.07,0.04 -0.01,0.01 -0.02,0.02 -0.03,0.02 0.01,-0.02 0.03,-0.03 0.05,-0.05 0.01,-0.01 0.02,-0.01 0.03,-0.02 -0.06,0.02 -0.1,0.07 -0.14,0.13 -0,0.01 -0.01,0.01 -0.01,0.02l-0 -0c0.01,-0.01 0.01,-0.03 0.02,-0.04 0.04,-0.07 0.11,-0.12 0.17,-0.14 -0.07,0.02 -0.13,0.07 -0.17,0.14 -0.01,0.01 -0.01,0.02 -0.02,0.04 -0,-0 -0,-0 -0,-0 0.01,-0.01 0.01,-0.02 0.02,-0.03 0.05,-0.09 0.13,-0.14 0.21,-0.15 0.02,-0 0.04,-0 0.06,-0zm-0.18 0.01c-0,-0 -0.01,-0 -0.02,-0l-0.21 0.03c-0.02,0 -0.03,0.02 -0.03,0.03l-0.01 -0.01c-0,-0 -0,-0 -0,-0 -0,-0 -0,-0.01 -0.01,-0.01 -0,-0.01 0.01,-0.03 0.03,-0.03l0.21 -0.03c0.01,-0 0.02,0 0.03,0.01 0,0 0,0 0,0l0.01 0.01zm0.02 -0.22c-0,0 -0,0 -0,0 -0,0 -0,-0 -0.01,-0 -0,0 -0,0 -0.01,0 -0.01,0 -0.02,0 -0.03,0 -0.01,0 -0.02,0 -0.03,0 -0,0 -0.01,0 -0.01,0l-0 -0c0.01,-0 0.01,-0 0.01,-0 -0,0 -0.01,0 -0.01,0l-0 -0.01c0,-0 -0,-0 -0,-0 0,0 0,0 0,0 0,0 0.01,0 0.01,0 0.01,0 0.02,0 0.03,0 0.01,-0 0.02,-0 0.03,-0 0,-0 0.01,-0 0.01,-0 0,-0 0,0 0,0 -0,0 -0,0 -0,0 0,0 0,0 0,0zm-0.74 -0.08l-0 -0.02c-0,-0.01 0,-0.02 0.01,-0.02l0.09 -0.04c0,-0 0.01,-0 0.01,-0 0.02,-0 0.03,0.01 0.04,0.03l0 0.03c0,0 0,0 0,0l-0 -0c-0,-0 -0,-0 -0,-0l-0 -0.02c0,0.01 -0,0.01 -0,0.01l-0.02 -0.01c-0,-0 -0.01,-0 -0.01,-0 -0,0 -0.01,0 -0.01,0 -0,0 -0,0.01 0,0.02l0.01 0.01 -0.01 0c-0.01,-0 -0.01,-0 -0.01,-0.01 -0,-0.01 0,-0.01 0,-0.02 -0.01,0 -0.01,0.01 -0.01,0.02 0,0 -0.01,0.01 -0.01,0.01l-0.06 0.01c-0.01,0 -0.02,-0.01 -0.02,-0.02 0,0 0,0 0,0l0 0.02c0,0.01 0.01,0.02 0.02,0.02l0.1 -0.01c0,-0 0,-0 0,-0l0 0c-0,0 -0,0 -0.01,0l-0.1 0.01c-0.01,0 -0.02,-0.01 -0.03,-0.02zm0.2 0.14c0,-0 0,-0 0,-0 0,0 -0,0 -0,0 -0,0 -0,0 -0.01,0 -0,0 -0.01,0 -0.01,0 -0,0 -0.01,0 -0.01,0 -0,0 -0.01,0 -0.01,0 -0,0 -0.01,0 -0.01,0 -0,0 -0,0 -0.01,0 -0,0 -0,0 -0,0 0,0 0,-0 0,-0 0,-0 0,-0 0.01,-0 0,-0 0.01,-0 0.01,-0 0,-0 0.01,-0 0.01,-0 0,-0 0.01,-0 0.01,-0 0,-0 0.01,-0 0.01,-0 0,-0 0,-0 0.01,-0zm0.05 -0.01c-0.02,-0 -0.03,-0 -0.05,-0 0.03,-0 0.06,-0 0.09,0.01 0.01,0 0.01,0 0.02,0.01 0,0 0.01,0 0.01,0.01 0,0 0,0 0.01,0 -0,0 -0,0 -0,0 -0.02,-0.01 -0.05,-0.02 -0.07,-0.02zm-0.58 0.33c-0,-0.02 0.01,-0.05 0.04,-0.05 0.03,-0.01 0.11,-0.02 0.14,-0.02 0,-0 0,-0 0.01,-0 0.04,-0 0.07,0.01 0.1,0.02 0.02,0.01 0.04,0.02 0.07,0.02 -0,0 -0,0 -0,0 -0.03,-0 -0.05,-0.01 -0.07,-0.02 -0.03,-0.01 -0.06,-0.02 -0.1,-0.02 -0,0 -0,0 -0.01,0 -0.03,0 -0.11,0.01 -0.14,0.02 -0.03,0.01 -0.04,0.03 -0.04,0.04 0.01,-0 0.02,-0.01 0.03,-0.01 0.02,-0 0.04,-0 0.06,0 0.03,0 0.06,0.02 0.08,0.05 0.01,0.01 0.01,0.05 0.01,0.08 0,0.01 0,0.02 0,0.03 0,0 0,0 0.01,0.01 -0.01,-0 -0.01,-0.02 -0.01,-0.06 0,0.01 0,0.02 0,0.03 0,0.02 0.01,0.03 0.02,0.03 0.02,-0 0.05,-0.02 0.07,-0.05 0.02,-0.02 0.02,-0.04 0.03,-0.05 0.01,-0.01 0.02,-0.03 0.04,-0.05 -0.02,0 -0.03,0.01 -0.05,0.01 -0.01,0 -0.01,0 -0.02,0 0.02,-0 0.03,-0.01 0.05,-0.01 0.01,-0 0.02,-0 0.03,-0.01 0,0 0,0 0,0 0,0 0,0 0,0.01 -0.03,0.02 -0.03,0.04 -0.04,0.05 -0.01,0.01 -0.01,0.03 -0.03,0.05 -0.02,0.02 -0.06,0.05 -0.08,0.05 -0.01,0 -0.02,-0 -0.03,-0.01 -0,-0 -0,-0.02 -0,-0.03 -0,-0.03 -0,-0.06 -0.01,-0.08 -0.02,-0.02 -0.05,-0.04 -0.08,-0.05 -0.02,-0 -0.04,-0 -0.05,-0 -0.02,0 -0.03,0.01 -0.04,0.01zm0.41 0.49c-0.01,0.01 -0.02,0.02 -0.02,0.02 -0,0 -0,0 -0,0 -0,-0 -0,-0 -0,-0 -0,-0 -0,-0 -0,-0 -0,-0 -0,-0 -0,-0 -0,-0 -0,-0 -0,-0 -0,-0 -0,-0 -0,-0 -0,-0 -0,-0 -0,-0 -0,-0 -0,-0 -0,-0 -0,-0 -0,-0 -0,-0 -0,-0 -0,-0 -0,-0 -0,-0 -0,-0 -0,-0 -0,-0 -0,-0 -0,-0 -0,-0 -0,-0 -0,-0 -0,-0 -0,-0 -0,-0 -0,-0 -0,-0 -0,-0 -0,-0 -0,-0 -0,-0 -0,-0 -0,-0 -0,-0 -0,-0 -0,-0 -0,-0 -0,-0 -0,-0 -0,-0 -0,-0 -0,-0 -0,-0 -0,-0 -0,-0 -0,-0 -0,-0 -0,-0 -0,-0 -0,-0 -0,-0 -0,-0 -0,-0 -0,-0 -0,-0 -0,-0 -0,-0 -0,-0 -0,-0 -0,-0 -0,-0 -0,-0 -0,-0 -0,-0 -0,-0 -0,-0 -0,-0 -0,-0 -0,-0 -0,-0 -0,-0.02 0.01,-0.04 0.02,-0.04 0,-0 0.02,0.01 0.02,0.01 -0.01,0 -0.01,0.02 -0.01,0.03 0,0.01 0.01,0.02 0.01,0.03zm0.41 -0.08c-0,0.01 -0.01,0.02 -0.02,0.03l0 -0c0.01,-0 0.03,-0.01 0.03,-0.03l0 -0.03c0,-0 0.01,-0 0.01,-0.01l-0 0.01 0 -0 0 -0.02c0,-0 0,-0 0,-0l-0.01 0.05c-0,0.02 -0.02,0.04 -0.04,0.04l-0.06 0.01c0,-0 0,-0 0,-0l0.06 -0.01c0.01,-0 0.03,-0.01 0.03,-0.02 -0.01,0.01 -0.02,0.01 -0.03,0.01l-0.06 0.01c0,-0 0,-0 0,-0.01l0.04 -0.01 -0.04 0c0,-0 0,-0 0,-0l0.04 -0c0,-0 0,-0 0,-0 0,0 0,0 0,0 0.01,-0 0.02,-0.01 0.02,-0.02l0 -0.03c0,-0 0,-0 0,-0l-0 0.03zm0.01 -0.05c-0,0 -0,0 -0,0l0.02 -0.13c0,0 0,0 0,0.01l-0.02 0.12zm0.02 -0.01c-0,0 -0,0 -0,0.01 -0,0 -0,0 -0,0l0.01 -0.1c0,0.01 0,0.01 0,0.02l-0.01 0.07zm0.01 -0.05l-0 0.02c-0,0.01 -0,0.01 -0,0.01l0.01 -0.06c0,0.01 0,0.01 0,0.02zm0.01 -0.1l-0 0.03c-0,-0 -0,-0.01 -0.01,-0.01l0 -0.02c0,-0 0.01,-0.01 0.01,-0.01 0,-0 0,-0 0,-0l0 -0c0,-0 0,-0 0,-0l-0.01 0.05c-0,-0 -0,-0 -0,-0.01l0 -0.04c-0,0 -0,0 -0,-0zm0.6 -0.01c-0.01,-0.03 -0.02,-0.06 -0.03,-0.09 -0.01,-0.03 -0.03,-0.06 -0.05,-0.09 -0.01,-0.01 -0.02,-0.03 -0.03,-0.04 -0.01,-0.01 -0.02,-0.02 -0.03,-0.03 -0,-0 -0,-0 -0,-0 0.01,0.01 0.02,0.02 0.03,0.03 0.01,0.01 0.02,0.03 0.03,0.04 0.02,0.03 0.04,0.06 0.05,0.09 0.01,0.02 0.01,0.03 0.02,0.05 0,0.01 0.01,0.03 0.01,0.04 0,0.02 0.01,0.03 0.01,0.05 0,0.02 0,0.03 0.01,0.05 0,0.03 0,0.06 -0,0.09 -0,0 -0,0 -0,0.01 0,-0.03 0,-0.06 -0,-0.08 -0,-0.03 -0.01,-0.07 -0.01,-0.1zm-0.61 0.16c-0.02,0.02 -0.06,0.03 -0.09,0.04l0 -0c0.03,-0.01 0.07,-0.02 0.09,-0.04 0.02,-0.02 0.02,-0.08 0.01,-0.11 -0,-0.01 -0.01,-0.02 -0.01,-0.03 0,-0 0,-0 0,-0 0,0.01 0.01,0.02 0.01,0.03 0.02,0.04 0.01,0.1 -0.01,0.12zm0.69 -0.12c-0.01,-0.11 -0.06,-0.22 -0.13,-0.29 -0.03,-0.04 -0.07,-0.06 -0.11,-0.08 -0.02,-0.01 -0.04,-0.01 -0.06,-0.02 -0,-0 -0.01,-0 -0.01,-0 -0.01,-0 -0.01,-0 -0.02,-0 0.02,-0 0.05,0 0.07,0.01 0,0 0,0 0.01,0 -0.01,-0.02 -0.02,-0.04 -0.04,-0.04 -0.03,-0.01 -0.06,-0.01 -0.08,-0 -0.04,0 -0.07,0.02 -0.1,0.04l-0 0 -0 -0c-0,-0 -0,-0 -0,-0l-0.02 -0.03c-0,-0 -0,-0 -0,-0 -0,-0.01 -0.01,-0.01 -0.02,-0.01l-0 -0 -0.04 -0.06 0 -0c0,-0.01 0,-0.03 0,-0.04 -0,-0.02 -0.01,-0.03 -0.02,-0.05l-0 -0 0.08 -0c0.01,-0 0.01,-0.01 0.02,-0.01l0 -0 0 0c0,0 0,0 0.01,0 0.01,-0 0.02,-0.01 0.02,-0.02 -0,-0 -0,-0.01 -0.01,-0.01 -0,-0 -0.01,-0.01 -0.01,-0 -0,0 -0,0 -0.01,0l-0 0 -0 -0c-0,-0.01 -0.01,-0.01 -0.02,-0.01l-0.08 0 -0 -0c-0,-0 -0.01,-0.01 -0.01,-0.01l-0 -0 0.01 -0.01 0.02 -0c0.02,-0 0.03,-0.02 0.03,-0.04l-0 -0.01c-0,-0.01 -0.01,-0.02 -0.02,-0.03l-0.06 -0.02c-0.01,-0 -0.01,-0 -0.02,-0 -0.02,0 -0.03,0.02 -0.03,0.04l0 0.04c0,0.01 0.01,0.02 0.02,0.03l0 0 -0 0c-0,0 -0,0 -0,0.01l-0 0 -0 0c-0,0 -0.01,0.01 -0.01,0.01l-0 0 -0.06 -0 -0 -0c-0.01,-0.01 -0.01,-0.02 -0.02,-0.02l-0 -0 -0.02 -0.03c-0,-0 -0,-0 -0,-0 -0.01,-0.01 -0.02,-0.01 -0.04,-0.01 -0.01,0 -0.03,0.01 -0.04,0.02 -0,0 -0.01,0.01 -0.01,0.01l-0 0 -0 -0c-0,-0 -0,-0 -0,-0 -0.01,-0.01 -0.02,-0.01 -0.04,-0.01 -0.01,0 -0.03,0.01 -0.04,0.02 -0.01,0.01 -0.02,0.03 -0.03,0.04l-0 0 -0.05 0 -0 -0c-0.01,-0.01 -0.02,-0.02 -0.03,-0.03l-0 -0 -0 -0c-0,-0.01 -0.01,-0.02 -0.02,-0.02l-0.02 -0.02 0 -0c0,-0 0,-0.01 -0,-0.01l-0 -0.03c-0,-0.02 -0.02,-0.04 -0.05,-0.04 -0,0 -0.01,0 -0.01,0l-0.09 0.04c-0.01,0.01 -0.02,0.02 -0.02,0.03l0 0.02c0,0.02 0.02,0.03 0.04,0.03l0.1 -0.01c0,-0 0.01,-0 0.01,-0l0 -0 0.02 0.02 -0.03 0c-0,0 -0,0 -0,0l-0 0c-0.01,0 -0.02,0.01 -0.03,0.02l-0 0 -0.13 0.01c-0.02,0 -0.03,0.02 -0.03,0.05 0,0.02 0.02,0.04 0.04,0.04l0 -0 0.12 -0.01 0 0c0.01,0.01 0.02,0.02 0.04,0.02l0 0c0,0 0,0 0,0l0.05 -0.01c0.01,-0 0.02,-0 0.02,-0.01l0 -0 0 -0c0.03,-0 0.06,0 0.1,0.02l0 0 -0.01 0c-0.01,0 -0.03,0.01 -0.04,0.01 -0.06,0.02 -0.11,0.06 -0.16,0.11 -0.04,0.05 -0.07,0.09 -0.07,0.1 -0,0 -0,0.01 -0.01,0.02l-0 0 -0.01 -0c-0.02,-0 -0.03,-0.01 -0.05,-0.02 -0.03,-0.01 -0.06,-0.03 -0.1,-0.02 -0,0 -0,0 -0.01,0 -0.03,0 -0.12,0.02 -0.14,0.02 -0.04,0.01 -0.05,0.04 -0.05,0.06l0 0 -0 0c-0.05,0.02 -0.09,0.07 -0.12,0.14l-0 0c-0,0 -0,0 0,0.01l0 0c0.02,0.01 0.04,0.02 0.05,0.01 0,-0 0,-0 0,-0l0 -0 -0 0c-0.03,0.05 -0.04,0.12 -0.04,0.19l0 0 -0 0c-0.09,0 -0.09,0 -0.09,0 -0.02,0 -0.04,0.03 -0.03,0.06 0,0.03 0.02,0.05 0.05,0.05l0.11 -0 0 0c0.02,0.06 0.06,0.1 0.1,0.13 0.05,0.03 0.1,0.05 0.15,0.04 0.06,-0.01 0.12,-0.05 0.16,-0.11l0 -0 0.06 -0c0,0 0,-0 0,-0 0.01,-0 0.02,-0.01 0.03,-0.02l0 -0 0.27 -0.01c0.01,-0 0.03,-0.01 0.04,-0.01l0 -0 0.07 -0.01c0,-0 0,-0 0,-0 0.02,-0 0.04,-0.02 0.05,-0.05l0.01 -0.06 0 -0c0.01,-0.02 0.02,-0.04 0.02,-0.07l-0 -0.01 0 0.01c0,0 0,0 0,0 0,0 0,0 0,0l0 -0c0,-0 0.01,-0 0.01,-0 0,0.01 0,0.02 0,0.03 0.01,0.11 0.06,0.22 0.13,0.29 0.07,0.07 0.15,0.11 0.24,0.1 0.08,-0.01 0.16,-0.06 0.21,-0.15 0.05,-0.09 0.07,-0.2 0.06,-0.31z"/>
  </g>
 </g>
</svg>
